<svg width="574" height="354" viewBox="0 0 574 354" fill="none" xmlns="http://www.w3.org/2000/svg">
<path opacity="0.1" fill-rule="evenodd" clip-rule="evenodd" d="M471.157 353.115C435.48 353.115 412.736 326.581 378.8 313.054C357.382 304.84 334.677 300.906 311.935 300.906C282.167 300.906 252.334 307.65 225.259 320.36C194.775 334.035 151.78 346.466 111.706 346.466C63.4925 346.466 19.5082 328.463 6.67411 272.976C-2.11058 235.268 10.8072 208.848 45.4989 194.77C58.7786 189.607 72.5281 181.825 80.0294 168.544C90.3803 150.81 78.124 123.98 75.8172 104.985C69.5522 50.7305 99.9482 36.3874 141.559 36.3874C164.9 36.3874 191.773 40.9028 217.679 45.4167C243.586 49.9306 268.522 54.446 288.003 54.4445C296.078 54.4445 303.217 53.6689 309.096 51.796L305.965 52.0115C320.358 47.8345 327.789 33.4929 340.999 27.27C348.672 23.9703 355.808 22.5391 362.534 22.5391C402.244 22.5391 427.602 72.4546 464.121 82.6981C483.319 87.7706 500.91 84.4406 520.318 92.6897C544.037 102.774 556.294 129.602 555.963 156.226C554.448 180.806 534.767 196.705 523.584 217.687C510.315 238.813 515.119 248.061 521.808 269.948C533.584 305.324 527.498 343.327 487.171 351.404C481.525 352.582 476.213 353.115 471.157 353.115Z" fill="#3262F2"/>
<path opacity="0.1" fill-rule="evenodd" clip-rule="evenodd" d="M287.501 42.574C282.158 42.574 282.158 34.5601 287.501 34.5601C292.844 34.5601 292.844 42.574 287.501 42.574Z" fill="#3262F2"/>
<path opacity="0.1" fill-rule="evenodd" clip-rule="evenodd" d="M39.0692 171.799C28.3832 171.799 28.3832 154.77 39.0692 154.77C49.7537 154.77 49.7537 171.799 39.0692 171.799Z" fill="#3262F2"/>
<path opacity="0.1" fill-rule="evenodd" clip-rule="evenodd" d="M541.944 237.914C531.258 237.914 531.258 220.885 541.944 220.885C552.629 220.885 552.629 237.914 541.944 237.914Z" fill="#3262F2"/>
<path opacity="0.1" fill-rule="evenodd" clip-rule="evenodd" d="M259.452 38.5673C248.766 38.5673 248.766 21.5376 259.452 21.5376C270.137 21.5376 270.137 38.5673 259.452 38.5673Z" fill="#3262F2"/>
<path opacity="0.1" fill-rule="evenodd" clip-rule="evenodd" d="M558.473 211.869C544.449 211.869 544.449 189.831 558.473 189.831C572.498 189.831 572.498 211.869 558.473 211.869Z" fill="#3262F2"/>
<path opacity="0.1" fill-rule="evenodd" clip-rule="evenodd" d="M11.5208 199.848C-2.50434 199.848 -2.50434 177.81 11.5208 177.81C25.5445 177.81 25.5445 199.848 11.5208 199.848Z" fill="#3262F2"/>
<path opacity="0.1" fill-rule="evenodd" clip-rule="evenodd" d="M475.329 68.6194C461.304 68.6194 461.304 46.5811 475.329 46.5811C489.353 46.5811 489.353 68.6194 475.329 68.6194Z" fill="#3262F2"/>
<path opacity="0.1" fill-rule="evenodd" clip-rule="evenodd" d="M282.491 25.5446C266.464 25.5446 266.464 0.500977 282.491 0.500977C298.52 0.500977 298.52 25.5446 282.491 25.5446Z" fill="#3262F2"/>
<path opacity="0.1" fill-rule="evenodd" clip-rule="evenodd" d="M567.989 231.904C559.975 231.904 559.975 218.881 567.989 218.881C576.003 218.881 576.003 231.904 567.989 231.904Z" fill="#3262F2"/>
<path opacity="0.1" fill-rule="evenodd" clip-rule="evenodd" d="M8.01381 163.785C0.000604153 163.785 0.000604153 150.763 8.01381 150.763C16.0285 150.763 16.0285 163.785 8.01381 163.785Z" fill="#3262F2"/>
<path opacity="0.1" fill-rule="evenodd" clip-rule="evenodd" d="M500.872 80.6404C492.858 80.6404 492.858 67.6177 500.872 67.6177C508.886 67.6177 508.886 80.6404 500.872 80.6404Z" fill="#3262F2"/>
<path opacity="0.1" fill-rule="evenodd" clip-rule="evenodd" d="M498.869 57.6004C493.525 57.6004 493.525 49.5864 498.869 49.5864C504.211 49.5864 504.211 57.6004 498.869 57.6004Z" fill="#3262F2"/>
<path opacity="0.1" fill-rule="evenodd" clip-rule="evenodd" d="M76.1325 42.5741C65.448 42.5741 65.448 25.5444 76.1325 25.5444C86.8186 25.5444 86.8186 42.5741 76.1325 42.5741Z" fill="#3262F2"/>
<path opacity="0.1" fill-rule="evenodd" clip-rule="evenodd" d="M551.962 332.078C541.276 332.078 541.276 315.049 551.962 315.049C562.646 315.049 562.646 332.078 551.962 332.078Z" fill="#3262F2"/>
<path opacity="0.1" fill-rule="evenodd" clip-rule="evenodd" d="M8.01396 339.091C-2.67132 339.091 -2.67132 322.061 8.01396 322.061C18.6992 322.061 18.6992 339.091 8.01396 339.091Z" fill="#3262F2"/>
<path opacity="0.1" fill-rule="evenodd" clip-rule="evenodd" d="M101.177 30.553C95.8343 30.553 95.8343 22.5391 101.177 22.5391C106.52 22.5391 106.52 30.553 101.177 30.553Z" fill="#3262F2"/>
<path opacity="0.1" fill-rule="evenodd" clip-rule="evenodd" d="M551.962 298.019C546.619 298.019 546.619 290.005 551.962 290.005C557.305 290.005 557.305 298.019 551.962 298.019Z" fill="#3262F2"/>
<path opacity="0.1" fill-rule="evenodd" clip-rule="evenodd" d="M34.0603 348.106C28.7169 348.106 28.7169 340.092 34.0603 340.092C39.4022 340.092 39.4022 348.106 34.0603 348.106Z" fill="#3262F2"/>
<path fill-rule="evenodd" clip-rule="evenodd" d="M153.44 208.296C147.78 210.295 144.044 210.678 141.143 204.95C138.912 200.541 137.422 195.987 134.612 191.859C128.52 182.913 122.619 182.312 112.866 183.587C103.185 184.852 89.9777 182.378 88.5082 171.178C87.4604 163.194 87.3993 155.854 83.9058 148.385C82.1859 144.705 76.754 147.909 78.4664 151.567C82.3417 159.853 80.6461 168.876 83.4827 177.317C86.3606 185.881 95.9442 188.642 103.999 189.604C110.086 190.33 115.415 188.861 121.383 188.869C127.793 188.876 132.168 199.875 134.201 204.704C138.434 214.771 144.434 218.148 155.114 214.373C158.919 213.03 157.28 206.939 153.44 208.296Z" fill="#121514"/>
<path fill-rule="evenodd" clip-rule="evenodd" d="M86.4013 140.964C84.5054 143.373 82.1855 144.88 79.423 146.229C76.5038 147.655 79.0712 151.898 81.9827 150.475C85.5732 148.721 88.3372 146.549 90.7801 143.446C91.6205 142.378 90.9522 140.695 89.8705 140.081C88.5677 139.341 87.2387 139.901 86.4013 140.964Z" fill="#121514"/>
<path fill-rule="evenodd" clip-rule="evenodd" d="M78.1367 133.189C78.1508 138.569 78.9456 143.921 78.9956 149.303C79.0252 152.583 84.1783 152.586 84.147 149.303C84.0986 143.921 83.3038 138.569 83.2898 133.189C83.2804 129.907 78.1274 129.907 78.1367 133.189Z" fill="#121514"/>
<path fill-rule="evenodd" clip-rule="evenodd" d="M68.7259 139.135C72.1565 143.321 75.6414 147.496 80.3523 150.368C83.1661 152.084 85.7374 147.752 82.9408 146.048C78.6385 143.425 75.4814 139.413 72.3507 135.597C70.2858 133.076 66.6828 136.642 68.7259 139.135Z" fill="#121514"/>
<path fill-rule="evenodd" clip-rule="evenodd" d="M64.8789 146.985C69.5106 151.383 75.2826 152.84 81.4015 150.962C84.4617 150.023 83.157 145.196 80.0788 146.14C75.6597 147.497 71.779 146.661 68.3976 143.451C66.0689 141.237 62.5427 144.767 64.8789 146.985Z" fill="#121514"/>
<path fill-rule="evenodd" clip-rule="evenodd" d="M408.93 223.878C409.155 215.722 411.875 213 419.731 212.358C424.836 211.941 430.014 212.012 435.063 211.069C442.768 209.632 442.626 198.979 445.606 193.482C450.159 185.085 462.392 185.978 470.286 183.496C478.984 180.765 482.322 173.385 482.834 164.79C483.076 160.767 476.846 160.791 476.606 164.79C475.844 177.577 466.486 178.021 456.211 180.14C447.152 182.009 441.016 186.984 437.867 195.733C436.881 198.472 436.642 204.181 433.407 205.051C428.141 206.466 422.079 205.82 416.66 206.409C406.479 207.513 402.97 214.194 402.703 223.878C402.592 227.906 408.82 227.896 408.93 223.878Z" fill="#121514"/>
<path fill-rule="evenodd" clip-rule="evenodd" d="M467.949 156.895C470.056 161.919 473.687 165.551 478.712 167.658C479.954 168.178 481.424 167.106 481.745 165.935C482.135 164.514 481.261 163.422 480.022 162.902C476.781 161.543 474.063 158.826 472.704 155.585C472.184 154.346 471.093 153.472 469.672 153.862C468.501 154.185 467.429 155.653 467.949 156.895Z" fill="#121514"/>
<path fill-rule="evenodd" clip-rule="evenodd" d="M475.828 150.272C475.828 154.606 475.828 158.94 475.828 163.274C475.828 166.627 480.837 166.627 480.837 163.274C480.837 158.94 480.837 154.606 480.837 150.272C480.837 146.919 475.828 146.919 475.828 150.272Z" fill="#121514"/>
<path fill-rule="evenodd" clip-rule="evenodd" d="M484.693 151.544C483.12 156.076 480.406 159.487 476.711 162.498C474.118 164.612 477.812 168.257 480.381 166.163C484.779 162.579 487.836 158.285 489.696 152.921C490.795 149.754 485.782 148.406 484.693 151.544Z" fill="#121514"/>
<path fill-rule="evenodd" clip-rule="evenodd" d="M490.053 155.997C487.832 159.619 484.322 161.933 480.529 163.531C477.531 164.796 478.841 169.87 481.884 168.588C486.964 166.445 491.472 163.507 494.456 158.644C496.214 155.776 491.801 153.147 490.053 155.997Z" fill="#121514"/>
<path fill-rule="evenodd" clip-rule="evenodd" d="M437.762 314.439C437.762 318.793 405.024 320.058 401.486 320.058H156.485C152.952 320.058 120.209 318.793 120.209 314.439L150.083 269.842C150.083 265.486 152.952 261.957 156.485 261.957H401.486C405.024 261.957 407.888 265.486 407.888 269.842L437.762 314.439Z" fill="#A4A6A3"/>
<path fill-rule="evenodd" clip-rule="evenodd" d="M229.394 304.03H166.289L177.332 277.984H234.408L229.394 304.03Z" fill="#2F3230"/>
<path fill-rule="evenodd" clip-rule="evenodd" d="M330.58 304.03H393.685L382.64 277.984H325.566L330.58 304.03Z" fill="#2F3230"/>
<path fill-rule="evenodd" clip-rule="evenodd" d="M399.441 304.03H421.735L403.492 277.984H386.674L399.441 304.03Z" fill="#2F3230"/>
<path fill-rule="evenodd" clip-rule="evenodd" d="M158.535 304.03H136.238L154.483 277.984H171.299L158.535 304.03Z" fill="#2F3230"/>
<path fill-rule="evenodd" clip-rule="evenodd" d="M324.565 304.03H234.408L239.435 277.984H319.539L324.565 304.03Z" fill="#2F3230"/>
<path fill-rule="evenodd" clip-rule="evenodd" d="M142.248 287H416.726V282.993H142.248V287Z" fill="#A4A6A3"/>
<path fill-rule="evenodd" clip-rule="evenodd" d="M139.242 297.017H419.731V293.01H139.242V297.017Z" fill="#A4A6A3"/>
<path fill-rule="evenodd" clip-rule="evenodd" d="M440.767 324.766C440.767 328.252 440.032 331.077 436.493 331.077H123.483C119.937 331.077 119.207 328.252 119.207 324.766V319.355C119.207 315.869 119.937 313.045 123.483 313.045H436.493C440.032 313.045 440.767 315.869 440.767 319.355V324.766Z" fill="#2F3230"/>
<path fill-rule="evenodd" clip-rule="evenodd" d="M337.589 323.062C337.589 324.722 336.095 326.068 334.252 326.068H223.722C221.879 326.068 220.385 324.722 220.385 323.062C220.385 321.403 221.879 320.058 223.722 320.058H334.252C336.095 320.058 337.589 321.403 337.589 323.062Z" fill="#5E6360"/>
<path fill-rule="evenodd" clip-rule="evenodd" d="M411.717 263.55C411.717 267.096 408.848 269.971 405.306 269.971H153.666C150.126 269.971 147.256 267.096 147.256 263.55V99.0833C147.256 95.5382 150.126 92.6616 153.666 92.6616H405.306C408.848 92.6616 411.717 95.5382 411.717 99.0833V263.55Z" fill="#2F3230"/>
<path fill-rule="evenodd" clip-rule="evenodd" d="M278.987 102.679C282.326 102.679 282.326 96.6685 278.987 96.6685C275.647 96.6685 275.647 102.679 278.987 102.679Z" fill="#FFFFFE"/>
<path fill-rule="evenodd" clip-rule="evenodd" d="M393.685 253.437C393.685 256.482 391.207 258.951 388.153 258.951H170.824C167.768 258.951 165.287 256.482 165.287 253.437V112.2C165.287 109.155 167.768 106.686 170.824 106.686H388.153C391.207 106.686 393.685 109.155 393.685 112.2V253.437Z" fill="#FFFFFE"/>
<path fill-rule="evenodd" clip-rule="evenodd" d="M244.132 161.518L225.129 180.52C224.144 181.505 224.144 183.101 225.129 184.085C226.112 185.068 227.708 185.068 228.691 184.085L247.694 165.082C248.679 164.097 248.679 162.503 247.695 161.518C246.71 160.534 245.115 160.534 244.132 161.518Z" fill="#325265"/>
<path fill-rule="evenodd" clip-rule="evenodd" d="M247.694 180.522L228.692 161.518C227.708 160.534 226.113 160.534 225.129 161.518C224.144 162.503 224.144 164.097 225.129 165.082L244.132 184.085C245.115 185.068 246.711 185.068 247.694 184.085C248.679 183.101 248.679 181.506 247.694 180.522Z" fill="#325265"/>
<path fill-rule="evenodd" clip-rule="evenodd" d="M329.281 161.518L310.277 180.52C309.293 181.505 309.293 183.101 310.277 184.085C311.261 185.068 312.855 185.068 313.84 184.085L332.843 165.082C333.827 164.097 333.827 162.503 332.843 161.518C331.86 160.534 330.265 160.534 329.281 161.518Z" fill="#325265"/>
<path fill-rule="evenodd" clip-rule="evenodd" d="M332.843 180.522L313.841 161.518C312.856 160.534 311.262 160.534 310.277 161.518C309.293 162.503 309.293 164.097 310.277 165.082L329.281 184.085C330.264 185.068 331.86 185.068 332.843 184.085C333.827 183.101 333.827 181.506 332.843 180.522Z" fill="#325265"/>
<path opacity="0.5" fill-rule="evenodd" clip-rule="evenodd" d="M322.563 204.857V224.033C322.563 227.828 319.56 230.902 315.856 230.902H312.24C308.536 230.902 305.533 227.828 305.533 224.033V204.857" fill="#FD6F8D"/>
<path fill-rule="evenodd" clip-rule="evenodd" d="M317.553 205.858L314.547 227.897L311.543 205.858H317.553Z" fill="#FD6F8D"/>
<path fill-rule="evenodd" clip-rule="evenodd" d="M222.469 206.86H335.505C336.655 206.86 337.589 205.964 337.589 204.857C337.589 203.751 336.655 202.854 335.505 202.854H222.469C221.318 202.854 220.385 203.751 220.385 204.857C220.385 205.964 221.318 206.86 222.469 206.86Z" fill="#325265"/>
<path fill-rule="evenodd" clip-rule="evenodd" d="M204.356 202.853C215.041 202.853 215.041 185.824 204.356 185.824C193.67 185.824 193.67 202.853 204.356 202.853Z" fill="#FD6F8D"/>
<path fill-rule="evenodd" clip-rule="evenodd" d="M354.617 202.853C365.303 202.853 365.303 185.824 354.617 185.824C343.932 185.824 343.932 202.853 354.617 202.853Z" fill="#FD6F8D"/>
<path fill-rule="evenodd" clip-rule="evenodd" d="M369.645 70.65C369.645 88.9975 369.645 107.345 369.645 125.692C369.645 131.071 377.658 131.071 377.658 125.692C377.658 107.345 377.658 88.9975 377.658 70.65C377.658 65.2716 369.645 65.2716 369.645 70.65Z" fill="#E9AA13"/>
<path fill-rule="evenodd" clip-rule="evenodd" d="M372.649 147.758C380.663 147.758 380.663 134.735 372.649 134.735C364.635 134.735 364.635 147.758 372.649 147.758Z" fill="#E9AA13"/>
</svg>
