<svg width="534" height="339" viewBox="0 0 534 339" fill="none" xmlns="http://www.w3.org/2000/svg">
<path opacity="0.2" d="M130.906 339C202.703 339 260.906 331.613 260.906 322.5C260.906 313.387 202.703 306 130.906 306C59.1092 306 0.90625 313.387 0.90625 322.5C0.90625 331.613 59.1092 339 130.906 339Z" fill="#3F3D56"/>
<path d="M473.906 152H362.48L303.906 247.286C321.497 258.241 341.787 264.031 362.48 264C424.019 264 473.906 213.856 473.906 152Z" fill="#F2F2F2"/>
<path d="M150.551 68C150.551 68 151.593 78.6977 148.468 82.9767C145.343 87.2558 156.281 114 156.281 114L171.906 84.0465C171.906 84.0465 166.698 80.8372 169.823 71.7442L150.551 68Z" fill="#FFB9B9"/>
<path opacity="0.1" d="M150.551 68C150.551 68 151.593 78.6977 148.468 82.9767C145.343 87.2558 156.281 114 156.281 114L171.906 84.0465C171.906 84.0465 166.698 80.8372 169.823 71.7442L150.551 68Z" fill="black"/>
<path d="M197.373 119.201L197.906 141.228L177.64 174L173.906 161.643L185.106 139.616C185.106 139.616 181.373 129.408 182.44 123.499C183.506 117.589 197.373 119.201 197.373 119.201Z" fill="#FFB9B9"/>
<path d="M115.44 116.201L114.906 138.228L135.173 171L138.906 158.643L127.706 136.616C127.706 136.616 131.44 126.408 130.373 120.499C129.306 114.589 115.44 116.201 115.44 116.201Z" fill="#FFB9B9"/>
<path opacity="0.2" d="M129.687 152L127.59 157.285C121.932 162.584 118.865 170.12 119.202 177.898L112.911 243.436C112.911 243.436 108.716 248.193 110.289 254.007C110.289 254.007 106.619 273.563 108.716 279.905C108.716 279.905 99.804 296.29 109.241 297.347C118.677 298.404 121.823 298.404 122.872 294.704C123.92 291.004 125.493 277.263 125.493 277.263L148.56 194.811L152.23 246.079C152.23 246.079 148.56 259.821 149.609 263.521C150.658 267.22 142.269 293.647 145.939 296.29C149.609 298.932 160.094 299.989 160.619 297.875C161.143 295.761 161.667 282.548 161.667 282.548C161.667 282.548 166.91 270.92 167.958 267.22C169.007 263.521 170.055 242.908 170.055 242.908L179.492 182.126C179.492 182.126 181.589 165.742 176.346 162.571L174.249 153.057L129.687 152Z" fill="#2F2E41"/>
<path d="M106.953 295L104.886 305.566C104.886 305.566 94.0341 323 104.37 323C114.705 323 115.739 317.717 115.739 317.717V312.962C115.739 312.962 120.906 310.321 120.906 309.792C120.906 309.264 119.356 296.585 119.356 296.585L106.953 295Z" fill="#2F2E41"/>
<path d="M158.859 295L160.926 305.566C160.926 305.566 171.778 323 161.443 323C151.108 323 150.074 317.717 150.074 317.717V312.962C150.074 312.962 144.906 310.321 144.906 309.792C144.906 309.264 146.457 296.585 146.457 296.585L158.859 295Z" fill="#2F2E41"/>
<path d="M162.906 80C170.638 80 176.906 73.732 176.906 66C176.906 58.268 170.638 52 162.906 52C155.174 52 148.906 58.268 148.906 66C148.906 73.732 155.174 80 162.906 80Z" fill="#FFB9B9"/>
<path d="M156.586 101.829C156.586 101.829 148.666 88.5947 149.194 85.4185C149.519 83.5989 149.511 81.7351 149.169 79.9185L144.442 82.7717L124.906 91.7708L132.826 118.239C132.826 118.239 130.714 124.062 130.714 128.297C130.714 132.532 131.77 137.296 130.714 138.884C129.658 140.472 129.13 143.119 130.186 145.236C130.817 146.553 131.002 148.04 130.714 149.471C130.714 149.471 123.322 153.706 127.546 154.765C130.329 155.38 133.212 155.38 135.994 154.765C135.994 154.765 136.522 153.177 140.746 155.294C144.97 157.412 167.146 157.941 167.146 157.941C167.146 157.941 181.402 158.471 180.874 156.353C180.346 154.236 183.514 129.356 183.514 129.356L190.906 94.4177L174.01 83.8304L168.553 79L167.146 86.4772L156.586 101.829Z" fill="#FD6F8D"/>
<path d="M128.683 93H125.052C125.052 93 106.641 114.935 111.827 118.548C117.013 122.161 134.906 125 134.906 125C134.906 125 133.35 93 128.683 93Z" fill="#FD6F8D"/>
<path d="M186.119 95H190.778C190.778 95 203.203 123.954 199.061 124.988C194.919 126.022 179.906 129.125 179.906 127.574C179.906 126.022 186.119 95 186.119 95Z" fill="#FD6F8D"/>
<path d="M147.971 64.3422C147.971 64.3422 146.457 62.1151 147.04 59.7166C147.388 58.3549 147.525 56.9496 147.447 55.5479C148.099 53.4701 148.917 51.446 149.893 49.4946C151.116 47.3246 150.534 46.4109 154.378 45.7256C158.221 45.0403 156.649 40.1292 166.783 45.4401C167.482 46.3972 168.699 46.8479 169.869 46.5822C171.966 46.1825 172.723 49.0378 172.723 49.0378C172.723 49.0378 174.121 48.2383 174.645 49.3804C175.169 50.5225 178.906 48.6949 178.906 56.4043C178.906 64.1136 174.653 71 174.653 71C174.653 71 174.965 58.032 168.035 56.7185C161.104 55.4051 153.65 51.579 151.844 56.4901C150.87 59.2465 149.57 61.8817 147.971 64.3422Z" fill="#2F2E41"/>
<path fill-rule="evenodd" clip-rule="evenodd" d="M300.355 237.216C318.008 248.204 338.36 254.017 359.119 254C420.759 254 470.906 203.547 470.906 141.531V141H358.825L300.184 236.485L299.906 236.936L300.355 237.216ZM359.119 252.938C338.736 252.955 318.745 247.297 301.359 236.591L359.414 142.062H469.85C469.566 203.25 420.002 252.938 359.119 252.938Z" fill="#3F3D56"/>
<path d="M224.906 136.627C224.888 175.489 244.993 211.584 278.03 232L336.906 136.627L239.648 81C229.96 97.9331 224.876 117.113 224.906 136.627Z" fill="#F2F2F2"/>
<path fill-rule="evenodd" clip-rule="evenodd" d="M287.162 227.721L287.613 228L346.906 131.995L248.96 76L248.697 76.4595C218.705 129.015 235.712 195.894 287.162 227.721ZM287.27 226.539C236.805 194.988 220.097 129.29 249.354 77.4468L345.428 132.371L287.27 226.539Z" fill="#3F3D56"/>
<path d="M391.051 10L366.906 118H478.906C478.906 65.1114 441.3 20.9025 391.051 10Z" fill="#FD6F8D"/>
<path fill-rule="evenodd" clip-rule="evenodd" d="M357.906 126H470.906V125.476C470.9 73.4116 434.255 28.3486 382.784 17.1123L382.266 17L357.906 126ZM469.844 124.952H359.227L383.073 18.249C433.212 29.3835 469.595 74.1244 469.844 124.952Z" fill="#3F3D56"/>
<path d="M344.842 8.77376e-06C304.777 -0.0158691 267.779 21.5199 247.906 56.4241L344.842 112L368.906 2.61782C361.003 0.875624 352.934 -0.00210474 344.842 8.77376e-06Z" fill="#F2F2F2"/>
<path fill-rule="evenodd" clip-rule="evenodd" d="M250.906 64.9797L348.643 121L372.906 10.7434L372.39 10.6297C324.583 0.0823994 275.488 21.9083 251.169 64.5197L250.906 64.9797ZM347.921 119.366L252.349 64.5867C276.443 22.8311 324.623 1.41225 371.647 11.5515L347.921 119.366Z" fill="#3F3D56"/>
<path d="M406.674 90L405.906 89.2663L463.79 27H510.906V28.0695H464.246L406.674 90Z" fill="#3F3D56"/>
<rect x="478.906" y="34" width="55" height="2" fill="#FD6F8D"/>
<rect x="478.906" y="43" width="55" height="2" fill="#FD6F8D"/>
<rect x="478.906" y="52" width="55" height="2" fill="#FD6F8D"/>
<rect x="459.906" y="268" width="55" height="2" fill="#FD6F8D"/>
<rect x="459.906" y="276" width="55" height="2" fill="#FD6F8D"/>
<rect x="459.906" y="283" width="55" height="2" fill="#FD6F8D"/>
<path d="M490.906 259H435.285L435.128 258.77L391.906 195.602L392.774 195L435.838 257.938H490.906V259Z" fill="#3F3D56"/>
<path opacity="0.2" d="M32.1119 296.752C30.4509 312.216 39.3988 326 39.3988 326C39.3988 326 51.0396 314.712 52.7006 299.248C54.3616 283.784 45.4138 270 45.4138 270C45.4138 270 33.7729 281.288 32.1119 296.752Z" fill="#2F2E41"/>
<path d="M36.717 296.452C42.9284 310.811 38.1529 327 38.1529 327C38.1529 327 23.3069 319.907 17.0955 305.548C10.8841 291.189 15.6596 275 15.6596 275C15.6596 275 30.5056 282.093 36.717 296.452Z" fill="#FD6F8D"/>
</svg>
