<svg width="570" height="329" viewBox="0 0 570 329" fill="none" xmlns="http://www.w3.org/2000/svg">
<path fill-rule="evenodd" clip-rule="evenodd" d="M140.825 215.068C106.297 203.099 66.8195 192.967 34.561 210.167C30.4725 212.348 26.4439 215.092 24.2411 219.176C18.4227 229.92 27.6711 243.853 23.1636 255.21C18.6562 266.566 1.69181 272.284 3.08057 284.415C3.44571 287.586 5.15771 290.457 7.17499 292.931C19.8115 308.42 42.9773 309.987 62.5575 306.143C82.1377 302.3 101.287 294.33 121.22 295.333C140.376 296.324 157.998 305.543 175.549 313.302C205.138 326.418 239.695 335.829 269.26 322.647C282.807 316.605 294.006 306.318 306.972 299.135C324.445 289.544 344.53 285.847 364.258 288.589C377.427 290.451 389.998 295.135 402.886 298.366C432.157 305.699 462.71 305.459 492.873 305.171C498.488 305.117 504.193 305.05 509.574 303.441C517.542 301.039 524.114 295.507 530.442 290.096C538.756 282.992 547.514 275.184 550.195 264.56C553.362 251.949 546.807 238.544 537.086 229.974C527.365 221.404 514.938 216.72 502.81 212.203C499.817 211.098 496.621 209.975 493.556 210.81C491.545 211.363 489.851 212.708 488.348 214.155C479.74 222.467 472.467 236.526 460.729 234.268C456.538 233.463 453.108 230.539 449.792 227.836C432.086 213.423 408.267 202.294 386.897 210.258C371.268 216.083 360.236 231.043 344.397 236.322C333.131 240.082 320.89 238.454 309.037 239.187C291.798 240.244 275.019 246.357 257.755 245.985C213.734 245.036 177.058 202.805 133.216 206.828C129.78 207.141 126.033 207.933 123.926 210.66" fill="#F7F5EF"/>
<path d="M85.9143 175.113C85.9143 175.113 49.2891 197.114 116.828 231C116.828 231 131.709 203.507 115.258 181.089C108.65 172.048 96.2917 169.353 86.4896 174.815L85.9143 175.113Z" fill="#536DFE"/>
<path d="M86 175C86 175 117.871 198.716 116.982 231" stroke="#535461"/>
<path d="M548.879 156.626C556.261 183.744 524.77 261 524.77 261C524.77 261 458.508 210.604 451.12 183.486C445.859 165.787 450.553 146.614 463.385 133.384C476.218 120.155 495.176 114.944 512.926 119.769C530.675 124.593 544.432 138.696 548.873 156.62L548.879 156.626Z" fill="#536DFE"/>
<path opacity="0.1" d="M548.879 156.626C556.261 183.744 524.77 261 524.77 261C524.77 261 458.508 210.604 451.12 183.486C445.859 165.787 450.553 146.614 463.385 133.384C476.218 120.155 495.176 114.944 512.926 119.769C530.675 124.593 544.432 138.696 548.873 156.62L548.879 156.626Z" fill="black"/>
<path d="M486 122C486 122 526.893 184.532 523.837 262" stroke="#535461"/>
<path d="M558.68 205.501C558.68 205.501 521.732 185.251 526.409 260C526.409 260 557.23 258.89 568.17 233.56C572.597 223.364 568.752 211.443 559.222 205.815L558.68 205.501Z" fill="#536DFE"/>
<path d="M560 206C560 206 555.065 245.252 526 261" stroke="#535461"/>
<path d="M9.92368 197.137C9.92368 197.137 -26.7221 219.132 40.8274 253C40.8274 253 55.7099 225.507 39.2571 203.089C32.6487 194.048 20.2898 191.353 10.4871 196.815L9.92368 197.137Z" fill="#536DFE"/>
<path d="M10 198C10 198 41.8711 221.716 40.9817 254" stroke="#535461"/>
<path fill-rule="evenodd" clip-rule="evenodd" d="M428.12 227.655H466.593C467.501 227.655 468.371 228.019 469.01 228.666C469.65 229.313 470.006 230.189 470 231.101V233.862C470 238.938 467.992 243.805 464.419 247.395C460.846 250.984 455.999 253 450.946 253H83.0539C72.5308 253 64 244.432 64 233.862V231.101C63.9953 230.19 64.3521 229.315 64.9916 228.669C65.6311 228.024 66.5005 227.661 67.4072 227.661H107.24C106.354 225.872 105.895 223.902 105.898 221.905V45.9373C105.898 38.7922 111.665 33 118.778 33H416.581C423.694 33 429.461 38.7922 429.461 45.9373V221.899C429.464 223.896 429.005 225.866 428.12 227.655ZM226.216 234.842L229.533 238.601L304.467 238.607L308.12 234.842H226.216Z" fill="url(#paint0_linear)"/>
<rect x="110" y="36" width="316" height="197" rx="23.26" fill="#535461"/>
<rect x="118" y="65" width="301" height="159" fill="white"/>
<path d="M267.5 52C268.881 52 270 50.8807 270 49.5C270 48.1193 268.881 47 267.5 47C266.119 47 265 48.1193 265 49.5C265 50.8807 266.119 52 267.5 52Z" fill="white"/>
<path d="M313.905 225L303.543 236.243H230.481L221.117 225H72.3226C70.4876 225 69 226.573 69 228.514V231.345C69 242.2 77.3208 251 87.5851 251H446.415C451.344 251 456.071 248.929 459.557 245.243C463.042 241.557 465 236.558 465 231.345V228.514C465 226.573 463.512 225 461.677 225H313.905Z" fill="#535461"/>
<path d="M155 75V211H381" stroke="#535461" stroke-width="2"/>
<rect opacity="0.5" x="175" y="169" width="23" height="36" fill="#536DFE"/>
<rect opacity="0.7" x="215" y="137" width="23" height="68" fill="#536DFE"/>
<rect opacity="0.5" x="255" y="156" width="23" height="49" fill="#536DFE"/>
<rect opacity="0.8" x="295" y="127" width="23" height="79" fill="#536DFE"/>
<rect x="334" y="99" width="23" height="106" fill="#536DFE"/>
<path d="M186 148L226.411 111.134L266.161 145.986L305.25 103.76L345 87" stroke="#535461" stroke-width="2"/>
<path d="M186.5 152C188.985 152 191 149.985 191 147.5C191 145.015 188.985 143 186.5 143C184.015 143 182 145.015 182 147.5C182 149.985 184.015 152 186.5 152Z" fill="#536DFE"/>
<path d="M266.5 149C268.985 149 271 146.985 271 144.5C271 142.015 268.985 140 266.5 140C264.015 140 262 142.015 262 144.5C262 146.985 264.015 149 266.5 149Z" fill="#536DFE"/>
<path d="M306.5 108C308.985 108 311 105.985 311 103.5C311 101.015 308.985 99 306.5 99C304.015 99 302 101.015 302 103.5C302 105.985 304.015 108 306.5 108Z" fill="#536DFE"/>
<path d="M226.5 114C228.985 114 231 111.985 231 109.5C231 107.015 228.985 105 226.5 105C224.015 105 222 107.015 222 109.5C222 111.985 224.015 114 226.5 114Z" fill="#536DFE"/>
<path d="M345.5 92C347.985 92 350 89.9853 350 87.5C350 85.0147 347.985 83 345.5 83C343.015 83 341 85.0147 341 87.5C341 89.9853 343.015 92 345.5 92Z" fill="#536DFE"/>
<path d="M518.78 230.415C516.336 229.608 512.711 228.676 509.838 229.005C507.102 228.007 500.67 225.42 496.277 221.525C496.404 217.695 496.306 213.861 495.985 210.043C493.738 184.432 498.792 167.549 498.792 167.549C498.792 167.549 502.762 154.669 502.327 143.982C502.584 144.465 502.727 144.752 502.727 144.752C503.072 135.534 506.208 125.994 508.556 120.049C508.646 120.024 508.734 119.992 508.819 119.954L511.442 113.717C511.651 113.353 511.817 112.966 511.936 112.564L512.36 111.578L512.234 111.524C512.276 111.363 512.318 111.19 512.36 111.016C514.035 103.913 515.34 87.0664 515.34 87.0664C519.835 69.3353 509.165 58.3907 509.165 58.3907L491.055 42.7745C491.145 42.9778 491.206 43.1931 491.234 43.4137L491.085 43.2823C490.829 42.5475 490.548 41.6693 490.274 40.6656C490.913 40.206 491.511 39.6923 492.063 39.1303C494.122 37.1815 495.538 34.6491 496.122 31.8718C496.473 29.6999 496.563 27.4936 496.39 25.3003L496.092 17.7669C496.079 16.2926 495.929 14.8227 495.645 13.376C494.28 7.4019 488.17 3.22003 482.036 2.94523C480.085 2.93384 478.134 3.03757 476.195 3.25588C474.608 3.38646 473.016 3.42038 471.426 3.35744C471.245 3.36705 471.065 3.31895 470.913 3.22003C470.775 3.08204 470.696 2.89566 470.693 2.70029C470.629 1.99372 470.858 1.29201 471.324 0.758709C471.564 0.547804 471.844 0.387316 472.147 0.286756L471.712 0.388316C471.926 0.218767 472.168 0.0874167 472.427 0C470.837 0.280172 469.308 0.836127 467.909 1.64287C467.523 1.89675 467.169 2.19555 466.854 2.53301C466.02 3.266 465.478 4.27564 465.328 5.37668C464.581 4.74473 464.024 3.9175 463.718 2.98704C463.623 2.60657 463.623 2.20854 463.718 1.82807C463.611 1.9595 463.508 2.09491 463.408 2.23431C463.408 2.19249 463.408 2.15067 463.408 2.10885C462.256 3.52796 461.441 5.19075 461.024 6.97176C460.7 6.58219 460.545 6.0786 460.595 5.57382C460.505 5.85461 460.422 6.13539 460.344 6.41617C460.317 6.22997 460.317 6.04081 460.344 5.85461C459.643 8.00837 459.326 10.2694 459.409 12.5336C459.409 14.7918 460.41 18.3106 462.824 19.1051C462.949 19.147 463.075 19.1768 463.206 19.2067C460.448 23.5003 460.027 28.8952 462.085 33.5664C464.143 38.2376 468.405 41.5601 473.429 42.4101C473.468 42.6849 473.506 42.9736 473.542 43.2763H473.637C473.703 43.8737 473.757 44.5309 473.792 45.2C473.183 45.7982 472.516 46.3345 471.801 46.801C469.775 48.0017 467.514 48.7515 465.173 48.9995C462.377 49.2193 459.66 50.034 457.203 51.3891C454.312 53.0081 451.123 55.3679 450.121 58.2354C448.452 63.0147 439.261 70.4524 433.097 71.3784L430.903 71.253L430.742 71.2052V71.247L430.206 71.2171H430.176H430.033V71.247L429.479 71.2171C429.479 71.2171 429.425 71.474 429.348 71.928C426.248 70.8587 419.661 67.8955 411.089 60.0993C401.552 51.419 388.646 53.1276 383.669 54.2208C383.322 54.2975 383.059 54.5815 383.009 54.9338C382.958 55.2861 383.131 55.6327 383.442 55.804C385.451 56.9092 388.563 58.5162 389.999 58.6954C389.999 58.6954 387.019 61.8199 390.19 63.4747C390.966 63.8505 391.886 63.7606 392.574 63.2417C394.112 62.1126 398.386 64.6695 404.58 66.0017C404.58 66.0017 422.057 84.1271 430.736 86.911C430.936 87.3069 431.157 87.6917 431.398 88.064L431.935 88.0222V88.064H432.161L432.227 88.6614C432.227 88.6614 445.722 87.9505 450.109 83.0398C450.42 82.7611 450.705 82.4552 450.962 82.1258L446.271 141.269H446.312L446.271 141.831H449.722C450.017 149.105 449.704 156.391 448.786 163.612V202.169C448.786 202.169 448.607 205.562 455.641 210.533C463.016 215.679 470.123 221.2 476.934 227.075L477.786 227.816C476.493 239.615 473.786 261.605 471.527 262.424L472.922 262.669C470.538 265.698 463.766 274.019 461.703 274.241C459.176 274.521 457.489 278.464 461.703 279.307C470.118 280.766 478.771 279.912 486.739 276.833C488.375 276.187 489.359 274.505 489.124 272.759L488.307 266.546C488.462 266.632 488.587 266.763 488.665 266.922C489.225 268.613 488.665 264.67 488.665 264.67C490.974 257.232 492.788 249.648 494.095 241.969L502.441 249.197C502.441 249.197 502.607 248.988 502.9 248.6C504.944 253.248 508.592 262.758 507.776 269.724C506.655 279.283 517.313 270.847 516.198 265.22C515.292 260.667 519.346 241.371 520.925 234.154C521.278 232.54 520.349 230.921 518.78 230.415Z" fill="url(#paint1_linear)"/>
<path d="M430.989 75.1806C430.989 75.1806 423.066 73.7728 411.318 62.7924C402.023 54.1072 389.486 55.8148 384.651 56.9104C384.314 56.9856 384.057 57.2691 384.008 57.6212C383.959 57.9734 384.128 58.3197 384.431 58.4896C386.385 59.5913 389.414 61.201 390.834 61.3846C390.834 61.3846 387.906 64.5062 391.018 66.1771C391.778 66.5617 392.683 66.4717 393.358 65.9445C394.855 64.8183 399.012 67.3767 405.04 68.7049C405.04 68.7049 428.536 93.7628 434 89.5151L430.989 75.1806Z" fill="#FEC3BE"/>
<path d="M472 40.7642C472 40.7642 474.235 50.066 472 56.6321L482.059 58L491 53.6226V47.8774C491 47.8774 486.809 39.1226 487.926 29L472 40.7642Z" fill="#FEC3BE"/>
<path d="M500 244.43C500 244.43 507.173 258.433 506.049 267.769C504.926 277.104 515.399 268.867 514.299 263.375C513.408 258.935 517.377 240.097 518.926 233.089C519.273 231.52 518.374 229.944 516.845 229.442C513.54 228.356 508.004 227.025 505.225 229.06C501.118 232.074 500 244.43 500 244.43Z" fill="#8B416F"/>
<path d="M471.627 259.832C471.627 259.832 462.088 272.038 459.563 272.316C457.038 272.593 455.355 276.477 459.563 277.309C467.966 278.755 476.608 277.922 484.569 274.897C486.209 274.264 487.199 272.606 486.966 270.88L485.356 259L471.627 259.832Z" fill="#8B416F"/>
<path d="M458.049 131L449.108 132.193C450.335 142.641 450.299 153.2 449 163.639V201.211C449 201.211 448.828 204.521 455.695 209.333C462.896 214.342 469.836 219.716 476.487 225.435L501.369 247C501.369 247 511.24 234.929 509.869 227.797C509.869 227.797 493.417 222.585 491.223 214.08C489.965 209.214 483.587 205.135 478.365 202.57C471.601 199.284 468.04 191.728 469.811 184.417C470.116 183.184 470.587 181.998 471.212 180.892C475.599 173.211 481.906 155.928 481.906 155.928L469.84 132.92L458.049 131Z" fill="#4D4981"/>
<path opacity="0.05" d="M458.049 131L449.108 132.193C450.335 142.641 450.299 153.2 449 163.639V201.211C449 201.211 448.828 204.521 455.695 209.333C462.896 214.342 469.836 219.716 476.487 225.435L501.369 247C501.369 247 511.24 234.929 509.869 227.797C509.869 227.797 493.417 222.585 491.223 214.08C489.965 209.214 483.587 205.135 478.365 202.57C471.601 199.284 468.04 191.728 469.811 184.417C470.116 183.184 470.587 181.998 471.212 180.892C475.599 173.211 481.906 155.928 481.906 155.928L469.84 132.92L458.049 131Z" fill="black"/>
<path d="M471.008 260.188C471.008 260.188 487.663 262.938 488.227 264.589C488.792 266.239 488.227 262.388 488.227 262.388C488.227 262.388 497.825 234.057 495.591 209.032C493.358 184.007 498.414 167.498 498.414 167.498C498.414 167.498 504.342 148.793 500.955 138.066C497.567 127.338 462 132.014 462 132.014C462 132.014 474.42 160.346 474.138 173.824C474.138 173.824 475.549 214.533 478.09 219.209C478.065 219.185 474.113 259.07 471.008 260.188Z" fill="#4D4981"/>
<path d="M472.681 49C472.681 49 474.346 59.2182 491 54.8063L479.922 138.854C479.922 138.854 447.724 139.96 448.002 136.089L454.639 85.2204L472.681 49Z" fill="white"/>
<path opacity="0.1" d="M471.976 48C469.84 50.1167 467.056 51.4466 464.076 51.7748C461.353 51.9848 458.706 52.7761 456.312 54.096C453.5 55.6813 450.367 57.9845 449.416 60.7902C447.501 66.2939 435.469 75.375 430 73.4487L431.914 89.9599C431.914 89.9599 447.501 89.1343 450.236 83.0803L445.593 142H449.695C449.695 142 451.883 126.039 453.524 122.737C455.164 119.435 458.446 101.272 458.719 96.8695C458.993 92.4665 463.095 67.1494 466.65 62.7703L472 49.699L471.976 48Z" fill="black"/>
<path opacity="0.1" d="M473 49C470.528 50.9298 467.573 52.1444 464.457 52.5108C461.704 52.726 459.03 53.5239 456.61 54.8514C453.767 56.4417 450.598 58.7523 449.636 61.5669C447.7 67.0882 435.531 76.1984 430 74.2659L431.936 90.8298C431.936 90.8298 447.7 90.0016 450.466 83.9282L445.764 143H449.913C449.913 143 452.125 126.988 453.785 123.675C455.444 120.363 458.763 102.142 459.039 97.7254C459.316 93.3084 463.464 67.9104 467.06 63.5174L473 50.6504V49Z" fill="black"/>
<path d="M472.994 48C470.523 49.9293 467.568 51.1436 464.453 51.5099C461.7 51.7205 459.024 52.5141 456.603 53.8379C453.76 55.4278 450.592 57.7378 449.631 60.5517C447.695 66.0716 435.53 75.1794 430 73.2475L431.935 89.8071C431.935 89.8071 447.695 88.9791 450.46 82.9073L445.766 142H449.913C449.913 142 452.125 125.992 453.784 122.68C455.443 119.368 458.761 101.153 459.037 96.737C459.314 92.3211 463.461 66.9296 467.055 62.5377L473 49.704L472.994 48Z" fill="#E53E58"/>
<path opacity="0.1" d="M486.342 36.8534C485.999 34.4022 486.685 32.8729 487 30L472 41.1207C472 41.1207 472.36 42.6218 472.635 44.8201C473.392 44.9402 474.157 45.0004 474.923 45C480.129 45 483.876 41.0026 486.342 36.8534Z" fill="black"/>
<path d="M476 45C484.284 45 491 38.2843 491 30C491 21.7157 484.284 15 476 15C467.716 15 461 21.7157 461 30C461 38.2843 467.716 45 476 45Z" fill="#FEC3BE"/>
<path opacity="0.1" d="M459.014 15.1567C458.918 12.613 459.325 10.0756 460.21 7.69387C459.702 8.46877 459.835 9.50557 460.521 10.1228C461.001 7.52694 462.314 5.16529 464.255 3.40684C463.196 3.58294 462.652 4.91277 462.915 5.96934C463.273 7.00135 463.909 7.9104 464.752 8.59257C464.662 6.99556 465.703 5.50178 467.02 4.62737C468.391 3.82787 469.89 3.27716 471.448 3C470.349 3.39573 469.651 4.49294 469.748 5.6718C469.753 5.86657 469.832 6.05178 469.97 6.18794C470.119 6.28502 470.295 6.33177 470.472 6.32153C472.023 6.38217 473.575 6.3477 475.122 6.21831C477.023 6.00116 478.935 5.89776 480.848 5.90862C486.832 6.16366 492.845 10.311 494.186 16.2315C494.464 17.668 494.61 19.1275 494.623 20.5914L494.916 28.0664C495.086 30.2471 494.998 32.4407 494.653 34.6001C493.813 38.6362 491.245 42.0824 487.646 44C485.486 40.8242 485.294 36.7436 484.546 32.9606C484.428 32.0876 484.108 31.2553 483.613 30.5317C483.088 29.7984 482.164 29.4817 481.309 29.7423C480.501 30.0702 480.154 31.3211 480.824 31.8797C480.226 32.5963 479.107 32.0619 478.431 31.4243C476.542 29.6065 475.243 27.2498 474.703 24.6659C474.434 23.3664 474.164 21.7633 472.908 21.3201C472.475 21.1995 472.024 21.1685 471.579 21.229C468.959 21.4111 464.86 22.5102 462.323 21.6662C459.995 20.895 459.014 17.3974 459.014 15.1567Z" fill="black"/>
<path d="M459.014 15.1567C458.918 12.613 459.325 10.0756 460.21 7.69387C459.702 8.46877 459.835 9.50557 460.521 10.1228C461.001 7.52694 462.314 5.16529 464.255 3.40684C463.196 3.58294 462.652 4.91277 462.915 5.96934C463.273 7.00135 463.909 7.9104 464.752 8.59257C464.662 6.99556 465.703 5.50178 467.02 4.62737C468.391 3.82787 469.89 3.27716 471.448 3C470.349 3.39573 469.651 4.49294 469.748 5.6718C469.753 5.86657 469.832 6.05178 469.97 6.18794C470.119 6.28502 470.295 6.33177 470.472 6.32153C472.023 6.38217 473.575 6.3477 475.122 6.21831C477.023 6.00116 478.935 5.89776 480.848 5.90862C486.832 6.16366 492.845 10.311 494.186 16.2315C494.464 17.668 494.61 19.1275 494.623 20.5914L494.916 28.0664C495.086 30.2471 494.998 32.4407 494.653 34.6001C493.813 38.6362 491.245 42.0824 487.646 44C485.486 40.8242 485.294 36.7436 484.546 32.9606C484.428 32.0876 484.108 31.2553 483.613 30.5317C483.088 29.7984 482.164 29.4817 481.309 29.7423C480.501 30.0702 480.154 31.3211 480.824 31.8797C480.226 32.5963 479.107 32.0619 478.431 31.4243C476.542 29.6065 475.243 27.2498 474.703 24.6659C474.434 23.3664 474.164 21.7633 472.908 21.3201C472.475 21.1995 472.024 21.1685 471.579 21.229C468.959 21.4111 464.86 22.5102 462.323 21.6662C459.995 20.8889 459.014 17.3974 459.014 15.1567Z" fill="#784F69"/>
<path opacity="0.1" d="M429.604 73C429.604 73 427.336 82.8551 431.589 89L434 88.8145L432.687 73.1623L429.604 73Z" fill="black"/>
<path d="M429.604 73C429.604 73 427.336 82.8551 431.589 89L434 88.8145L432.687 73.1623L429.604 73Z" fill="#FD6F8D"/>
<path opacity="0.1" d="M489.124 45L506.867 60.2607C506.867 60.2607 517.32 70.9844 512.918 88.3074C512.918 88.3074 510.993 113.604 508.792 114.704C508.792 114.704 501.09 130.102 500.54 144.676C500.54 144.676 490.224 123.916 485.548 136.564C480.872 149.213 470 151 470 151L476.052 76.1849C476.052 76.1849 491.325 49.6505 489.124 45Z" fill="black"/>
<path d="M490.124 45L507.867 60.2598C507.867 60.2598 518.32 70.983 513.918 88.305C513.918 88.305 511.993 113.601 509.792 114.7C509.792 114.7 502.09 130.098 501.54 144.67C501.54 144.67 490.674 122.811 485.992 135.459C481.31 148.107 471 151 471 151L477.052 76.219C477.052 76.219 492.325 49.6503 490.124 45Z" fill="#E53E58"/>
<path d="M496.702 109.546C496.702 109.546 501.006 106.494 508 114.818L490.784 147L485 137.995C485 137.995 497.24 113.153 496.702 109.546Z" fill="#FEC3BE"/>
<path opacity="0.1" d="M494 111.661C494 111.661 503.136 122.557 506.7 120.81L510 112.651L497.614 107L494 111.661Z" fill="black"/>
<path d="M494 110.661C494 110.661 503.136 121.557 506.7 119.81L510 111.651L497.614 106L494 110.661Z" fill="#FD6F8D"/>
<path opacity="0.1" d="M486.552 136C486.552 136 490.758 145.381 493 145.924L489.744 150L485 140.218L486.552 136Z" fill="black"/>
<path d="M485.561 136C485.561 136 489.762 145.381 492 145.924L488.748 150L484 140.2L485.561 136Z" fill="#4D4981"/>
<path opacity="0.1" d="M493.964 77C493.964 77 494.286 97.3636 493 105L493.964 77Z" fill="black"/>
<path opacity="0.1" d="M451 82C451 82 455 80.8571 455 78L451 82Z" fill="black"/>
<path d="M49.1726 85C49.1726 85 34.7514 117.533 44.2225 156.033C53.6937 194.534 50.6852 240.604 41.2415 252" stroke="#535461" stroke-width="2"/>
<path d="M49 89C51.2091 89 53 87.2091 53 85C53 82.7909 51.2091 81 49 81C46.7909 81 45 82.7909 45 85C45 87.2091 46.7909 89 49 89Z" fill="#536DFE"/>
<path d="M43 105.219C43 105.219 58.7977 108.374 63 102" stroke="#535461" stroke-width="2"/>
<path d="M42 115C42 115 32.4978 103.748 33.0208 97" stroke="#535461" stroke-width="2"/>
<path d="M41 134.894C41 134.894 49.3657 137.229 57 120" stroke="#535461" stroke-width="2"/>
<path d="M43 149C43 149 21.6135 134.411 24.2203 125" stroke="#535461" stroke-width="2"/>
<path d="M47 166C47 166 62.502 151.886 60.8812 138" stroke="#535461" stroke-width="2"/>
<path d="M48 175C48 175 28.4199 169.549 29.0132 161" stroke="#535461" stroke-width="2"/>
<path d="M49 187C49 187 61.3855 175.195 63 168" stroke="#535461" stroke-width="2"/>
<path d="M50 206C50 206 37.5319 191.411 37 184" stroke="#535461" stroke-width="2"/>
<path d="M50 218C50 218 63.9482 201.751 65 194" stroke="#535461" stroke-width="2"/>
<path d="M32 102C34.2091 102 36 100.209 36 98C36 95.7909 34.2091 94 32 94C29.7909 94 28 95.7909 28 98C28 100.209 29.7909 102 32 102Z" fill="#536DFE"/>
<path d="M27 165C29.2091 165 31 163.209 31 161C31 158.791 29.2091 157 27 157C24.7909 157 23 158.791 23 161C23 163.209 24.7909 165 27 165Z" fill="#536DFE"/>
<path d="M23 130C25.2091 130 27 128.209 27 126C27 123.791 25.2091 122 23 122C20.7909 122 19 123.791 19 126C19 128.209 20.7909 130 23 130Z" fill="#536DFE"/>
<path d="M63 107C65.2091 107 67 105.209 67 103C67 100.791 65.2091 99 63 99C60.7909 99 59 100.791 59 103C59 105.209 60.7909 107 63 107Z" fill="#536DFE"/>
<path d="M63 173C65.2091 173 67 171.209 67 169C67 166.791 65.2091 165 63 165C60.7909 165 59 166.791 59 169C59 171.209 60.7909 173 63 173Z" fill="#536DFE"/>
<path d="M56 124C58.2091 124 60 122.209 60 120C60 117.791 58.2091 116 56 116C53.7909 116 52 117.791 52 120C52 122.209 53.7909 124 56 124Z" fill="#536DFE"/>
<path d="M65 201C67.2091 201 69 199.209 69 197C69 194.791 67.2091 193 65 193C62.7909 193 61 194.791 61 197C61 199.209 62.7909 201 65 201Z" fill="#536DFE"/>
<path d="M37 191C39.2091 191 41 189.209 41 187C41 184.791 39.2091 183 37 183C34.7909 183 33 184.791 33 187C33 189.209 34.7909 191 37 191Z" fill="#536DFE"/>
<path d="M60 143C62.2091 143 64 141.209 64 139C64 136.791 62.2091 135 60 135C57.7909 135 56 136.791 56 139C56 141.209 57.7909 143 60 143Z" fill="#536DFE"/>
<defs>
<linearGradient id="paint0_linear" x1="469.983" y1="252.976" x2="469.983" y2="32.994" gradientUnits="userSpaceOnUse">
<stop stop-color="#808080" stop-opacity="0.25"/>
<stop offset="0.54" stop-color="#808080" stop-opacity="0.12"/>
<stop offset="1" stop-color="#808080" stop-opacity="0.1"/>
</linearGradient>
<linearGradient id="paint1_linear" x1="521.03" y1="279.97" x2="521.03" y2="-0.0358493" gradientUnits="userSpaceOnUse">
<stop stop-color="#808080" stop-opacity="0.25"/>
<stop offset="0.54" stop-color="#808080" stop-opacity="0.12"/>
<stop offset="1" stop-color="#808080" stop-opacity="0.1"/>
</linearGradient>
</defs>
</svg>
