<?xml version="1.0" encoding="utf-8"?>
<!-- Generator: Adobe Illustrator 20.0.0, SVG Export Plug-In . SVG Version: 6.00 Build 0)  -->
<svg version="1.1" id="Layer_1" xmlns="http://www.w3.org/2000/svg" xmlns:xlink="http://www.w3.org/1999/xlink" x="0px" y="0px"
	 viewBox="0 0 48 48" style="enable-background:new 0 0 48 48;" xml:space="preserve">
<style type="text/css">
	.st0{fill:#3262F2;}
</style>
<g>
	<path class="st0" d="M45,48H3c-1.7,0-3-1.3-3-3V7c0-1.7,1.3-3,3-3h42c1.7,0,3,1.3,3,3v38C48,46.7,46.7,48,45,48z M3,6
		C2.4,6,2,6.4,2,7v38c0,0.6,0.4,1,1,1h42c0.6,0,1-0.4,1-1V7c0-0.6-0.4-1-1-1H3z"/>
</g>
<g>
	<path class="st0" d="M42,43h-6v-8h6V43z M38,41h2v-4h-2V41z"/>
</g>
<g>
	<path class="st0" d="M32,43h-6V25h6V43z M28,41h2V27h-2V41z"/>
</g>
<g>
	<path class="st0" d="M22,43h-6V13h6V43z M18,41h2V15h-2V41z"/>
</g>
<g>
	<path class="st0" d="M12,43H6V31h6V43z M8,41h2v-8H8V41z"/>
</g>
</svg>
