<svg width="46" height="47" viewBox="0 0 46 47" fill="none" xmlns="http://www.w3.org/2000/svg">
<path d="M33.5 4.91667H33.5833H34.5H43.125C44.1376 4.91667 45 5.76653 45 6.85417V44.0625C45 45.1501 44.1376 46 43.125 46H2.875C1.86237 46 1 45.1501 1 44.0625V6.85417C1 5.76653 1.86237 4.91667 2.875 4.91667H11.5H12.4167H12.5H13.4167H32.5833H33.5Z" stroke="#3262F2" stroke-width="2"/>
<path d="M39.25 35.2708V41.1041H35.5V35.2708H39.25Z" stroke="#3262F2" stroke-width="2"/>
<path d="M29.6667 25.4792V41.1042H25.9167V25.4792H29.6667Z" stroke="#3262F2" stroke-width="2"/>
<path d="M20.0833 13.7292V41.1042H16.3333V13.7292H20.0833Z" stroke="#3262F2" stroke-width="2"/>
<path d="M10.5 31.3542V41.1042H6.75V31.3542H10.5Z" stroke="#3262F2" stroke-width="2"/>
</svg>
