<svg width="48" height="48" viewBox="0 0 48 48" fill="none" xmlns="http://www.w3.org/2000/svg">
<path fill-rule="evenodd" clip-rule="evenodd" d="M17.632 37.586C17.347 37.452 17.065 37.308 16.789 37.157C16.305 36.892 15.697 37.07 15.432 37.555C15.167 38.04 15.346 38.647 15.83 38.912C16.142 39.083 16.458 39.244 16.78 39.396C16.918 39.46 17.063 39.491 17.205 39.491C17.581 39.491 17.94 39.279 18.11 38.917C18.346 38.417 18.132 37.821 17.632 37.586ZM28.647 38.267C28.351 38.363 28.051 38.451 27.745 38.529C27.21 38.666 26.888 39.211 27.024 39.746C27.14 40.198 27.547 40.498 27.992 40.498C28.074 40.498 28.158 40.488 28.241 40.467C28.588 40.378 28.931 40.278 29.269 40.168C29.793 39.997 30.08 39.432 29.909 38.907C29.737 38.382 29.174 38.092 28.647 38.267ZM24.958 38.97C24.646 38.99 24.332 39 24.017 39C23.464 39.001 23.017 39.45 23.018 40.002C23.019 40.554 23.466 41 24.018 41H24.019C24.377 41 24.732 40.989 25.085 40.966C25.636 40.932 26.055 40.457 26.02 39.905C25.984 39.354 25.5 38.931 24.958 38.97ZM23 31C23 31.553 23.447 32 24 32C24.553 32 25 31.553 25 31V30C25 29.99 24.994 29.98 24.994 29.97C26.68 29.632 27.763 28.438 27.763 26.772C27.763 24.75 26.487 24.122 24.873 23.326L24.004 22.896C22.386 22.099 22.237 21.96 22.237 21.248C22.237 20.054 23.47 19.925 24 19.925C24.519 19.925 25.724 20.054 25.724 21.248C25.724 21.8 26.171 22.248 26.724 22.248C27.276 22.248 27.724 21.8 27.724 21.248C27.724 19.576 26.656 18.376 24.993 18.035C24.993 18.022 25 18.013 25 18V17C25 16.448 24.553 16 24 16C23.447 16 23 16.448 23 17V18C23 18.013 23.007 18.024 23.007 18.037C21.34 18.385 20.237 19.602 20.237 21.248C20.237 23.27 21.51 23.896 23.12 24.69L23.989 25.12C25.613 25.92 25.763 26.06 25.763 26.772C25.763 27.949 24.53 28.076 24 28.076C23.47 28.076 22.237 27.949 22.237 26.772C22.237 26.22 21.79 25.772 21.237 25.772C20.685 25.772 20.237 26.22 20.237 26.772C20.237 28.438 21.32 29.632 23.006 29.97C23.006 29.98 23 29.99 23 30V31ZM18.993 8.765C18.788 8.252 18.206 8.004 17.693 8.209C17.363 8.341 17.038 8.483 16.718 8.635C16.219 8.872 16.006 9.468 16.243 9.967C16.414 10.328 16.772 10.539 17.147 10.539C17.291 10.539 17.437 10.508 17.575 10.442C17.858 10.308 18.146 10.182 18.438 10.065C18.95 9.86 19.199 9.278 18.993 8.765ZM21.206 38.741C20.896 38.683 20.589 38.615 20.287 38.538C19.752 38.402 19.207 38.724 19.071 39.26C18.935 39.795 19.258 40.34 19.793 40.476C20.136 40.563 20.483 40.64 20.835 40.706C20.897 40.718 20.96 40.724 21.021 40.724C21.493 40.724 21.912 40.389 22.003 39.909C22.105 39.366 21.749 38.843 21.206 38.741ZM30.207 8.169C29.876 8.04 29.54 7.92 29.2 7.811C28.671 7.642 28.111 7.931 27.941 8.457C27.772 8.982 28.062 9.545 28.587 9.715C28.888 9.812 29.185 9.917 29.477 10.032C29.597 10.079 29.72 10.101 29.842 10.101C30.241 10.101 30.618 9.86 30.772 9.465C30.975 8.951 30.721 8.371 30.207 8.169ZM40 22.967C39.447 22.967 39 23.448 39 24C39 24.316 38.99 24.631 38.971 24.942C38.937 25.493 39.355 25.968 39.907 26.002C39.928 26.003 39.949 26.004 39.97 26.004C40.494 26.004 40.934 25.596 40.967 25.065C40.988 24.714 41 24.358 41 24V23.934C41 23.382 40.553 22.967 40 22.967ZM24 46C11.869 46 2 36.131 2 24C2 11.87 11.869 2 24 2C36.131 2 46 11.87 46 24C46 36.131 36.131 46 24 46ZM24 0C10.767 0 0 10.767 0 24C0 37.234 10.767 48 24 48C37.233 48 48 37.234 48 24C48 10.767 37.233 0 24 0ZM32.045 36.663C31.78 36.831 31.511 36.991 31.235 37.143C30.752 37.41 30.576 38.018 30.843 38.501C31.025 38.832 31.367 39.019 31.72 39.019C31.883 39.019 32.049 38.979 32.202 38.894C32.513 38.723 32.819 38.541 33.119 38.35C33.585 38.053 33.723 37.435 33.426 36.969C33.129 36.503 32.512 36.366 32.045 36.663ZM39.749 27.008C39.215 26.874 38.67 27.194 38.533 27.73C38.455 28.035 38.367 28.337 38.271 28.634C38.102 29.16 38.39 29.724 38.915 29.894C39.018 29.926 39.121 29.942 39.223 29.942C39.645 29.942 40.037 29.673 40.174 29.25C40.283 28.912 40.383 28.57 40.471 28.224C40.607 27.689 40.284 27.145 39.749 27.008ZM34.939 34.263C34.724 34.493 34.5 34.716 34.271 34.932C33.869 35.312 33.852 35.945 34.231 36.346C34.428 36.554 34.692 36.659 34.958 36.659C35.205 36.659 35.452 36.568 35.646 36.385C35.902 36.142 36.153 35.891 36.396 35.633C36.774 35.23 36.755 34.597 36.353 34.219C35.952 33.841 35.317 33.86 34.939 34.263ZM38.51 30.829C38.025 30.562 37.417 30.738 37.15 31.221C36.999 31.497 36.838 31.768 36.67 32.033C36.373 32.499 36.511 33.117 36.978 33.413C37.144 33.519 37.329 33.569 37.513 33.569C37.844 33.569 38.167 33.405 38.357 33.106C38.549 32.806 38.729 32.499 38.902 32.187C39.169 31.704 38.993 31.095 38.51 30.829ZM35.521 14.397C35.72 14.635 36.005 14.758 36.292 14.758C36.517 14.758 36.743 14.682 36.931 14.527C37.354 14.174 37.413 13.543 37.061 13.119C36.832 12.845 36.596 12.578 36.35 12.319C35.971 11.918 35.337 11.901 34.937 12.281C34.535 12.661 34.519 13.294 34.898 13.695C35.113 13.922 35.322 14.156 35.521 14.397ZM20.953 9.29C21.016 9.29 21.079 9.284 21.144 9.272C21.45 9.213 21.761 9.163 22.074 9.123C22.622 9.052 23.009 8.551 22.938 8.003C22.868 7.457 22.38 7.065 21.818 7.139C21.464 7.185 21.112 7.241 20.765 7.308C20.223 7.413 19.868 7.937 19.972 8.479C20.064 8.958 20.483 9.29 20.953 9.29ZM15.369 10.49C15.043 10.045 14.418 9.946 13.972 10.272C13.684 10.483 13.402 10.702 13.13 10.929C12.705 11.283 12.647 11.913 13.001 12.338C13.199 12.575 13.483 12.698 13.771 12.698C13.996 12.698 14.223 12.622 14.409 12.466C14.65 12.266 14.896 12.073 15.151 11.887C15.598 11.562 15.694 10.936 15.369 10.49ZM38.518 20.211C38.596 20.513 38.666 20.818 38.725 21.127C38.817 21.606 39.236 21.938 39.706 21.938C39.769 21.938 39.832 21.933 39.896 21.92C40.438 21.816 40.793 21.292 40.689 20.75C40.621 20.398 40.543 20.051 40.453 19.707C40.313 19.172 39.769 18.854 39.233 18.991C38.699 19.13 38.379 19.676 38.518 20.211ZM11.03 15.627C11.341 15.627 11.646 15.483 11.842 15.213C12.025 14.958 12.218 14.709 12.418 14.467C12.769 14.041 12.707 13.41 12.281 13.059C11.854 12.709 11.225 12.771 10.873 13.196C10.647 13.471 10.43 13.753 10.221 14.041C9.897 14.489 9.998 15.114 10.445 15.438C10.622 15.565 10.827 15.627 11.03 15.627ZM37.121 16.725C37.273 16.999 37.417 17.278 37.553 17.562C37.725 17.921 38.082 18.131 38.456 18.131C38.601 18.131 38.747 18.1 38.886 18.034C39.385 17.796 39.596 17.199 39.357 16.701C39.204 16.379 39.041 16.063 38.869 15.754C38.602 15.271 37.991 15.098 37.51 15.365C37.027 15.633 36.853 16.242 37.121 16.725ZM31.994 11.306C32.261 11.474 32.521 11.65 32.775 11.834C32.952 11.961 33.157 12.023 33.359 12.023C33.67 12.023 33.976 11.879 34.172 11.608C34.494 11.16 34.394 10.535 33.945 10.212C33.657 10.004 33.362 9.804 33.061 9.614C32.596 9.321 31.977 9.459 31.682 9.927C31.387 10.394 31.526 11.011 31.994 11.306ZM24.896 9.027C25.21 9.045 25.522 9.073 25.831 9.111C25.873 9.116 25.914 9.119 25.954 9.119C26.452 9.119 26.884 8.747 26.945 8.241C27.013 7.692 26.623 7.193 26.075 7.126C25.724 7.083 25.368 7.051 25.011 7.03C24.461 7.005 23.986 7.418 23.955 7.97C23.923 8.521 24.344 8.995 24.896 9.027ZM8.739 19.075C8.859 19.122 8.983 19.145 9.105 19.145C9.504 19.145 9.881 18.904 10.036 18.51C10.151 18.216 10.276 17.928 10.409 17.644C10.643 17.144 10.427 16.548 9.927 16.314C9.427 16.08 8.83 16.296 8.597 16.796C8.446 17.118 8.306 17.446 8.175 17.778C7.973 18.292 8.226 18.873 8.739 19.075ZM13.749 34.951C13.346 34.574 12.715 34.594 12.335 34.997C11.957 35.399 11.978 36.032 12.38 36.41C12.64 36.654 12.908 36.889 13.184 37.116C13.369 37.27 13.595 37.344 13.818 37.344C14.107 37.344 14.394 37.22 14.591 36.98C14.942 36.554 14.882 35.924 14.455 35.573C14.213 35.373 13.978 35.166 13.749 34.951ZM11.346 32.059C11.047 31.593 10.427 31.457 9.965 31.754C9.499 32.052 9.363 32.67 9.66 33.136C9.853 33.436 10.053 33.729 10.262 34.016C10.458 34.284 10.762 34.426 11.07 34.426C11.274 34.426 11.481 34.364 11.659 34.234C12.105 33.908 12.202 33.282 11.877 32.836C11.691 32.583 11.515 32.324 11.346 32.059ZM10.059 29.547C9.942 29.258 9.836 28.964 9.739 28.666C9.569 28.141 9.008 27.854 8.479 28.023C7.954 28.194 7.667 28.758 7.837 29.283C7.947 29.624 8.069 29.959 8.201 30.291C8.357 30.681 8.733 30.919 9.13 30.919C9.254 30.919 9.38 30.896 9.501 30.848C10.014 30.642 10.264 30.061 10.059 29.547ZM7.998 23.022C8.04 23.027 8.081 23.029 8.121 23.029C8.619 23.029 9.051 22.658 9.112 22.151C9.151 21.837 9.2 21.526 9.257 21.218C9.357 20.675 8.998 20.154 8.455 20.053C7.913 19.953 7.391 20.311 7.29 20.855C7.226 21.202 7.171 21.553 7.128 21.907C7.061 22.456 7.45 22.955 7.998 23.022ZM8.255 27.03C8.803 26.96 9.19 26.46 9.121 25.912C9.081 25.603 9.052 25.29 9.031 24.974C8.996 24.423 8.509 23.995 7.97 24.04C7.418 24.075 7 24.551 7.035 25.102C7.058 25.459 7.092 25.813 7.137 26.164C7.201 26.669 7.632 27.038 8.128 27.038C8.17 27.038 8.212 27.036 8.255 27.03Z" fill="#3262F2"/>
</svg>
