<svg width="44" height="48" viewBox="0 0 44 48" fill="none" xmlns="http://www.w3.org/2000/svg">
<path fill-rule="evenodd" clip-rule="evenodd" d="M12.065 2C14.521 2 17.451 3.603 18.729 8H16C15.93 8 9 7.955 9 4C9 2.708 10.515 2.016 12.065 2ZM16 10H20C20.007 10 20.014 10 20.02 10C20.572 10 21.02 9.553 21.02 9C21.02 8.861 20.991 8.729 20.94 8.608C19.594 2.26 15.332 0 11.991 0C11.99 0 11.99 0 11.99 0C9.099 0.03 7 1.712 7 4C7 9.932 15.633 10 16 10ZM42 44C42 44.991 40.99 46 40 46H4C3.01 46 2 44.991 2 44V43.123C3.396 37.625 11.94 21.176 13.604 18H30.396C32.06 21.176 40.604 37.625 42 43.123V44ZM43.972 42.765C42.476 36.591 32.315 17.349 31.884 16.533C31.711 16.206 31.37 16 31 16H13C12.63 16 12.289 16.206 12.116 16.533C11.685 17.349 1.525 36.591 0.028 42.765C0.01 42.842 0 42.921 0 43V44C0 46.094 1.906 48 4 48H40C42.094 48 44 46.094 44 44V43C44 42.921 43.99 42.842 43.972 42.765ZM12 12C11.447 12 11 12.448 11 13C11 13.553 11.447 14 12 14H32C32.553 14 33 13.553 33 13C33 12.448 32.553 12 32 12H12ZM23.133 31.46L21.755 30.778C19.295 29.563 18.714 29.219 18.714 27.732C18.714 25.813 20.411 25.129 21.999 25.129C22.757 25.129 25.228 25.317 25.228 27.732C25.228 28.284 25.675 28.732 26.228 28.732C26.78 28.732 27.228 28.284 27.228 27.732C27.228 25.286 25.563 23.561 23 23.205V22C23 21.448 22.553 21 22 21C21.447 21 21 21.448 21 22V23.204C18.401 23.556 16.714 25.282 16.714 27.732C16.714 30.519 18.457 31.38 20.87 32.571L22.248 33.254C24.706 34.466 25.286 34.809 25.286 36.3C25.286 38.686 22.771 38.872 21.999 38.872C21.229 38.872 18.714 38.686 18.714 36.3C18.714 35.748 18.267 35.3 17.714 35.3C17.161 35.3 16.714 35.748 16.714 36.3C16.714 38.734 18.401 40.448 21 40.797V42C21 42.553 21.447 43 22 43C22.553 43 23 42.553 23 42V40.797C25.599 40.447 27.286 38.733 27.286 36.3C27.286 33.508 25.544 32.649 23.133 31.46ZM31.989 2C31.989 2 31.989 2 31.99 2C33.485 2.016 35 2.708 35 4C35 7.94 28.069 8 27.999 8H25.271C26.549 3.604 29.483 2 31.989 2ZM24 10H28C28.367 10 37 9.932 37 4C37 1.712 34.901 0.03 31.935 0C28.634 0 24.319 2.306 23.02 8.804C22.961 9.098 23.037 9.403 23.227 9.634C23.417 9.866 23.7 10 24 10Z" fill="#3262F2"/>
</svg>
