<svg width="48" height="48" viewBox="0 0 48 48" fill="none" xmlns="http://www.w3.org/2000/svg">
<path fill-rule="evenodd" clip-rule="evenodd" d="M0 24C0 10.767 10.767 0 24 0C37.233 0 48 10.767 48 24C48 37.234 37.233 48 24 48C10.767 48 0 37.234 0 24ZM24 46C11.869 46 2 36.131 2 24C2 11.87 11.869 2 24 2C36.131 2 46 11.87 46 24C46 36.131 36.131 46 24 46ZM25.1324 14.0873L33.299 16.3902C34.3046 16.6737 35 17.593 35 18.64V23.3143C35 31.9882 25.5437 34.7943 25.1408 34.9096C24.9317 34.9704 24.7154 35 24.5 35C24.2846 35 24.0683 34.9696 23.8592 34.9096C23.4562 34.7951 14 31.989 14 23.3143V18.64C14 17.593 14.6945 16.6737 15.701 16.3902L23.8676 14.0873C24.0745 14.0288 24.2869 14 24.5 14C24.7124 14 24.9255 14.0288 25.1324 14.0873ZM16.3333 18.64V23.3143C16.3333 23.6977 16.3675 24.0606 16.4135 24.416L28.5382 17.4762L24.5 16.3372L16.3333 18.64ZM32.6667 23.3143C32.6667 30.3257 24.5 32.6629 24.5 32.6629C24.5 32.6629 22.1799 31.9882 20.013 30.3055L32.6667 23.0619V23.3143ZM18.2544 28.6196L32.6667 20.3703V18.6408L31.689 18.365L17.0683 26.7327C17.3887 27.4316 17.7948 28.0595 18.2544 28.6196Z" fill="#3262F2"/>
</svg>
