<svg width="48" height="48" viewBox="0 0 48 48" fill="none" xmlns="http://www.w3.org/2000/svg">
<path d="M35 5H36H45C46.1017 5 47 5.89828 47 7V45C47 46.1017 46.1017 47 45 47H3C1.89828 47 1 46.1017 1 45V7C1 5.89828 1.89828 5 3 5H12H13H14H34H35Z" stroke="#3262F2" stroke-width="2"/>
<path d="M41 36V42H37V36H41Z" stroke="#3262F2" stroke-width="2"/>
<path d="M31 26V42H27V26H31Z" stroke="#3262F2" stroke-width="2"/>
<path d="M21 14V42H17V14H21Z" stroke="#3262F2" stroke-width="2"/>
<path d="M11 32V42H7V32H11Z" stroke="#3262F2" stroke-width="2"/>
</svg>
