<svg width="48" height="48" viewBox="0 0 48 48" fill="none" xmlns="http://www.w3.org/2000/svg">
<path fill-rule="evenodd" clip-rule="evenodd" d="M0 21H2V19H0V21ZM0 15H2V13H0V15ZM0 9H2V7H0V9ZM0 48H48V46H0V48ZM0 2H2V0H0V2ZM0 27H2V25H0V27ZM0 44H2V42H0V44ZM0 39H2V37H0V39ZM0 33H2V31H0V33ZM8 34H10V42H8V34ZM7 44H11C11.552 44 12 43.553 12 43V33C12 32.447 11.552 32 11 32H7C6.448 32 6 32.447 6 33V43C6 43.553 6.448 44 7 44ZM28 28H30V42H28V28ZM27 44H31C31.552 44 32 43.553 32 43V27C32 26.447 31.552 26 31 26H27C26.448 26 26 26.447 26 27V43C26 43.553 26.448 44 27 44ZM38 38H40V42H38V38ZM37 44H41C41.552 44 42 43.553 42 43V37C42 36.447 41.552 36 41 36H37C36.448 36 36 36.447 36 37V43C36 43.553 36.448 44 37 44ZM18 16H20V42H18V16ZM17 44H21C21.552 44 22 43.553 22 43V15C22 14.447 21.552 14 21 14H17C16.448 14 16 14.447 16 15V43C16 43.553 16.448 44 17 44Z" fill="#3262F2"/>
</svg>
