<svg width="46" height="47" viewBox="0 0 46 47" fill="none" xmlns="http://www.w3.org/2000/svg">
<path fill-rule="evenodd" clip-rule="evenodd" d="M6.57143 15.6667C6.57143 10.808 10.3622 6.85417 15.0213 6.85417C19.6796 6.85417 23.4694 10.808 23.4694 15.6667C23.4694 20.5263 19.6796 24.4801 15.0213 24.4801C10.3622 24.4801 6.57143 20.5263 6.57143 15.6667ZM25.3469 15.6667C25.3469 9.72802 20.7141 4.89583 15.0213 4.89583C9.32674 4.89583 4.69388 9.72802 4.69388 15.6667C4.69388 21.6063 9.32674 26.4385 15.0213 26.4385C20.7141 26.4385 25.3469 21.6063 25.3469 15.6667ZM1.87755 15.6667C1.87755 8.1075 7.774 1.95833 15.0213 1.95833C22.2678 1.95833 28.1633 8.1075 28.1633 15.6667C28.1633 23.2258 22.2678 29.375 15.0213 29.375C7.774 29.375 1.87755 23.2258 1.87755 15.6667ZM30.0408 15.6667C30.0408 7.02846 23.3032 0 15.0213 0C6.73853 0 0 7.02846 0 15.6667C0 24.3049 6.73853 31.3333 15.0213 31.3333C23.3032 31.3333 30.0408 24.3049 30.0408 15.6667ZM35.0454 14.9343C34.5638 14.7306 34.0165 14.9754 33.8241 15.4777C33.6307 15.979 33.8635 16.5499 34.3451 16.7506C39.7149 19.0017 43.1846 24.3411 43.1846 30.3542C43.1846 38.4529 36.8676 45.0417 29.1011 45.0417C23.337 45.0417 18.2188 41.4246 16.0606 35.8257C15.8662 35.3234 15.318 35.0786 14.8402 35.2823C14.3586 35.484 14.1257 36.0539 14.3191 36.5562C16.7637 42.9002 22.5663 47 29.1011 47C37.9021 47 45.0622 39.5339 45.0622 30.3542C45.0622 23.5372 41.1306 17.484 35.0454 14.9343ZM33.9874 20.8993C37.3445 22.7891 39.4295 26.413 39.4295 30.3542C39.4295 36.2938 34.7957 41.125 29.1011 41.125C25.3235 41.125 21.8491 38.9513 20.0372 35.4527C19.7903 34.9778 19.2233 34.7996 18.7643 35.0561C18.3089 35.3136 18.1381 35.907 18.385 36.3839C20.5263 40.516 24.6325 43.0833 29.1011 43.0833C35.8312 43.0833 41.3071 37.3738 41.3071 30.3542C41.3071 25.6924 38.8447 21.4095 34.8802 19.176C34.423 18.9185 33.8541 19.0967 33.6082 19.5726C33.3613 20.0484 33.5321 20.6428 33.9874 20.8993ZM15.9601 21.5417V21.0139C17.372 20.6771 18.3024 19.5872 18.3024 18.1185C18.3024 16.2718 17.1458 15.6774 15.8062 14.9891L15.0561 14.6013C13.6714 13.8875 13.6179 13.7886 13.6179 13.2305C13.6179 12.2621 14.5989 12.1583 15.0204 12.1583C15.533 12.1583 16.392 12.2974 16.392 13.2305C16.392 13.771 16.8116 14.2097 17.3307 14.2097C17.8499 14.2097 18.2695 13.771 18.2695 13.2305C18.2695 11.7588 17.3523 10.6651 15.9601 10.3224V9.79167C15.9601 9.25117 15.5405 8.8125 15.0214 8.8125C14.5022 8.8125 14.0826 9.25117 14.0826 9.79167V10.3204C12.6707 10.6592 11.7403 11.7549 11.7403 13.2305C11.7403 15.0762 12.8913 15.6696 14.2243 16.357L14.9763 16.7457C16.3713 17.4625 16.4248 17.5614 16.4248 18.1185C16.4248 19.0389 15.5452 19.176 15.0204 19.176C14.4966 19.176 13.6179 19.0389 13.6179 18.1185C13.6179 17.578 13.1983 17.1393 12.6791 17.1393C12.16 17.1393 11.7403 17.578 11.7403 18.1185C11.7403 19.5872 12.6707 20.678 14.0826 21.0149V21.5417C14.0826 22.0831 14.5022 22.5208 15.0214 22.5208C15.5405 22.5208 15.9601 22.0831 15.9601 21.5417Z" fill="#3262F2"/>
</svg>
