<svg width="564" height="361" viewBox="0 0 564 361" fill="none" xmlns="http://www.w3.org/2000/svg">
<path opacity="0.2" d="M137.95 360.264C213.613 360.264 274.95 352.205 274.95 342.264C274.95 332.323 213.613 324.264 137.95 324.264C62.2872 324.264 0.950195 332.323 0.950195 342.264C0.950195 352.205 62.2872 360.264 137.95 360.264Z" fill="#3F3D56"/>
<path d="M500.95 162.264H382.97L320.95 263.505C339.576 275.145 361.059 281.297 382.97 281.264C448.129 281.264 500.95 227.985 500.95 162.264Z" fill="#F2F2F2"/>
<path d="M158.816 71.2637C158.816 71.2637 159.944 82.4265 156.559 86.8916C153.173 91.3567 165.022 119.264 165.022 119.264L181.95 88.0079C181.95 88.0079 176.308 84.659 179.693 75.1706L158.816 71.2637Z" fill="#FFB9B9"/>
<path opacity="0.1" d="M158.816 71.2637C158.816 71.2637 159.944 82.4265 156.559 86.8916C153.173 91.3567 165.022 119.264 165.022 119.264L181.95 88.0079C181.95 88.0079 176.308 84.659 179.693 75.1706L158.816 71.2637Z" fill="black"/>
<path d="M208.372 127.475L208.95 150.704L186.995 185.264L182.95 172.233L195.084 149.004C195.084 149.004 191.039 138.24 192.195 132.008C193.35 125.776 208.372 127.475 208.372 127.475Z" fill="#FFB9B9"/>
<path d="M121.528 124.475L120.95 147.704L142.906 182.264L146.95 169.233L134.817 146.004C134.817 146.004 138.861 135.24 137.706 129.008C136.55 122.776 121.528 124.475 121.528 124.475Z" fill="#FFB9B9"/>
<path opacity="0.2" d="M137.722 162.264L135.541 167.873C129.657 173.496 126.467 181.493 126.817 189.747L120.275 259.298C120.275 259.298 115.913 264.346 117.549 270.516C117.549 270.516 113.732 291.269 115.913 298C115.913 298 106.644 315.387 116.458 316.509C126.272 317.631 129.544 317.631 130.634 313.705C131.725 309.779 133.36 295.195 133.36 295.195L157.351 207.696L161.167 262.103C161.167 262.103 157.351 276.686 158.441 280.612C159.532 284.538 150.808 312.583 154.624 315.387C158.441 318.192 169.346 319.314 169.891 317.07C170.436 314.827 170.981 300.804 170.981 300.804C170.981 300.804 176.434 288.465 177.524 284.538C178.615 280.612 179.705 258.737 179.705 258.737L189.519 194.235C189.519 194.235 191.7 176.847 186.248 173.482L184.067 163.385L137.722 162.264Z" fill="#2F2E41"/>
<path d="M113.668 313.264L111.405 324.584C111.405 324.584 99.5188 343.264 110.839 343.264C122.158 343.264 123.29 337.603 123.29 337.603V332.509C123.29 332.509 128.95 329.679 128.95 329.113C128.95 328.547 127.252 314.962 127.252 314.962L113.668 313.264Z" fill="#2F2E41"/>
<path d="M167.232 313.264L169.496 324.584C169.496 324.584 181.382 343.264 170.062 343.264C158.742 343.264 157.61 337.603 157.61 337.603V332.509C157.61 332.509 151.95 329.679 151.95 329.113C151.95 328.547 153.648 314.962 153.648 314.962L167.232 313.264Z" fill="#2F2E41"/>
<path d="M171.45 84.2637C179.458 84.2637 185.95 77.5479 185.95 69.2637C185.95 60.9794 179.458 54.2637 171.45 54.2637C163.442 54.2637 156.95 60.9794 156.95 69.2637C156.95 77.5479 163.442 84.2637 171.45 84.2637Z" fill="#FFB9B9"/>
<path d="M166.07 107.537C166.07 107.537 157.79 93.4656 158.342 90.0884C158.682 88.1536 158.673 86.1719 158.316 84.2403L153.374 87.2741L132.95 96.8428L141.23 124.986C141.23 124.986 139.022 131.178 139.022 135.681C139.022 140.184 140.126 145.249 139.022 146.938C137.918 148.627 137.366 151.441 138.47 153.692C139.129 155.092 139.323 156.673 139.022 158.195C139.022 158.195 131.294 162.698 135.71 163.824C138.619 164.478 141.633 164.478 144.542 163.824C144.542 163.824 145.094 162.135 149.51 164.387C153.926 166.638 177.11 167.201 177.11 167.201C177.11 167.201 192.014 167.764 191.462 165.513C190.91 163.261 194.222 136.806 194.222 136.806L201.95 99.6571L184.286 88.3998L178.581 83.2637L177.11 91.2141L166.07 107.537Z" fill="#FD6F8D"/>
<path d="M137.208 98.2637H133.275C133.275 98.2637 113.329 122.256 118.948 126.207C124.566 130.159 143.95 133.264 143.95 133.264C143.95 133.264 142.265 98.2637 137.208 98.2637Z" fill="#FD6F8D"/>
<path d="M196.784 101.264H201.909C201.909 101.264 215.576 132.85 211.02 133.978C206.465 135.106 189.95 138.491 189.95 136.798C189.95 135.106 196.784 101.264 196.784 101.264Z" fill="#FD6F8D"/>
<path d="M155.115 69.1303C155.115 69.1303 153.459 66.7441 154.096 64.1743C154.477 62.7153 154.627 61.2097 154.542 59.7078C155.254 57.4816 156.149 55.313 157.217 53.2222C158.555 50.8972 157.918 49.9182 162.122 49.184C166.326 48.4498 164.606 43.1878 175.69 48.878C176.455 49.9036 177.787 50.3864 179.066 50.1018C181.359 49.6735 182.187 52.7327 182.187 52.7327C182.187 52.7327 183.716 51.8761 184.289 53.0998C184.863 54.3235 188.95 52.3654 188.95 60.6254C188.95 68.8854 184.299 76.2637 184.299 76.2637C184.299 76.2637 184.64 62.3694 177.059 60.9621C169.479 59.5549 161.326 55.4555 159.351 60.7174C158.285 63.6706 156.864 66.4941 155.115 69.1303Z" fill="#2F2E41"/>
<path fill-rule="evenodd" clip-rule="evenodd" d="M317.425 253.291C336.111 265.058 357.653 271.282 379.626 271.264C444.87 271.264 497.95 217.239 497.95 150.832V150.264H379.315L317.244 252.509L316.95 252.992L317.425 253.291ZM379.626 270.127C358.05 270.145 336.89 264.086 318.488 252.622L379.938 151.401H496.832C496.531 216.921 444.069 270.127 379.626 270.127Z" fill="#3F3D56"/>
<path d="M235.95 145.206C235.931 186.384 257.293 224.631 292.395 246.264L354.95 145.206L251.614 86.2637C241.319 104.206 235.919 124.529 235.95 145.206Z" fill="#F2F2F2"/>
<path fill-rule="evenodd" clip-rule="evenodd" d="M302.505 241.968L302.984 242.264L365.95 140.574L261.936 81.2637L261.657 81.7504C229.807 137.418 247.868 208.257 302.505 241.968ZM302.619 240.716C249.028 207.297 231.286 137.709 262.355 82.7961L364.381 140.973L302.619 240.716Z" fill="#3F3D56"/>
<path d="M412.604 11.2637L386.95 126.264H505.95C505.95 69.9471 465.993 22.8729 412.604 11.2637Z" fill="#FD6F8D"/>
<path fill-rule="evenodd" clip-rule="evenodd" d="M378.95 133.264H498.95V132.706C498.944 77.298 460.028 29.3411 405.369 17.3832L404.819 17.2637L378.95 133.264ZM497.823 132.149H380.353L405.676 18.5928C458.921 30.4425 497.558 78.0566 497.823 132.149Z" fill="#3F3D56"/>
<path d="M364.493 0.263681C322.111 0.246811 282.973 23.1285 261.95 60.2142L364.493 119.264L389.95 3.04511C381.589 1.19402 373.054 0.261436 364.493 0.263681Z" fill="#F2F2F2"/>
<path fill-rule="evenodd" clip-rule="evenodd" d="M263.95 69.2774L368.096 129.264L393.95 11.2013L393.4 11.0795C342.458 -0.214467 290.143 23.1567 264.23 68.7848L263.95 69.2774ZM367.327 127.514L265.487 68.8565C291.162 24.1447 342.501 1.20953 392.609 12.0666L367.327 127.514Z" fill="#3F3D56"/>
<path d="M428.762 95.2637L427.95 94.4834L489.141 28.2637H538.95V29.4011H489.623L428.762 95.2637Z" fill="#3F3D56"/>
<rect x="505.95" y="36.2637" width="58" height="2" fill="#FD6F8D"/>
<rect x="505.95" y="46.2637" width="58" height="2" fill="#FD6F8D"/>
<rect x="505.95" y="55.2637" width="58" height="2" fill="#FD6F8D"/>
<rect x="486.95" y="285.264" width="58" height="2" fill="#FD6F8D"/>
<rect x="486.95" y="293.264" width="58" height="2" fill="#FD6F8D"/>
<rect x="486.95" y="301.264" width="58" height="2" fill="#FD6F8D"/>
<path d="M517.95 275.264H458.958L458.791 275.019L412.95 207.904L413.87 207.264L459.545 274.136H517.95V275.264Z" fill="#3F3D56"/>
<path opacity="0.2" d="M34.1754 315.449C32.3562 331.741 42.1563 346.264 42.1563 346.264C42.1563 346.264 54.9058 334.371 56.725 318.079C58.5442 301.786 48.7441 287.264 48.7441 287.264C48.7441 287.264 35.9946 299.156 34.1754 315.449Z" fill="#2F2E41"/>
<path d="M38.6383 314.953C45.0885 330.141 40.1294 347.264 40.1294 347.264C40.1294 347.264 24.7124 339.762 18.2621 324.574C11.8119 309.386 16.771 292.264 16.771 292.264C16.771 292.264 32.188 299.766 38.6383 314.953Z" fill="#FD6F8D"/>
</svg>
