<svg width="500" height="446" viewBox="0 0 500 446" fill="none" xmlns="http://www.w3.org/2000/svg">
<path opacity="0.1" d="M259.165 445.016C364.928 445.016 450.665 438.076 450.665 429.516C450.665 420.955 364.928 414.016 259.165 414.016C153.403 414.016 67.665 420.955 67.665 429.516C67.665 438.076 153.403 445.016 259.165 445.016Z" fill="#1BBD95"/>
<path opacity="0.1" d="M50.7794 66.7238C38.8523 82.8092 35.835 103.2 35.6705 122.751C35.555 136.538 37.1903 151.492 47.1799 161.66C60.329 175.037 85.5741 177.673 92.0887 194.767C97.8656 209.957 84.4232 225.239 71.5096 235.959C58.596 246.679 43.7671 259.805 46.1801 275.768C47.7087 285.961 56.0941 293.963 64.4573 300.679C80.3571 313.478 98.23 324.674 118.378 330.122C154.932 339.992 194.415 329.773 228.668 314.302C249.754 304.78 274.234 293.092 295.173 302.886C300.702 305.471 305.394 309.377 310.491 312.613C325.311 321.966 343.411 325.412 361.026 328.335C386.844 332.635 413.978 336.224 438.854 328.468C463.73 320.712 485.229 298.027 481.421 273.833C477.83 251.041 454.971 236.184 436.756 220.616C430.331 215.122 423.79 207.843 425.389 199.851C426.66 193.513 432.642 189.1 437.974 185.004C466.041 163.329 486.669 133.405 496.152 100.594C500.631 85.113 502.249 67.2767 492.255 54.222C484.194 43.6912 470.378 38.6332 457.238 34.471C432.855 26.7457 407.863 20.2184 382.218 18.4573C356.573 16.6962 330.079 20.0545 307.314 31.1997C296.396 36.5495 286.499 43.5939 275.474 48.7442C244.172 63.3654 207.289 61.3995 172.379 59.0906C159.905 58.2664 146.867 56.8022 136.038 50.5257C126.706 45.1093 121.373 41.2287 109.819 40.6246C87.1738 39.442 63.7463 49.2049 50.7794 66.7238Z" fill="#1BBD95"/>
<path d="M218.665 176.718L218.178 177.884L215.02 185.406L181.9 264.265L125.698 423.944L117.665 424.016L173.898 264.265L212.217 173.016L215.02 174.623L218.178 176.436L218.665 176.718Z" fill="#535461"/>
<path d="M318.665 424.016L312.026 423.944L255.584 264.265L223.201 187.476L219.159 177.884L218.665 176.718L219.159 176.436L223.201 174.125L225.144 173.016L263.046 264.265L318.665 424.016Z" fill="#535461"/>
<rect x="215.665" y="151.016" width="7" height="272" fill="#535461"/>
<path fill-rule="evenodd" clip-rule="evenodd" d="M210.667 117.1C210.672 111.533 214.697 107.021 219.663 107.016C224.63 107.021 228.656 111.532 228.663 117.1V120.704C228.735 124.361 227.036 127.775 224.222 129.627C221.409 131.479 217.921 131.479 215.108 129.627C212.295 127.775 210.595 124.361 210.667 120.704V117.1ZM219.659 128.259C223.388 128.259 226.411 124.87 226.411 120.69V117.086C226.411 112.905 223.388 109.516 219.659 109.516C215.929 109.516 212.906 112.905 212.906 117.086V120.69C212.906 124.87 215.929 128.259 219.659 128.259Z" fill="#535461"/>
<path opacity="0.1" d="M263.665 264.016H256.233L223.979 187.021V264.016H216.795V184.946L183.669 264.016H175.665L213.991 172.522L216.795 174.134V151.016H223.979V173.634L225.915 172.522L263.665 264.016Z" fill="black"/>
<path opacity="0.1" d="M228.663 118.016V121.365C228.735 125.142 227.036 128.668 224.222 130.581C221.409 132.494 217.921 132.494 215.108 130.581C212.295 128.668 210.595 125.142 210.667 121.365V118.016H212.915V121.365C212.915 125.683 215.938 129.184 219.667 129.184C223.396 129.184 226.419 125.683 226.419 121.365V118.016L228.663 118.016Z" fill="black"/>
<rect x="80.665" y="119.016" width="278" height="144" fill="#535461"/>
<rect x="85.665" y="122.016" width="266" height="132" fill="white"/>
<g opacity="0.2">
<rect x="111.048" y="136.315" width="13.2487" height="6.465" fill="#1BBD95"/>
</g>
<g opacity="0.2">
<rect x="111.048" y="150.32" width="13.2487" height="6.465" fill="#1BBD95"/>
</g>
<g opacity="0.2">
<rect x="111.048" y="163.32" width="13.2487" height="6.465" fill="#1BBD95"/>
</g>
<g opacity="0.2">
<rect x="111.048" y="175.32" width="13.2487" height="6.465" fill="#1BBD95"/>
</g>
<g opacity="0.2">
<rect x="111.048" y="189.325" width="13.2487" height="6.465" fill="#1BBD95"/>
</g>
<g opacity="0.2">
<rect x="111.048" y="201.325" width="13.2487" height="6.465" fill="#1BBD95"/>
</g>
<g opacity="0.2">
<rect x="111.048" y="214.325" width="13.2487" height="6.465" fill="#1BBD95"/>
</g>
<g opacity="0.2">
<rect x="111.048" y="227.325" width="13.2487" height="6.465" fill="#1BBD95"/>
</g>
<g opacity="0.2">
<rect x="134.795" y="233.296" width="13.7055" height="6.465" fill="#1BBD95"/>
</g>
<g opacity="0.2">
<rect x="156.8" y="233.296" width="13.7055" height="6.465" fill="#1BBD95"/>
</g>
<g opacity="0.2">
<rect x="178.8" y="233.296" width="13.7055" height="6.465" fill="#1BBD95"/>
</g>
<g opacity="0.2">
<rect x="200.805" y="233.296" width="13.7055" height="6.465" fill="#1BBD95"/>
</g>
<g opacity="0.2">
<rect x="223.805" y="233.296" width="13.7055" height="6.465" fill="#1BBD95"/>
</g>
<g opacity="0.2">
<rect x="245.81" y="233.296" width="13.7055" height="6.465" fill="#1BBD95"/>
</g>
<g opacity="0.2">
<rect x="268.81" y="233.296" width="13.7055" height="6.465" fill="#1BBD95"/>
</g>
<g opacity="0.2">
<rect x="290.814" y="233.296" width="13.7055" height="6.465" fill="#1BBD95"/>
</g>
<g opacity="0.2">
<rect x="312.814" y="233.296" width="13.7055" height="6.465" fill="#1BBD95"/>
</g>
<rect x="134.665" y="185.016" width="14" height="42" fill="#FD6F8D"/>
<rect x="156.665" y="165.016" width="14" height="62" fill="#FD6F8D"/>
<rect x="178.665" y="151.016" width="14" height="77" fill="#FD6F8D"/>
<rect x="200.665" y="160.016" width="14" height="68" fill="#FD6F8D"/>
<rect x="223.665" y="144.016" width="14" height="83" fill="#FD6F8D"/>
<g opacity="0.2">
<rect x="245.81" y="175.33" width="13.7055" height="51.4903" fill="#1BBD95"/>
</g>
<g opacity="0.2">
<rect x="268.81" y="175.33" width="13.7055" height="51.4903" fill="#1BBD95"/>
</g>
<g opacity="0.2">
<rect x="290.814" y="175.33" width="13.7055" height="51.4903" fill="#1BBD95"/>
</g>
<g opacity="0.2">
<rect x="312.814" y="175.33" width="13.7055" height="51.4903" fill="#1BBD95"/>
</g>
<path d="M311.37 174.016L203.665 182.369V185.016L313.665 179.516L311.37 174.016Z" fill="#535461"/>
<path fill-rule="evenodd" clip-rule="evenodd" d="M444.41 198.899C445.921 215.743 440.233 226.48 440.233 226.48L437.956 232.202C439.893 242.328 443.385 254.784 443.385 254.784C439.929 259.409 424.894 260.235 424.894 260.235V260.199H424.661C424.554 260.835 424.433 261.451 424.286 262.031C424.3 262.335 424.312 262.64 424.325 262.947L424.325 262.95L424.326 262.954C424.337 263.23 424.349 263.508 424.362 263.786C424.578 264.476 424.653 265.214 424.581 265.942C424.549 266.122 424.509 266.275 424.469 266.429C424.827 275.575 425.086 285.326 424.862 290.972C424.86 292.57 424.717 294.164 424.438 295.73C424.175 296.922 424.025 298.144 423.99 299.373C423.744 307.616 425.506 321.473 425.506 321.473C425.501 321.492 425.495 321.512 425.488 321.532C425.465 321.608 425.439 321.688 425.439 321.765C425.484 321.996 425.484 322.135 425.484 322.135C425.335 322.688 425.249 323.261 425.229 323.839C425.099 330.798 428.574 345.938 428.574 345.938C428.574 345.938 431.387 369.213 430.989 378.061C430.967 378.872 430.922 379.591 430.855 380.181C429.992 387.561 428.838 408.152 428.838 408.152C428.641 408.493 428.423 408.817 428.185 409.122C428.288 409.584 428.404 410.046 428.534 410.502C429.88 415.145 430.449 420.038 430.211 424.924C430.175 425.516 430.135 426.127 430.09 426.756C429.513 434.383 413.49 429.62 412.435 428.737C412.073 428.44 412.332 425.678 412.828 422.183L396.318 426.869C396.318 426.869 384.61 428.85 379.047 426.869C373.484 424.888 373.676 419.381 381.636 418.498C387.213 417.882 391.658 411.919 393.822 408.403C392.977 405.76 386.64 385.672 385.473 373.242C384.721 365.209 383.486 357.246 381.779 349.408L380.536 330.906L378.327 320.005L375.688 305.583C372.697 295.032 371.802 277.356 371.802 277.356L369.499 260.055C369.181 258.175 369.004 256.268 368.971 254.353C366.813 254.859 364.684 255.514 362.594 256.314C358.994 253.075 364.137 222.092 364.137 222.092C364.137 222.092 366.592 202.528 368.672 184.688C363.905 183.867 358.74 185.16 358.74 185.16L328.518 185.92C327.889 184.976 327.345 183.961 326.894 182.892H325.598C325.439 182.633 325.312 182.349 325.222 182.05L324.69 182.168C322.725 182.689 320.793 183.363 318.907 184.185C318.907 184.185 309.373 185.504 310.813 174.028C311.886 165.473 320.365 168.578 324.609 170.708L325.146 170.985C325.204 170.661 325.204 170.472 325.204 170.472L326.572 170.759C326.742 170.307 326.863 170.061 326.863 170.061C326.863 170.061 341.679 169.389 353.695 167.336C362.246 165.873 368.717 160.258 371.74 157.148C373.846 144.877 379.964 141.156 379.964 141.156C383.38 140.961 386.417 139.242 388.299 137.918C388.978 137.455 389.63 136.94 390.249 136.378L390.58 136.594L390.62 136.558C388.586 134.387 386.475 132.39 384.597 130.722L383.765 129.988C377.841 129.32 372.556 125.429 369.557 119.528C366.558 113.627 366.209 106.432 368.618 100.185C368.668 100.056 368.722 99.9302 368.777 99.8049C368.811 99.7266 368.845 99.6484 368.878 99.5694C366.965 99.3312 365.446 97.6139 365.21 95.4225C365.134 94.4382 365.331 93.4282 365.525 92.4307C365.806 90.9888 366.082 89.5731 365.519 88.299C365.348 87.9789 365.199 87.6443 365.072 87.2982C364.993 86.9641 364.97 86.6157 365.005 86.2717C365.152 84.2277 366.062 82.3565 367.5 81.1395C369.029 79.8707 370.438 79.9669 371.97 80.0715C372.588 80.1137 373.226 80.1573 373.9 80.113C375.804 79.9855 377.708 79.5737 379.612 79.1619C380.391 78.9934 381.17 78.825 381.949 78.676C385.012 78.096 388.161 77.7162 391.22 78.327C394.278 78.9377 397.261 80.6622 399.05 83.5875C399.476 84.2927 399.825 85.051 400.174 85.8093C400.448 86.4032 400.721 86.997 401.031 87.5651C401.578 88.5651 402.234 89.4771 402.89 90.3898C403.211 90.8354 403.531 91.2813 403.84 91.7376C405.414 94.0728 406.688 96.875 406.563 99.8209C406.526 100.684 406.371 101.53 406.217 102.377L406.217 102.377C406.072 103.171 405.926 103.966 405.879 104.774C405.812 105.882 405.93 106.979 406.047 108.071L406.047 108.072C406.095 108.521 406.143 108.97 406.178 109.418C406.331 111.402 406.232 113.4 405.883 115.351C405.809 115.961 405.606 116.54 405.293 117.04C404.935 117.478 404.488 117.806 403.992 117.994C403.472 118.233 402.939 118.429 402.395 118.579C403.002 120.202 403.752 121.749 404.631 123.198C405.136 122.598 405.436 122.233 405.436 122.233L407.623 126.144C407.672 125.98 407.703 125.888 407.703 125.888C407.809 126.132 407.926 126.37 408.052 126.601C408.2 126.139 408.276 125.888 408.276 125.888C409.255 128.13 411.066 129.993 413.195 131.533C418.919 135.665 426.924 137.374 426.924 137.374C439.803 139.519 437.429 154.793 437.429 154.793C437.429 154.793 442.898 182.055 444.41 198.899ZM375.205 187.639L375.442 187.737C375.509 187.413 375.58 187.068 375.655 186.704L375.662 186.67L375.662 186.669L375.663 186.665C375.917 185.432 376.215 183.985 376.547 182.43C376.037 184.308 375.586 186.099 375.205 187.639ZM390.701 136.676L390.768 136.748L390.696 136.701L390.701 136.676ZM405.561 381.372C405.458 387.587 408.674 400.623 409.483 403.82H409.488C411.171 407.678 412.423 417.334 412.88 420.863C412.911 421.104 412.939 421.316 412.962 421.496C413.593 417.174 414.532 411.955 415.113 408.839C414.707 407.31 414.161 404.965 413.517 401.485C412.081 393.668 411.218 366.026 411.218 366.026L407.855 342.797C404.788 333.862 404.112 323.295 404.112 323.295C402.878 319.548 400.016 296.643 399.569 292.963C399.699 295.509 400.007 301.945 400.173 309.094L400.199 309.294C400.32 314.693 400.36 320.482 400.177 325.291V325.317C400.132 326.667 400.07 327.945 399.989 329.125C399.984 329.219 399.977 329.313 399.971 329.407C399.955 329.626 399.94 329.845 399.94 330.064C399.569 342.515 404.412 358.194 404.412 358.194C404.412 358.194 406.576 369.819 406.254 376.306C406.256 377.483 406.105 378.654 405.807 379.781C405.666 380.297 405.584 380.831 405.561 381.372Z" fill="url(#paint0_linear)"/>
<path d="M394.289 405.542C394.289 405.542 388.746 416.55 380.951 417.373C373.155 418.195 372.97 423.339 378.416 425.192C383.862 427.045 395.323 425.192 395.323 425.192L411.665 420.769C411.665 420.769 409.691 403.069 407.063 402.145C404.435 401.221 394.289 405.542 394.289 405.542Z" fill="#4C4C78"/>
<path d="M414.81 402.42C414.81 402.42 410.822 424.783 411.828 425.692C412.833 426.6 427.955 431.45 428.501 423.657C428.543 423.002 428.582 422.375 428.616 421.777C428.839 416.765 428.301 411.746 427.031 406.983C426.605 405.39 426.306 403.685 426.417 402.42C426.669 399.26 414.81 402.42 414.81 402.42Z" fill="#4C4C78"/>
<path d="M409.665 130.194C409.665 130.194 396.691 166.322 399 154.718C400.527 147.034 390.653 136.823 383.825 130.824C380.349 127.75 377.665 125.798 377.665 125.798C377.665 125.798 402.023 93.6047 400.297 107.493C399.823 111.297 400.283 115.176 401.625 118.703C404.314 125.947 409.665 130.194 409.665 130.194Z" fill="#FFB9B9"/>
<path d="M328.665 181.724C328.019 181.52 326.965 181.651 325.873 181.938C324.023 182.463 322.204 183.141 320.429 183.969C320.429 183.969 311.449 185.301 312.804 173.73C313.812 165.104 321.797 168.237 325.796 170.377C327.156 171.114 328.057 171.73 328.057 171.73L328.665 181.724Z" fill="#FFB9B9"/>
<path opacity="0.1" d="M328.665 182.793C327.879 182.582 326.597 182.718 325.268 183.016C324.078 179.872 324.983 172.419 325.175 171.016C326.829 171.78 327.926 172.419 327.926 172.419L328.665 182.793Z" fill="black"/>
<path d="M328.842 172.516L326.166 172.016C326.166 172.016 324.796 181.516 326.587 184.016H329.665L328.842 172.516Z" fill="#CBCDDA"/>
<path d="M377.715 187.975C377.715 187.975 370.308 182.762 369.423 189.341C368.538 195.921 367.372 207.161 367.372 207.161L365.321 221.47L362.665 250.138L363.038 255.016C363.038 255.016 370.926 251.891 372.776 252.989C374.625 254.088 376.133 240.929 376.133 240.929L379.2 227.332L379.665 198.499L377.715 187.975Z" fill="#4C4C78"/>
<path opacity="0.1" d="M377.715 187.975C377.715 187.975 370.308 182.762 369.423 189.341C368.538 195.921 367.372 207.161 367.372 207.161L365.321 221.47L362.665 250.138L363.038 255.016C363.038 255.016 370.926 251.891 372.776 252.989C374.625 254.088 376.133 240.929 376.133 240.929L379.2 227.332L379.665 198.499L377.715 187.975Z" fill="black"/>
<path d="M372.665 154.016C372.665 154.016 364.921 164.295 353.164 166.364C341.408 168.432 326.9 169.102 326.9 169.102C326.9 169.102 323.24 176.81 328.521 185.016L358.1 184.246C358.1 184.246 364.648 182.573 369.72 184.246L372.665 154.016Z" fill="#4C4C78"/>
<path opacity="0.05" d="M372.665 154.016C372.665 154.016 364.921 164.295 353.164 166.364C341.408 168.432 326.9 169.102 326.9 169.102C326.9 169.102 323.24 176.81 328.521 185.016L358.1 184.246C358.1 184.246 364.648 182.573 369.72 184.246L372.665 154.016Z" fill="black"/>
<path opacity="0.1" d="M399.624 119.015C396.762 126.499 391.786 132.016 384.57 132.016C384.251 132.016 383.94 132.016 383.63 131.989C380.264 128.781 377.665 126.745 377.665 126.745C377.665 126.745 401.252 93.1524 399.58 107.645C399.064 112.082 398.473 115.685 399.624 119.015Z" fill="black"/>
<path d="M403.665 110.031C403.658 121.628 395.371 131.022 385.154 131.016C374.938 131.009 366.661 121.604 366.665 110.007C366.669 98.4105 374.953 89.0128 385.169 89.0157C390.081 89.0048 394.794 91.216 398.265 95.1601C401.736 99.1042 403.679 104.456 403.665 110.031Z" fill="#FFB9B9"/>
<path d="M414.665 239.607C414.665 239.607 373.431 243.79 371.919 237.74C370.408 231.69 376.127 215.309 376.127 215.309L374.264 192.439L374.196 191.565C374.196 191.565 379.362 166.823 379.173 164.848C378.993 163.069 387.488 142.309 389.234 138.063C389.441 137.572 389.549 137.303 389.549 137.303L389.877 137.52L390.021 137.619L392.041 138.973L400.019 136.802L409.635 131.016L410.534 194.311L414.665 239.607Z" fill="#CBCDDA"/>
<path opacity="0.1" d="M392.873 137.123C392.873 137.123 390.007 136.253 388.887 139.462C388.448 140.841 387.929 142.186 387.332 143.488L386.217 150.938L384.174 162.707L382.665 214.77L383.346 224.016L387.09 216.566L387.771 167.9V161.847C387.991 156.614 389.046 151.467 390.889 146.651L391.41 145.284L394.665 140.603L392.873 137.123Z" fill="black"/>
<path d="M392.869 136.123C392.869 136.123 389.999 135.253 388.884 138.461C388.445 139.841 387.925 141.186 387.326 142.488L386.211 149.942L384.168 161.709L382.665 213.766L383.346 223.016L387.088 215.541L387.769 166.912V160.844C387.993 155.612 389.048 150.467 390.886 145.649L391.411 144.283L394.665 139.607L392.869 136.123Z" fill="#4C4C78"/>
<path opacity="0.1" d="M405.078 124.016C405.078 124.016 395.905 135.375 392.665 136.723C392.665 136.723 394.285 145.336 395.905 147.016C395.905 147.016 405.531 135.553 407.235 134.624L408.665 130.54L405.078 124.016Z" fill="black"/>
<path d="M405.078 123.016C405.078 123.016 395.905 134.375 392.665 135.723C392.665 135.723 394.285 144.336 395.905 146.016C395.905 146.016 405.531 134.553 407.235 133.624L408.665 129.545L405.078 123.016Z" fill="#CBCDDA"/>
<path opacity="0.1" d="M389.665 137.016L389.566 137.32L386.423 146.757L380.804 164.563C380.804 164.563 380.754 164.745 380.655 165.069C379.723 168.311 374.718 185.904 373.733 191.016L373.665 190.16C373.665 190.16 378.855 165.92 378.665 163.985C378.484 162.243 387.02 141.904 388.774 137.745C389.055 137.532 389.272 137.35 389.421 137.213L389.665 137.016Z" fill="black"/>
<path d="M390.665 136.016L387.416 145.904L381.792 163.969C381.792 163.969 381.742 164.154 381.643 164.483C380.657 167.988 375.032 187.997 374.58 191.656C374.069 195.675 366.997 217.4 366.997 217.4L362.956 255.016C359.337 251.824 364.477 221.095 364.477 221.095C364.477 221.095 370.25 175.523 371.616 160.361C372.983 145.2 380.353 140.77 380.353 140.77C383.756 140.574 386.824 138.868 388.71 137.557C389.392 137.094 390.045 136.579 390.665 136.016Z" fill="#4C4C78"/>
<path opacity="0.1" d="M430.515 380.116C429.654 387.435 428.504 407.851 428.504 407.851C424.478 414.728 415.561 411.015 415.561 411.015C415.561 411.015 414.605 408.96 413.167 401.184C411.729 393.408 410.867 366.017 410.867 366.017L407.509 343.008C404.443 334.158 403.771 323.676 403.771 323.676C402.419 319.633 399.168 293.095 399.168 293.095C399.168 293.095 400.521 316.901 399.651 329.464C398.78 342.027 404.055 358.93 404.055 358.93C404.055 358.93 407.031 374.769 405.493 379.685C403.956 384.6 409.33 404.908 409.33 404.908C408.879 410.809 393.614 408.405 393.614 408.405C393.614 408.405 386.432 386.449 385.174 373.234C384.42 365.271 383.187 357.377 381.482 349.608L380.237 331.256L378.028 320.409L375.395 306.105C372.42 295.622 371.514 278.093 371.514 278.093L369.21 260.892C367.704 252.387 369.661 242.402 370.959 237.179C371.523 234.914 371.974 233.532 371.974 233.532C373.294 234.601 380.86 235.854 384.773 236.871C386.915 237.433 389.117 237.634 391.31 237.467C401.204 236.572 410.991 234.527 420.52 231.365C421.165 231.144 421.507 231.016 421.507 231.016L421.71 232.983L422.188 237.667L423.04 245.982C423.04 245.982 425.628 290.322 424.095 296.316C422.562 302.31 425.15 322.51 425.15 322.51C423.712 327.302 428.216 346.778 428.216 346.778C428.216 346.778 431.381 372.797 430.515 380.116Z" fill="black"/>
<path d="M430.515 379.11C429.654 386.43 428.504 406.848 428.504 406.848C424.478 413.731 415.561 410.012 415.561 410.012C415.561 410.012 414.605 407.958 413.167 400.186C411.729 392.414 410.867 365.009 410.867 365.009L407.509 341.966C404.466 333.115 403.771 322.606 403.771 322.606C402.419 318.563 399.168 292.021 399.168 292.021C399.168 292.021 400.521 315.83 399.651 328.395C398.78 340.959 404.055 357.885 404.055 357.885C404.055 357.885 407.031 373.726 405.493 378.642C403.956 383.558 409.33 403.874 409.33 403.874C408.879 409.771 393.614 407.367 393.614 407.367C393.614 407.367 386.432 385.433 385.174 372.211C384.42 364.248 383.187 356.353 381.482 348.582L380.237 330.234L378.028 319.421L375.395 305.115C372.42 294.626 371.514 277.094 371.514 277.094L369.21 259.891C367.704 251.385 369.661 241.399 370.959 236.175C371.523 233.914 371.974 232.533 371.974 232.533C373.294 233.601 380.86 234.849 384.773 235.866C386.914 236.431 389.117 236.632 391.31 236.462C401.204 235.567 410.991 233.522 420.52 230.36L421.507 230.016L421.71 231.978L422.188 236.668L423.04 244.984C423.04 244.984 425.628 289.325 424.095 295.324C422.562 301.324 425.15 321.522 425.15 321.522C423.712 326.309 428.216 345.788 428.216 345.788C428.216 345.788 431.381 371.78 430.515 379.11Z" fill="#474463"/>
<path opacity="0.1" d="M403.647 110.234C403.653 113.945 402.818 117.593 401.226 120.812C398.378 121.395 395.348 120.75 393.216 118.565C391.757 117.072 390.813 115.032 389.558 113.302C388.746 112.239 387.873 111.24 386.946 110.311C386.341 109.612 385.646 109.024 384.886 108.571C384.111 108.117 383.199 108.105 382.416 108.54C381.41 109.191 381.081 110.642 380.498 111.799C380.059 112.792 379.309 113.552 378.402 113.922C377.471 114.267 376.454 113.867 375.896 112.935C375.278 111.701 375.732 109.774 374.695 109.02C374.421 108.864 374.139 108.729 373.849 108.617C372.514 107.915 372.359 105.833 372.243 104.129C372.185 103.292 372.029 102.347 371.424 101.898C370.819 101.448 370.022 101.676 369.301 101.691C369.088 101.701 368.875 101.682 368.665 101.634C372.167 92.471 380.717 87.4017 389.167 89.4779C397.617 91.554 403.662 100.209 403.665 110.234H403.647Z" fill="black"/>
<path d="M368.139 83.0979C366.719 84.2894 365.822 86.122 365.68 88.1223C365.646 88.4527 365.669 88.7874 365.747 89.108C365.871 89.4483 366.02 89.7763 366.191 90.0886C367.125 92.1964 365.698 94.6935 365.88 97.0439C366.136 99.3404 367.846 101.068 369.882 101.088C370.602 101.088 371.394 100.845 372.003 101.29C372.612 101.735 372.763 102.655 372.821 103.474C372.936 105.142 373.083 107.179 374.421 107.866C374.71 107.978 374.992 108.11 375.266 108.26C376.307 108.998 375.853 110.889 376.471 112.092C377.028 113.004 378.044 113.396 378.974 113.057C379.879 112.697 380.627 111.955 381.064 110.985C381.638 109.848 381.98 108.458 382.985 107.795C383.766 107.366 384.678 107.375 385.453 107.821C386.212 108.266 386.906 108.843 387.511 109.529C388.439 110.436 389.311 111.414 390.121 112.456C391.375 114.144 392.317 116.141 393.776 117.602C396.524 120.346 400.73 120.634 404.118 119.052C404.607 118.867 405.048 118.547 405.403 118.122C405.712 117.633 405.912 117.066 405.985 116.469C406.329 114.566 406.428 112.617 406.279 110.682C406.159 109.165 405.887 107.649 405.981 106.132C406.074 104.505 406.585 102.933 406.657 101.305C406.781 98.4239 405.523 95.6893 403.989 93.4096C403.064 92.0499 402.024 90.7912 401.223 89.3355C400.525 88.0718 400.018 86.6817 399.271 85.4585C397.52 82.6026 394.567 80.9092 391.553 80.3178C388.538 79.7264 385.439 80.0903 382.42 80.6615C379.788 81.167 377.138 81.8848 374.47 82.0617C372.136 82.2487 370.255 81.354 368.139 83.0979Z" fill="#472727"/>
<path opacity="0.1" d="M390.665 136.016L387.064 146.08L380.831 164.466C380.831 164.466 380.775 164.655 380.665 164.989V165.016L388.509 137.574C389.26 137.106 389.98 136.585 390.665 136.016V136.016Z" fill="black"/>
<path d="M425.652 249.557C425.652 249.557 426.018 261.112 422.917 264.016L414.665 248.396L421.587 245.016L425.652 249.557Z" fill="#FFB9B9"/>
<path opacity="0.1" d="M442.665 253.618C439.259 258.195 424.432 259.016 424.432 259.016L409.757 232.361C409.757 232.361 406.283 229.583 399.76 217.071C393.236 204.559 393.449 194.922 393.814 187.726C394.178 180.529 398.261 159.846 398.261 159.846C398.897 155.192 408.044 126.016 408.044 126.016C409.005 128.225 410.793 130.07 412.883 131.593C418.531 135.693 426.415 137.374 426.415 137.374C439.116 139.502 436.773 154.623 436.773 154.623C436.773 154.623 436.915 213.401 436.132 220.433C435.35 227.466 442.665 253.618 442.665 253.618Z" fill="black"/>
<path d="M425.665 252.399L425.209 257.016L419.703 254.71L415.665 247.728L418.696 245.016L425.665 252.399Z" fill="#CBCDDA"/>
<path opacity="0.1" d="M424.665 236.287L421.982 236.62L396.108 239.761C391.953 240.268 387.759 240.017 383.665 239.019L371.665 236.104C372.219 233.737 372.661 232.291 372.661 232.291C373.959 233.409 381.389 234.716 385.233 235.781C387.336 236.372 389.5 236.583 391.654 236.405C401.371 235.468 410.984 233.327 420.343 230.016L421.512 231.71L424.665 236.287Z" fill="black"/>
<g opacity="0.1">
<path d="M374.356 233.692C374.272 233.643 374.192 233.588 374.114 233.528C374.114 233.528 374.114 233.559 374.088 233.605L374.356 233.692Z" fill="black"/>
<path d="M427.984 346.589C427.984 346.589 423.665 327.146 425.047 322.367C425.047 322.367 422.569 302.216 424.041 296.217C425.514 290.218 423.026 245.968 423.026 245.968L422.21 237.666L421.752 232.985L421.562 231.026L420.612 231.37L420.025 231.575L420.099 232.334L420.556 237.01L421.372 245.312C421.372 245.312 423.851 289.577 422.387 295.561C420.923 301.545 423.393 321.711 423.393 321.711C422.016 326.495 426.33 345.933 426.33 345.933C426.33 345.933 429.352 371.888 428.536 379.19C427.72 386.492 426.606 406.878 426.606 406.878C423.791 411.898 418.475 411.273 415.811 410.57L415.858 410.693C415.858 410.693 424.399 414.406 428.256 407.535C428.256 407.535 429.357 387.143 430.186 379.846C431.015 372.55 427.984 346.589 427.984 346.589Z" fill="black"/>
<path d="M406.224 379.41C407.692 374.503 404.847 358.69 404.847 358.69C404.847 358.69 399.799 341.769 400.624 329.253C400.969 324.028 400.947 316.86 400.801 310.281C399.63 301.795 398.508 292.335 398.508 292.335C398.508 292.335 399.803 316.101 398.974 328.638C398.145 341.174 403.193 358.079 403.193 358.079C403.193 358.079 406.043 373.888 404.57 378.795C403.098 383.702 408.237 403.955 408.237 403.955C407.87 408.672 398.434 408.057 394.69 407.647L394.833 408.098C394.833 408.098 409.433 410.498 409.89 404.611C409.899 404.596 404.756 384.317 406.224 379.41Z" fill="black"/>
</g>
<path d="M443.665 253.618C440.263 258.195 425.433 259.016 425.433 259.016L410.759 232.361C410.759 232.361 407.286 229.583 400.758 217.071C394.23 204.559 394.452 194.922 394.813 187.726C395.173 180.529 399.259 159.846 399.259 159.846C399.895 155.192 409.042 126.016 409.042 126.016C409.998 128.225 411.786 130.07 413.88 131.593C419.528 135.693 427.412 137.374 427.412 137.374C440.108 139.502 437.764 154.623 437.764 154.623C437.764 154.623 437.906 213.401 437.124 220.433C436.341 227.466 443.665 253.618 443.665 253.618Z" fill="#4C4C78"/>
<path opacity="0.1" d="M410.547 142.564L407.366 143.939L409.484 145.664L393.665 190.016C394.033 182.806 398.096 162.005 398.096 162.005C398.73 157.329 407.844 128.016 407.844 128.016C408.797 130.235 410.578 132.089 412.665 133.619L410.547 142.564Z" fill="black"/>
<path opacity="0.1" d="M414.665 219.734L430.578 215.016L432.665 222.452L416.404 227.016L414.665 219.734Z" fill="black"/>
<path opacity="0.1" d="M423.085 144.105C423.085 144.105 415.664 152.125 418.464 170C421.264 187.875 425.742 207.281 425.742 207.281L413.665 245.712C413.665 245.712 422.083 255.793 426.22 257.016L438.274 226.286C438.274 226.286 443.91 215.635 442.412 198.921C440.913 182.208 435.492 155.162 435.492 155.162C435.492 155.162 435.497 138.7 423.085 144.105Z" fill="black"/>
<path d="M424.095 144.105C424.095 144.105 416.676 152.125 419.465 170C422.254 187.875 426.732 207.281 426.732 207.281L414.665 245.712C414.665 245.712 423.076 255.793 427.21 257.016L439.278 226.286C439.278 226.286 444.909 215.635 443.412 198.921C441.915 182.208 436.498 155.162 436.498 155.162C436.498 155.162 436.498 138.7 424.095 144.105Z" fill="#4C4C78"/>
<path opacity="0.1" d="M415.549 246.083C415.549 246.083 425.367 261.44 424.625 265.529C423.884 269.618 421.006 267.431 421.006 267.431L417.14 261.44L413.665 250.23C413.665 250.23 414.005 245.393 415.549 246.083Z" fill="black"/>
<path opacity="0.1" d="M414.55 246.083C414.55 246.083 424.346 261.44 423.627 265.529C422.909 269.618 420.007 267.431 420.007 267.431L416.136 261.44L412.665 250.23C412.665 250.23 413.006 245.393 414.55 246.083Z" fill="black"/>
<path d="M414.55 246.083C414.55 246.083 424.35 261.44 423.627 265.529C422.904 269.618 420.006 267.431 420.006 267.431L416.137 261.44L412.665 250.23C412.665 250.23 413.001 245.393 414.55 246.083Z" fill="#474463"/>
<defs>
<linearGradient id="paint0_linear" x1="444.658" y1="431.042" x2="444.658" y2="78.0088" gradientUnits="userSpaceOnUse">
<stop stop-color="#808080" stop-opacity="0.25"/>
<stop offset="0.54" stop-color="#808080" stop-opacity="0.12"/>
<stop offset="1" stop-color="#808080" stop-opacity="0.1"/>
</linearGradient>
</defs>
</svg>
