<svg width="536" height="311" viewBox="0 0 536 311" fill="none" xmlns="http://www.w3.org/2000/svg">
<path fill-rule="evenodd" clip-rule="evenodd" d="M132.487 203.158C100.067 191.868 62.9992 182.31 32.7097 198.536C28.8708 200.592 25.0881 203.181 23.0197 207.033C17.5565 217.168 26.2403 230.312 22.008 241.024C17.7757 251.737 1.84686 257.131 3.15084 268.574C3.4937 271.565 5.1012 274.273 6.99535 276.607C18.8605 291.218 40.6123 292.697 58.9973 289.071C77.3824 285.445 95.3627 277.927 114.079 278.874C132.065 279.808 148.612 288.504 165.092 295.824C192.875 308.197 225.323 317.074 253.083 304.639C265.802 298.94 276.319 289.235 288.493 282.46C304.899 273.413 323.758 269.925 342.282 272.512C354.647 274.268 366.451 278.687 378.552 281.734C406.037 288.652 434.724 288.425 463.047 288.153C468.319 288.102 473.675 288.04 478.728 286.522C486.209 284.255 492.381 279.038 498.322 273.933C506.129 267.232 514.352 259.867 516.87 249.845C519.843 237.948 513.688 225.304 504.561 217.219C495.433 209.135 483.764 204.716 472.377 200.456C469.567 199.414 466.565 198.354 463.687 199.142C461.799 199.663 460.208 200.932 458.798 202.297C450.715 210.138 443.886 223.4 432.864 221.27C428.93 220.511 425.709 217.752 422.595 215.202C405.969 201.606 383.605 191.108 363.539 198.62C348.864 204.116 338.505 218.228 323.633 223.207C313.055 226.754 301.561 225.219 290.432 225.91C274.245 226.907 258.49 232.674 242.28 232.323C200.946 231.428 166.508 191.59 125.343 195.386C122.117 195.68 118.598 196.428 116.62 199" fill="#F7F5EF"/>
<path d="M81.0473 164.965C81.0473 164.965 46.7014 185.745 110.037 217.752C110.037 217.752 123.992 191.784 108.564 170.609C102.368 162.07 90.7788 159.524 81.5868 164.683L81.0473 164.965Z" fill="#536DFE"/>
<path d="M80.9746 165.12C80.9746 165.12 110.481 187.41 109.658 217.752" stroke="#535461"/>
<path d="M514.529 147.973C521.421 173.61 492.019 246.648 492.019 246.648C492.019 246.648 430.153 199.004 423.255 173.367C418.343 156.634 422.725 138.507 434.706 126C446.688 113.493 464.388 108.567 480.96 113.128C497.532 117.689 510.376 131.022 514.523 147.967L514.529 147.973Z" fill="#536DFE"/>
<path opacity="0.1" d="M514.529 147.973C521.421 173.61 492.019 246.648 492.019 246.648C492.019 246.648 430.153 199.004 423.255 173.367C418.343 156.634 422.725 138.507 434.706 126C446.688 113.493 464.388 108.567 480.96 113.128C497.532 117.689 510.376 131.022 514.523 147.967L514.529 147.973Z" fill="black"/>
<path d="M456.125 115.584C456.125 115.584 494.732 174.586 491.846 247.68" stroke="#535461"/>
<path d="M524.501 194.306C524.501 194.306 490.073 175.242 494.431 245.616C494.431 245.616 523.151 244.571 533.344 220.724C537.47 211.124 533.887 199.901 525.006 194.603L524.501 194.306Z" fill="#536DFE"/>
<path d="M525.825 195.048C525.825 195.048 521.213 231.874 494.05 246.648" stroke="#535461"/>
<path d="M9.30609 185.627C9.30609 185.627 -25.059 206.402 38.2866 238.392C38.2866 238.392 52.2428 212.424 36.8139 191.249C30.6169 182.71 19.0271 180.164 9.83444 185.323L9.30609 185.627Z" fill="#536DFE"/>
<path d="M9.22461 186.792C9.22461 186.792 38.7311 209.082 37.9077 239.424" stroke="#535461"/>
<path fill-rule="evenodd" clip-rule="evenodd" d="M402.442 214.495H438.575C439.427 214.495 440.245 214.838 440.845 215.448C441.446 216.058 441.781 216.884 441.775 217.744V220.347C441.775 225.133 439.889 229.723 436.533 233.107C433.177 236.491 428.626 238.392 423.88 238.392H78.3694C68.4864 238.392 60.4747 230.313 60.4747 220.347V217.744C60.4702 216.885 60.8053 216.06 61.4059 215.451C62.0065 214.843 62.823 214.5 63.6746 214.5H101.084C100.252 212.814 99.8209 210.956 99.8239 209.073V43.1582C99.8239 36.4213 105.24 30.96 111.921 30.96H391.605C398.286 30.96 403.702 36.4213 403.702 43.1582V209.067C403.705 210.951 403.274 212.808 402.442 214.495ZM212.821 221.271L215.937 224.816L286.312 224.821L289.743 221.271H212.821Z" fill="url(#paint0_linear)"/>
<rect x="103.525" y="34.0557" width="296.225" height="185.76" rx="23.26" fill="#535461"/>
<rect x="110.7" y="61.9199" width="282.9" height="149.64" fill="white"/>
<path d="M250.612 49.536C252.028 49.536 253.175 48.3809 253.175 46.956C253.175 45.5311 252.028 44.376 250.612 44.376C249.197 44.376 248.05 45.5311 248.05 46.956C248.05 48.3809 249.197 49.536 250.612 49.536Z" fill="white"/>
<path d="M294.684 212.592L284.948 223.302H216.3L207.502 212.592H67.6971C65.9729 212.592 64.5752 214.09 64.5752 215.939V218.636C64.5752 228.977 72.3933 237.36 82.0374 237.36H419.188C423.819 237.36 428.261 235.387 431.536 231.876C434.81 228.364 436.65 223.602 436.65 218.636V215.939C436.65 214.09 435.252 212.592 433.528 212.592H294.684Z" fill="#535461"/>
<path d="M145.55 71.208V199.176H357.725" stroke="#535461" stroke-width="2"/>
<rect opacity="0.5" x="164" y="159.96" width="21.525" height="34.056" fill="#536DFE"/>
<rect opacity="0.7" x="201.925" y="129" width="21.525" height="63.984" fill="#536DFE"/>
<rect opacity="0.5" x="239.85" y="147.576" width="21.525" height="46.44" fill="#536DFE"/>
<rect opacity="0.8" x="276.75" y="119.712" width="21.525" height="74.304" fill="#536DFE"/>
<rect x="313.65" y="93.9121" width="21.525" height="100.104" fill="#536DFE"/>
<path d="M174.25 140.352L212.285 105.424L249.698 138.444L286.488 98.4384L323.9 82.5596" stroke="#535461" stroke-width="2"/>
<path d="M175.275 143.448C177.539 143.448 179.375 141.6 179.375 139.32C179.375 137.041 177.539 135.192 175.275 135.192C173.01 135.192 171.175 137.041 171.175 139.32C171.175 141.6 173.01 143.448 175.275 143.448Z" fill="#536DFE"/>
<path d="M250.1 140.352C252.364 140.352 254.2 138.504 254.2 136.224C254.2 133.944 252.364 132.096 250.1 132.096C247.836 132.096 246 133.944 246 136.224C246 138.504 247.836 140.352 250.1 140.352Z" fill="#536DFE"/>
<path d="M288.025 102.168C290.289 102.168 292.125 100.32 292.125 98.0401C292.125 95.7603 290.289 93.9121 288.025 93.9121C285.76 93.9121 283.925 95.7603 283.925 98.0401C283.925 100.32 285.76 102.168 288.025 102.168Z" fill="#536DFE"/>
<path d="M212.175 107.328C214.44 107.328 216.275 105.48 216.275 103.2C216.275 100.92 214.44 99.0723 212.175 99.0723C209.911 99.0723 208.075 100.92 208.075 103.2C208.075 105.48 209.911 107.328 212.175 107.328Z" fill="#536DFE"/>
<path d="M323.9 86.6876C326.164 86.6876 328 84.8395 328 82.5596C328 80.2798 326.164 78.4316 323.9 78.4316C321.635 78.4316 319.8 80.2798 319.8 82.5596C319.8 84.8395 321.635 86.6876 323.9 86.6876Z" fill="#536DFE"/>
<path d="M486.847 217.406C484.56 216.645 481.168 215.766 478.479 216.076C475.919 215.134 469.899 212.694 465.788 209.018C465.906 205.405 465.815 201.787 465.514 198.185C463.411 174.02 468.142 158.09 468.142 158.09C468.142 158.09 471.857 145.937 471.45 135.853C471.69 136.309 471.824 136.58 471.824 136.58C472.148 127.882 475.082 118.88 477.28 113.272C477.364 113.247 477.446 113.217 477.525 113.181L479.98 107.297C480.176 106.953 480.331 106.588 480.443 106.209L480.839 105.279L480.722 105.228C480.761 105.076 480.8 104.912 480.839 104.749C482.407 98.0466 483.628 82.1508 483.628 82.1508C487.835 65.4208 477.849 55.0942 477.849 55.0942L460.901 40.3595C460.985 40.5514 461.042 40.7545 461.068 40.9627L460.929 40.8387C460.689 40.1453 460.427 39.3167 460.17 38.3698C460.768 37.936 461.328 37.4514 461.844 36.9211C463.771 35.0823 465.096 32.6929 465.643 30.0724C465.971 28.0231 466.056 25.9414 465.894 23.8719L465.615 16.7639C465.602 15.3728 465.462 13.9858 465.197 12.6208C463.919 6.98401 458.201 3.03824 452.46 2.77895C450.634 2.7682 448.808 2.86607 446.993 3.07206C445.509 3.19527 444.019 3.22728 442.53 3.16789C442.361 3.17696 442.193 3.13157 442.051 3.03824C441.921 2.90804 441.847 2.73218 441.844 2.54784C441.785 1.88116 441.999 1.21907 442.436 0.715875C442.66 0.516877 442.922 0.365449 443.205 0.270567L442.798 0.366393C442.999 0.206416 443.225 0.0824814 443.468 0C441.98 0.264354 440.549 0.788922 439.239 1.55012C438.878 1.78966 438.547 2.07159 438.252 2.39001C437.472 3.08161 436.964 4.03425 436.823 5.07313C436.125 4.47686 435.603 3.69633 435.317 2.8184C435.228 2.45941 435.228 2.08385 435.317 1.72486C435.217 1.84887 435.12 1.97664 435.027 2.10817C435.027 2.06871 435.027 2.02925 435.027 1.98979C433.949 3.32878 433.186 4.8977 432.796 6.57816C432.492 6.21057 432.348 5.73542 432.394 5.25914C432.31 5.52407 432.232 5.789 432.16 6.05393C432.134 5.87824 432.134 5.69976 432.16 5.52407C431.503 7.55624 431.206 9.68965 431.284 11.826C431.284 13.9567 432.221 17.2768 434.48 18.0265C434.598 18.066 434.715 18.0942 434.837 18.1223C432.256 22.1735 431.862 27.2639 433.788 31.6713C435.714 36.0788 439.703 39.2138 444.405 40.0157C444.442 40.275 444.477 40.5474 444.511 40.833H444.6C444.661 41.3967 444.712 42.0168 444.745 42.6481C444.175 43.2126 443.551 43.7186 442.882 44.1588C440.985 45.2917 438.869 45.9991 436.678 46.2331C434.062 46.4405 431.519 47.2092 429.22 48.4878C426.514 50.0154 423.529 52.2419 422.592 54.9476C421.03 59.4571 412.428 66.4749 406.66 67.3486L404.607 67.2302L404.456 67.1851V67.2246L403.954 67.1964H403.926H403.792V67.2246L403.273 67.1964C403.273 67.1964 403.223 67.4388 403.151 67.8672C400.25 66.8582 394.085 64.0623 386.063 56.7063C377.137 48.516 365.059 50.1281 360.401 51.1597C360.077 51.232 359.831 51.5 359.783 51.8324C359.736 52.1648 359.898 52.4919 360.189 52.6534C362.069 53.6962 364.981 55.2125 366.326 55.3816C366.326 55.3816 363.537 58.3297 366.504 59.8911C367.23 60.2457 368.091 60.1609 368.736 59.6713C370.175 58.6059 374.175 61.0185 379.971 62.2755C379.971 62.2755 396.328 79.3775 404.45 82.0043C404.638 82.3778 404.844 82.7409 405.07 83.0922L405.572 83.0527V83.0922H405.784L405.845 83.6559C405.845 83.6559 418.475 82.9851 422.581 78.3516C422.872 78.0886 423.139 77.8 423.379 77.4892L418.988 133.294H419.027L418.988 133.823H422.218C422.495 140.687 422.202 147.561 421.343 154.375V190.755C421.343 190.755 421.175 193.957 427.758 198.647C434.66 203.502 441.311 208.712 447.685 214.255L448.483 214.954C447.272 226.087 444.74 246.836 442.625 247.608L443.931 247.839C441.699 250.697 435.362 258.549 433.432 258.758C431.066 259.023 429.487 262.743 433.432 263.538C441.307 264.915 449.404 264.109 456.862 261.204C458.393 260.594 459.313 259.007 459.093 257.36L458.329 251.497C458.474 251.579 458.591 251.703 458.664 251.853C459.188 253.448 458.664 249.728 458.664 249.728C460.825 242.709 462.523 235.553 463.746 228.308L471.556 235.128C471.556 235.128 471.712 234.931 471.986 234.564C473.899 238.95 477.313 247.924 476.549 254.496C475.5 263.515 485.475 255.556 484.432 250.246C483.584 245.951 487.377 227.744 488.856 220.935C489.186 219.411 488.316 217.884 486.847 217.406Z" fill="url(#paint1_linear)"/>
<path d="M405.11 70.6796C405.11 70.6796 397.639 69.355 386.561 59.0231C377.796 50.8508 365.973 52.4576 361.414 53.4885C361.096 53.5592 360.854 53.826 360.808 54.1573C360.762 54.4887 360.921 54.8146 361.207 54.9744C363.049 56.011 365.906 57.5257 367.244 57.6985C367.244 57.6985 364.483 60.6356 367.418 62.2079C368.134 62.5698 368.988 62.4851 369.624 61.989C371.036 60.9293 374.956 63.3367 380.641 64.5864C380.641 64.5864 402.797 88.1645 407.95 84.1676L405.11 70.6796Z" fill="#FEC3BE"/>
<path d="M442.8 38.1354C442.8 38.1354 444.85 47.0729 442.8 53.3817L452.025 54.696L460.225 50.4901V44.9699C460.225 44.9699 456.381 36.5581 457.406 26.832L442.8 38.1354Z" fill="#FEC3BE"/>
<path d="M469.45 231.103C469.45 231.103 476.029 244.24 474.998 252.999C473.968 261.757 483.572 254.029 482.564 248.877C481.747 244.711 485.387 227.037 486.807 220.463C487.126 218.991 486.301 217.512 484.899 217.041C481.867 216.022 476.791 214.774 474.242 216.683C470.475 219.511 469.45 231.103 469.45 231.103Z" fill="#FD6F8D"/>
<path d="M442.968 245.352C442.968 245.352 434.169 256.623 431.839 256.879C429.51 257.136 427.957 260.722 431.839 261.49C439.591 262.825 447.563 262.056 454.907 259.263C456.42 258.679 457.333 257.147 457.118 255.554L455.633 244.584L442.968 245.352Z" fill="#FD6F8D"/>
<path d="M429.791 123.84L421.377 124.965C422.532 134.818 422.498 144.775 421.276 154.62V190.051C421.276 190.051 421.113 193.172 427.575 197.711C434.351 202.434 440.882 207.502 447.14 212.896L470.554 233.232C470.554 233.232 479.843 221.849 478.552 215.123C478.552 215.123 463.071 210.207 461.007 202.187C459.823 197.598 453.821 193.752 448.907 191.333C442.543 188.234 439.192 181.108 440.858 174.214C441.145 173.051 441.588 171.933 442.176 170.89C446.305 163.646 452.239 147.348 452.239 147.348L440.886 125.651L429.791 123.84Z" fill="#4D4981"/>
<path opacity="0.05" d="M429.791 123.84L421.377 124.965C422.532 134.818 422.498 144.775 421.276 154.62V190.051C421.276 190.051 421.113 193.172 427.575 197.711C434.351 202.434 440.882 207.502 447.14 212.896L470.554 233.232C470.554 233.232 479.843 221.849 478.552 215.123C478.552 215.123 463.071 210.207 461.007 202.187C459.823 197.598 453.821 193.752 448.907 191.333C442.543 188.234 439.192 181.108 440.858 174.214C441.145 173.051 441.588 171.933 442.176 170.89C446.305 163.646 452.239 147.348 452.239 147.348L440.886 125.651L429.791 123.84Z" fill="black"/>
<path d="M442.116 246.217C442.116 246.217 457.907 248.823 458.442 250.386C458.977 251.95 458.442 248.302 458.442 248.302C458.442 248.302 467.542 221.464 465.424 197.758C463.306 174.053 468.1 158.413 468.1 158.413C468.1 158.413 473.721 140.695 470.509 130.533C467.297 120.371 433.575 124.801 433.575 124.801C433.575 124.801 445.351 151.639 445.084 164.406C445.084 164.406 446.422 202.97 448.83 207.399C448.807 207.376 445.06 245.158 442.116 246.217Z" fill="#4D4981"/>
<path d="M443.195 46.4404C443.195 46.4404 444.743 56.0482 460.225 51.8999L449.926 130.927C449.926 130.927 419.994 131.967 420.252 128.327L426.422 80.4973L443.195 46.4404Z" fill="white"/>
<path opacity="0.1" d="M442.778 45.4082C440.796 47.4068 438.215 48.6624 435.451 48.9723C432.926 49.1705 430.471 49.9176 428.251 51.1638C425.643 52.6606 422.737 54.8352 421.855 57.4843C420.08 62.6808 408.922 71.2549 403.85 69.4361L405.625 85.0255C405.625 85.0255 420.08 84.246 422.616 78.5299L418.31 134.16H422.114C422.114 134.16 424.143 119.09 425.665 115.973C427.187 112.855 430.23 95.7065 430.483 91.5493C430.737 87.3921 434.541 63.4885 437.838 59.3539L442.8 47.0123L442.778 45.4082Z" fill="black"/>
<path opacity="0.1" d="M443.825 46.4404C441.527 48.2625 438.779 49.4092 435.882 49.7552C433.324 49.9584 430.837 50.7117 428.588 51.9651C425.944 53.4667 422.999 55.6482 422.104 58.3058C420.305 63.5188 408.992 72.1203 403.85 70.2958L405.649 85.9349C405.649 85.9349 420.305 85.1529 422.876 79.4186L418.505 135.192H422.362C422.362 135.192 424.418 120.075 425.961 116.947C427.504 113.819 430.589 96.6159 430.846 92.4455C431.103 88.2751 434.96 64.2951 438.302 60.1473L443.825 47.9987V46.4404Z" fill="black"/>
<path d="M443.819 45.4082C441.522 47.2298 438.775 48.3763 435.879 48.7222C433.32 48.921 430.832 49.6703 428.581 50.9202C425.938 52.4214 422.993 54.6023 422.099 57.2592C420.3 62.4709 408.99 71.0702 403.85 69.2461L405.649 84.8812C405.649 84.8812 420.3 84.0995 422.87 78.3666L418.506 134.16H422.362C422.362 134.16 424.418 119.046 425.96 115.919C427.503 112.792 430.587 95.5936 430.844 91.4242C431.101 87.2548 434.957 63.281 438.298 59.1343L443.825 47.017L443.819 45.4082Z" fill="#FD6F8D"/>
<path opacity="0.1" d="M456.52 34.4655C456.192 32.1044 456.849 30.6315 457.15 27.8643L442.8 38.5757C442.8 38.5757 443.145 40.0216 443.407 42.139C444.131 42.2547 444.863 42.3126 445.596 42.3123C450.577 42.3123 454.162 38.462 456.52 34.4655Z" fill="black"/>
<path d="M446.387 42.3122C454.03 42.3122 460.225 36.0747 460.225 28.3802C460.225 20.6858 454.03 14.4482 446.387 14.4482C438.745 14.4482 432.55 20.6858 432.55 28.3802C432.55 36.0747 438.745 42.3122 446.387 42.3122Z" fill="#FEC3BE"/>
<path opacity="0.1" d="M430.513 14.7234C430.423 12.2904 430.805 9.86346 431.637 7.58533C431.159 8.32651 431.284 9.3182 431.93 9.90855C432.38 7.42567 433.613 5.16678 435.438 3.48484C434.443 3.65328 433.931 4.92524 434.178 5.93584C434.514 6.92294 435.113 7.79244 435.904 8.44492C435.82 6.9174 436.798 5.48862 438.035 4.65226C439.324 3.88755 440.732 3.36081 442.196 3.0957C441.164 3.47421 440.508 4.52369 440.599 5.65125C440.603 5.83754 440.678 6.0147 440.807 6.14493C440.948 6.23779 441.113 6.2825 441.279 6.27271C442.736 6.33071 444.195 6.29774 445.648 6.17397C447.434 5.96628 449.231 5.86737 451.028 5.87776C456.65 6.1217 462.301 10.0886 463.56 15.7515C463.821 17.1255 463.958 18.5215 463.97 19.9216L464.246 27.0714C464.406 29.1572 464.323 31.2554 463.999 33.3208C463.21 37.1813 460.796 40.4776 457.415 42.3117C455.385 39.2741 455.205 35.3711 454.503 31.7527C454.392 30.9176 454.091 30.1215 453.626 29.4294C453.133 28.728 452.265 28.4252 451.461 28.6744C450.702 28.988 450.376 30.1845 451.006 30.7188C450.443 31.4042 449.392 30.8931 448.757 30.2832C446.983 28.5445 445.761 26.2903 445.254 23.8188C445.001 22.5759 444.748 21.0426 443.568 20.6186C443.161 20.5033 442.737 20.4737 442.319 20.5315C439.857 20.7057 436.006 21.757 433.622 20.9497C431.435 20.212 430.513 16.8666 430.513 14.7234Z" fill="black"/>
<path d="M430.513 14.7234C430.423 12.2904 430.805 9.86346 431.637 7.58533C431.159 8.32651 431.284 9.3182 431.93 9.90855C432.38 7.42567 433.613 5.16678 435.438 3.48484C434.443 3.65328 433.931 4.92524 434.178 5.93584C434.514 6.92294 435.113 7.79244 435.904 8.44492C435.82 6.9174 436.798 5.48862 438.035 4.65226C439.324 3.88755 440.732 3.36081 442.196 3.0957C441.164 3.47421 440.508 4.52369 440.599 5.65125C440.603 5.83754 440.678 6.0147 440.807 6.14493C440.948 6.23779 441.113 6.2825 441.279 6.27271C442.736 6.33071 444.195 6.29774 445.648 6.17397C447.434 5.96628 449.231 5.86737 451.028 5.87776C456.65 6.1217 462.301 10.0886 463.56 15.7515C463.821 17.1255 463.958 18.5215 463.97 19.9216L464.246 27.0714C464.406 29.1572 464.323 31.2554 463.999 33.3208C463.21 37.1813 460.796 40.4776 457.415 42.3117C455.385 39.2741 455.205 35.3711 454.503 31.7527C454.392 30.9176 454.091 30.1215 453.626 29.4294C453.133 28.728 452.265 28.4252 451.461 28.6744C450.702 28.988 450.376 30.1845 451.006 30.7188C450.443 31.4042 449.392 30.8931 448.757 30.2832C446.983 28.5445 445.761 26.2903 445.254 23.8188C445.001 22.5759 444.748 21.0426 443.568 20.6186C443.161 20.5033 442.737 20.4737 442.319 20.5315C439.857 20.7057 436.006 21.757 433.622 20.9497C431.435 20.2062 430.513 16.8666 430.513 14.7234Z" fill="#784F69"/>
<path opacity="0.1" d="M403.445 69.1436C403.445 69.1436 401.119 78.6783 405.479 84.6236L407.95 84.4441L406.604 69.3006L403.445 69.1436Z" fill="black"/>
<path d="M403.445 69.1436C403.445 69.1436 401.119 78.6783 405.479 84.6236L407.95 84.4441L406.604 69.3006L403.445 69.1436Z" fill="#E9DADD"/>
<path opacity="0.1" d="M459.595 42.3115L476.128 56.7234C476.128 56.7234 485.869 66.8506 481.768 83.21C481.768 83.21 479.973 107.1 477.923 108.139C477.923 108.139 470.746 122.68 470.233 136.443C470.233 136.443 460.621 116.838 456.263 128.783C451.906 140.728 441.775 142.416 441.775 142.416L447.415 71.7618C447.415 71.7618 461.646 46.7034 459.595 42.3115Z" fill="black"/>
<path d="M459.595 42.3115L476.128 56.7226C476.128 56.7226 485.869 66.8493 481.768 83.2077C481.768 83.2077 479.973 107.096 477.923 108.135C477.923 108.135 470.746 122.676 470.233 136.438C470.233 136.438 460.108 115.795 455.745 127.739C451.382 139.683 441.775 142.416 441.775 142.416L447.415 71.7941C447.415 71.7941 461.646 46.7031 459.595 42.3115Z" fill="#FD6F8D"/>
<path d="M466.051 103.719C466.051 103.719 470.079 100.819 476.625 108.73L460.512 139.32L455.1 130.761C455.1 130.761 466.554 107.148 466.051 103.719Z" fill="#FEC3BE"/>
<path opacity="0.1" d="M463.3 105.602C463.3 105.602 472.079 116.044 475.504 114.37L478.675 106.551L466.773 101.136L463.3 105.602Z" fill="black"/>
<path d="M463.3 104.57C463.3 104.57 472.079 115.011 475.504 113.338L478.675 105.518L466.773 100.104L463.3 104.57Z" fill="#E9DADD"/>
<path opacity="0.1" d="M456.492 127.968C456.492 127.968 460.264 136.957 462.275 137.478L459.354 141.384L455.1 132.01L456.492 127.968Z" fill="black"/>
<path d="M455.475 127.968C455.475 127.968 459.243 136.957 461.25 137.478L458.334 141.384L454.075 131.993L455.475 127.968Z" fill="#4D4981"/>
<path opacity="0.1" d="M463.264 72.2402C463.264 72.2402 463.593 91.7544 462.275 99.0722L463.264 72.2402Z" fill="black"/>
<path opacity="0.1" d="M423.325 77.4005C423.325 77.4005 427.425 76.221 427.425 73.2725L423.325 77.4005Z" fill="black"/>
<path d="M46.3964 80.4961C46.3964 80.4961 33.257 111.255 41.8863 147.657C50.5156 184.059 47.7744 227.617 39.1702 238.392" stroke="#535461" stroke-width="2"/>
<path d="M45.6129 83.5922C47.5942 83.5922 49.2004 81.975 49.2004 79.9802C49.2004 77.9853 47.5942 76.3682 45.6129 76.3682C43.6316 76.3682 42.0254 77.9853 42.0254 79.9802C42.0254 81.975 43.6316 83.5922 45.6129 83.5922Z" fill="#536DFE"/>
<path d="M41 99.2979C41 99.2979 55.5734 102.554 59.45 95.9756" stroke="#535461" stroke-width="2"/>
<path d="M38.95 108.36C38.95 108.36 30.2924 98.0382 30.769 91.8477" stroke="#535461" stroke-width="2"/>
<path d="M37.9248 127.865C37.9248 127.865 45.9637 130.115 53.2998 113.52" stroke="#535461" stroke-width="2"/>
<path d="M39.9748 140.352C39.9748 140.352 20.3611 126.552 22.7519 117.648" stroke="#535461" stroke-width="2"/>
<path d="M44.0752 156.864C44.0752 156.864 58.8298 143.339 57.2871 130.032" stroke="#535461" stroke-width="2"/>
<path d="M45.0998 165.12C45.0998 165.12 27.1428 159.896 27.6869 151.704" stroke="#535461" stroke-width="2"/>
<path d="M46.125 176.472C46.125 176.472 57.9134 165.572 59.45 158.928" stroke="#535461" stroke-width="2"/>
<path d="M47.1496 194.016C47.1496 194.016 35.3529 180.329 34.8496 173.376" stroke="#535461" stroke-width="2"/>
<path d="M47.1504 205.368C47.1504 205.368 60.4942 189.996 61.5004 182.664" stroke="#535461" stroke-width="2"/>
<path d="M30.2379 95.976C32.2192 95.976 33.8254 94.3588 33.8254 92.364C33.8254 90.3691 32.2192 88.752 30.2379 88.752C28.2566 88.752 26.6504 90.3691 26.6504 92.364C26.6504 94.3588 28.2566 95.976 30.2379 95.976Z" fill="#536DFE"/>
<path d="M25.1129 155.832C27.0942 155.832 28.7004 154.215 28.7004 152.22C28.7004 150.226 27.0942 148.608 25.1129 148.608C23.1316 148.608 21.5254 150.226 21.5254 152.22C21.5254 154.215 23.1316 155.832 25.1129 155.832Z" fill="#536DFE"/>
<path d="M22.0377 122.808C24.019 122.808 25.6252 121.191 25.6252 119.196C25.6252 117.201 24.019 115.584 22.0377 115.584C20.0564 115.584 18.4502 117.201 18.4502 119.196C18.4502 121.191 20.0564 122.808 22.0377 122.808Z" fill="#536DFE"/>
<path d="M58.9371 101.136C60.9184 101.136 62.5246 99.519 62.5246 97.5241C62.5246 95.5293 60.9184 93.9121 58.9371 93.9121C56.9558 93.9121 55.3496 95.5293 55.3496 97.5241C55.3496 99.519 56.9558 101.136 58.9371 101.136Z" fill="#536DFE"/>
<path d="M58.9371 163.056C60.9184 163.056 62.5246 161.439 62.5246 159.444C62.5246 157.449 60.9184 155.832 58.9371 155.832C56.9558 155.832 55.3496 157.449 55.3496 159.444C55.3496 161.439 56.9558 163.056 58.9371 163.056Z" fill="#536DFE"/>
<path d="M52.7877 116.616C54.769 116.616 56.3752 114.998 56.3752 113.004C56.3752 111.009 54.769 109.392 52.7877 109.392C50.8064 109.392 49.2002 111.009 49.2002 113.004C49.2002 114.998 50.8064 116.616 52.7877 116.616Z" fill="#536DFE"/>
<path d="M60.9879 189.888C62.9692 189.888 64.5754 188.271 64.5754 186.276C64.5754 184.281 62.9692 182.664 60.9879 182.664C59.0066 182.664 57.4004 184.281 57.4004 186.276C57.4004 188.271 59.0066 189.888 60.9879 189.888Z" fill="#536DFE"/>
<path d="M34.3375 180.6C36.3188 180.6 37.925 178.983 37.925 176.988C37.925 174.993 36.3188 173.376 34.3375 173.376C32.3562 173.376 30.75 174.993 30.75 176.988C30.75 178.983 32.3562 180.6 34.3375 180.6Z" fill="#536DFE"/>
<path d="M55.8629 135.192C57.8442 135.192 59.4504 133.575 59.4504 131.58C59.4504 129.585 57.8442 127.968 55.8629 127.968C53.8816 127.968 52.2754 129.585 52.2754 131.58C52.2754 133.575 53.8816 135.192 55.8629 135.192Z" fill="#536DFE"/>
<defs>
<linearGradient id="paint0_linear" x1="441.759" y1="238.369" x2="441.759" y2="30.9543" gradientUnits="userSpaceOnUse">
<stop stop-color="#808080" stop-opacity="0.25"/>
<stop offset="0.54" stop-color="#808080" stop-opacity="0.12"/>
<stop offset="1" stop-color="#808080" stop-opacity="0.1"/>
</linearGradient>
<linearGradient id="paint1_linear" x1="488.954" y1="264.163" x2="488.954" y2="-0.0338254" gradientUnits="userSpaceOnUse">
<stop stop-color="#808080" stop-opacity="0.25"/>
<stop offset="0.54" stop-color="#808080" stop-opacity="0.12"/>
<stop offset="1" stop-color="#808080" stop-opacity="0.1"/>
</linearGradient>
</defs>
</svg>
