<svg width="533" height="388" viewBox="0 0 533 388" fill="none" xmlns="http://www.w3.org/2000/svg">
<path opacity="0.1" d="M520.599 204.434C533.715 279.756 525.72 353.834 465.419 379.092C405.118 404.349 332.056 367.103 302.23 295.901C272.404 224.698 331.283 186.908 357.41 121.243C410.465 -12.1021 479.866 -29.475 520.599 204.434Z" fill="#6AAD38"/>
<path d="M505 320C507.209 320 509 318.209 509 316C509 313.791 507.209 312 505 312C502.791 312 501 313.791 501 316C501 318.209 502.791 320 505 320Z" fill="#FD6F8D"/>
<path d="M525.5 387V338V387Z" fill="#3F3D56"/>
<path d="M525.5 387V338" stroke="#3F3D56" stroke-width="2"/>
<path d="M526 345C529.866 345 533 341.866 533 338C533 334.134 529.866 331 526 331C522.134 331 519 334.134 519 338C519 341.866 522.134 345 526 345Z" fill="#FD6F8D"/>
<path d="M524 366C524 366 523.07 345.847 504 348.189L524 366Z" fill="#FD6F8D"/>
<path d="M24 30.5H220" stroke="#F2F2F2" stroke-width="2"/>
<path d="M24 90.5H220" stroke="#F2F2F2" stroke-width="2"/>
<path d="M24 139.5H220" stroke="#F2F2F2" stroke-width="2"/>
<path d="M37 198.5H210" stroke="#3F3D56" stroke-width="2"/>
<path fill-rule="evenodd" clip-rule="evenodd" d="M28 208C33.5228 208 38 203.523 38 198C38 192.477 33.5228 188 28 188C22.4772 188 18 192.477 18 198C18 203.523 22.4772 208 28 208Z" stroke="#3F3D56" stroke-width="2"/>
<path d="M81.5 198V139" stroke="#3F3D56" stroke-width="2"/>
<path d="M123.5 198V91" stroke="#3F3D56" stroke-width="2"/>
<path d="M167.5 197V30" stroke="#3F3D56" stroke-width="2"/>
<path d="M81 207C85.9706 207 90 202.971 90 198C90 193.029 85.9706 189 81 189C76.0294 189 72 193.029 72 198C72 202.971 76.0294 207 81 207Z" fill="#FD6F8D"/>
<path d="M124 207C128.971 207 133 202.971 133 198C133 193.029 128.971 189 124 189C119.029 189 115 193.029 115 198C115 202.971 119.029 207 124 207Z" fill="#FD6F8D"/>
<path d="M168 207C172.971 207 177 202.971 177 198C177 193.029 172.971 189 168 189C163.029 189 159 193.029 159 198C159 202.971 163.029 207 168 207Z" fill="#FD6F8D"/>
<path fill-rule="evenodd" clip-rule="evenodd" d="M220 208C225.523 208 230 203.523 230 198C230 192.477 225.523 188 220 188C214.477 188 210 192.477 210 198C210 203.523 214.477 208 220 208Z" stroke="#3F3D56" stroke-width="2"/>
<path d="M81 163C94.2548 163 105 152.255 105 139C105 125.745 94.2548 115 81 115C67.7452 115 57 125.745 57 139C57 152.255 67.7452 163 81 163Z" fill="#3262F2"/>
<path d="M123 115C136.255 115 147 104.255 147 91C147 77.7452 136.255 67 123 67C109.745 67 99 77.7452 99 91C99 104.255 109.745 115 123 115Z" fill="#3262F2"/>
<path d="M167 55C180.255 55 191 44.2548 191 31C191 17.7452 180.255 7 167 7C153.745 7 143 17.7452 143 31C143 44.2548 153.745 55 167 55Z" fill="#3262F2"/>
<path d="M167 40C171.971 40 176 35.9706 176 31C176 26.0294 171.971 22 167 22C162.029 22 158 26.0294 158 31C158 35.9706 162.029 40 167 40Z" fill="#FD6F8D"/>
<path d="M123 100C127.971 100 132 95.9706 132 91C132 86.0294 127.971 82 123 82C118.029 82 114 86.0294 114 91C114 95.9706 118.029 100 123 100Z" fill="#FD6F8D"/>
<path d="M81 148C85.9706 148 90 143.971 90 139C90 134.029 85.9706 130 81 130C76.0294 130 72 134.029 72 139C72 143.971 76.0294 148 81 148Z" fill="#FD6F8D"/>
<path d="M8.5 39C13.1944 39 17 35.1944 17 30.5C17 25.8056 13.1944 22 8.5 22C3.80558 22 0 25.8056 0 30.5C0 35.1944 3.80558 39 8.5 39Z" fill="#F2F2F2"/>
<path d="M8.5 99C13.1944 99 17 95.1944 17 90.5C17 85.8056 13.1944 82 8.5 82C3.80558 82 0 85.8056 0 90.5C0 95.1944 3.80558 99 8.5 99Z" fill="#F2F2F2"/>
<path d="M8.5 148C13.1944 148 17 144.194 17 139.5C17 134.806 13.1944 131 8.5 131C3.80558 131 0 134.806 0 139.5C0 144.194 3.80558 148 8.5 148Z" fill="#F2F2F2"/>
<path d="M412 56.123C412 56.123 422.894 70.4125 421.532 80.5197C420.17 90.6269 444 66.5787 444 66.5787C444 66.5787 435.83 49.1525 440.255 40.7879C444.681 32.4233 412 56.123 412 56.123Z" fill="#FFB9B9"/>
<path d="M449.88 341C449.88 341 464.104 356.773 461.733 360.201C459.363 363.63 417.706 376.66 412.964 375.974C408.223 375.288 405.852 371.859 407.546 370.831C409.239 369.802 420.077 363.973 420.077 363.973L429.221 353.344C429.221 353.344 435.994 349.572 435.994 347.515C435.994 345.457 449.88 341 449.88 341Z" fill="#2F2E41"/>
<path d="M425.74 358C425.74 358 420.163 366.531 419.118 366.859C418.072 367.187 424.345 379 424.345 379L438.984 374.734L447 368.5L445.257 359.969L425.74 358Z" fill="#FFB9B9"/>
<path d="M411.547 187L404.804 217.547C404.804 217.547 381.544 270.746 397.725 280.013L433.122 349L452 340.419L420.311 269.716L434.807 188.373L411.547 187Z" fill="#2354E4"/>
<path d="M412.584 193.048H409.065C408.79 203.544 409.388 214.045 410.85 224.445C413.278 241.851 419.523 281.78 419.523 281.78C419.523 281.78 418.829 289.289 420.91 291.678C422.992 294.067 423.338 290.995 423.685 296.455C424.032 301.916 427.328 339.881 427.328 339.881C427.328 339.881 429.583 347.648 427.154 349.354C424.726 351.06 419.869 360.275 423.338 361.64C426.807 363.005 450.744 364.712 451.784 363.688C452.825 362.664 451.784 298.503 451.784 298.503C451.784 298.503 451.091 285.535 450.397 284.852C449.703 284.169 446.581 274.955 447.621 272.907C448.662 270.86 447.968 264.716 447.968 263.693C447.968 262.669 444.846 263.693 447.621 259.256C450.397 254.819 450.744 219.326 450.744 219.326C450.744 219.326 465.66 196.802 461.151 191L412.584 193.048Z" fill="#3262F2"/>
<path d="M421 60C433.703 60 444 49.7025 444 37C444 24.2975 433.703 14 421 14C408.297 14 398 24.2975 398 37C398 49.7025 408.297 60 421 60Z" fill="#FFB9B9"/>
<path d="M444.978 61C444.978 61 431.215 64.4617 425.71 72.7697L420.892 73.8082V78.6546C420.892 78.6546 411.946 107.387 414.011 119.849C416.075 132.311 414.011 156.542 410.57 163.12C407.129 169.697 406.097 171.081 407.817 173.851C409.538 176.62 411.946 185.967 410.226 190.121C408.505 194.275 410.226 198.429 426.054 199.467C441.882 200.506 464.247 200.506 464.247 194.967C464.247 189.428 462.871 173.851 464.247 169.697C465.623 165.543 466.312 162.773 465.623 158.966C464.935 155.158 467 112.579 467 112.579C467 112.579 467.344 70.0004 444.978 61Z" fill="#FD6F8D"/>
<path d="M410.977 168L392.198 195.682C392.198 195.682 372.394 213.574 379.564 221.676C386.735 229.778 405.514 198.045 405.514 198.045L426 175.089L410.977 168Z" fill="#FFB9B9"/>
<path d="M423.452 370.234C423.452 370.234 422.771 366 420.386 366C418.001 366 401.987 376.423 401.987 376.423C401.987 376.423 380.004 385.464 389.286 386.018C398.514 386.57 447.302 387.823 447.642 386.194C447.983 384.566 448.664 368.506 446.28 368.556C443.895 368.606 424.815 372.189 424.815 372.189L423.452 370.234Z" fill="#2F2E41"/>
<path d="M422.399 24.7812C421.596 25.1781 420.71 25.3786 419.815 25.3665C418.891 25.4191 417.788 25.3618 417.296 24.5757C417.064 24.0584 416.956 23.4935 416.982 22.9268C416.786 21.4561 415.998 20.1298 414.802 19.2559C413.605 18.3821 412.104 18.0366 410.647 18.2999C410.745 19.4348 411.09 20.5345 411.657 21.5219C409.627 22.2122 407.392 21.914 405.612 20.7156L405.264 25.3407C404.035 25.9293 402.461 26.0521 401.389 25.2096C400.317 24.3671 400.232 22.3898 401.444 21.7673C399.946 21.4543 398.115 20.7819 398.005 19.2529C397.904 17.8577 399.382 16.8365 399.654 15.4646C399.876 14.3456 399.264 13.1294 399.697 12.0743C400.267 10.6883 402.333 10.3325 402.747 8.89241C402.958 8.15902 402.654 7.37456 402.727 6.61473C402.917 4.62527 405.412 3.79928 407.403 3.91235C409.394 4.02542 411.567 4.5553 413.258 3.49667C414.079 2.98337 414.651 2.16179 415.372 1.51572C417.414 -0.240006 420.346 -0.495525 422.661 0.880505C423.461 1.37953 424.16 2.07107 425.053 2.37438C426.88 2.9951 428.787 1.82064 430.697 1.54991C432.113 1.30689 433.562 1.72748 434.629 2.69126C435.68 3.70407 435.92 5.29859 435.215 6.57738C436.335 6.38764 437.523 6.20411 438.58 6.62489C439.636 7.04568 440.443 8.31338 439.954 9.342C439.773 9.6117 439.629 9.90534 439.528 10.2145C439.429 10.813 440.004 11.3246 440.585 11.4962C441.165 11.6678 441.795 11.6357 442.364 11.8442C444.712 12.7056 444.149 16.4681 445.997 18.1562C446.631 18.6183 447.301 19.0289 448 19.3842C449.892 20.6984 450.609 23.1594 449.719 25.287C449.349 26.1092 448.728 26.8939 448.803 27.793C448.908 29.054 450.256 29.7447 451.202 30.5825C452.972 32.2185 453.496 34.8077 452.501 37.0054C451.632 38.8236 449.748 40.2019 449.557 42.209C449.474 43.0815 449.736 43.9526 449.721 44.8289C449.609 46.4699 448.757 47.9702 447.406 48.9042C446.064 49.8154 444.552 50.4458 442.962 50.7575C442.215 50.9367 441.324 51.2171 441.143 51.9652C440.929 52.852 441.916 53.6591 441.814 54.5658C441.75 54.9598 441.532 55.3123 441.209 55.546C439.873 56.5935 437.758 55.6955 436.941 54.2053C436.124 52.7151 436.228 50.9093 436.355 49.2137L436.815 43.0478C436.959 41.1293 436.945 38.851 435.385 37.7306C433.659 36.4919 431.147 37.4947 429.196 36.6576C427.163 35.7855 426.434 33.233 426.516 31.0183C426.598 28.8037 427.231 26.5855 426.867 24.3992C426.416 21.69 424.011 19.8691 421.583 21.6247C423.717 21.3334 424.085 23.7877 422.399 24.7812Z" fill="#3262F2"/>
<path opacity="0.1" d="M442.835 78.185C442.835 78.185 428.661 83.6951 428.661 95.404C428.661 107.113 429.369 122.61 426.889 127.776C424.409 132.941 422.283 134.663 423.7 138.796C425.117 142.928 427.598 142.24 423.7 145.339C419.802 148.438 420.156 143.273 419.802 148.438C419.448 153.604 423.346 154.293 419.802 156.703C416.259 159.114 407.046 168.757 410.943 171.856C414.841 174.956 425.117 184.943 428.661 181.154C432.204 177.366 433.976 167.724 438.937 168.412C443.898 169.101 444.606 169.445 443.898 166.002C443.189 162.558 440 162.558 444.252 161.525C448.504 160.492 450.276 162.902 448.858 159.458C447.441 156.015 446.378 154.637 449.213 150.849C452.048 147.061 453.465 146.028 453.111 142.24C452.756 138.451 460.906 104.358 460.906 104.358C460.906 104.358 463.387 75.4299 442.835 78.185Z" fill="black"/>
<path opacity="0.1" d="M438.547 78.185C438.547 78.185 424.929 83.6951 424.929 95.404C424.929 107.113 425.61 122.61 423.227 127.776C420.844 132.941 418.801 134.663 420.163 138.796C421.524 142.928 423.908 142.24 420.163 145.339C416.418 148.438 416.758 143.273 416.418 148.438C416.077 153.604 419.822 154.293 416.418 156.703C413.013 159.114 404.162 168.757 407.906 171.856C411.651 174.956 421.524 184.943 424.929 181.154C428.333 177.366 430.036 167.724 434.802 168.412C439.568 169.101 440.249 169.445 439.568 166.002C438.887 162.558 435.823 162.558 439.909 161.525C443.994 160.492 445.696 162.902 444.335 159.458C442.973 156.015 441.951 154.637 444.675 150.849C447.399 147.061 448.76 146.028 448.42 142.24C448.08 138.451 455.91 104.358 455.91 104.358C455.91 104.358 458.293 75.43 438.547 78.185Z" fill="black"/>
<path d="M439.547 76.185C439.547 76.185 425.929 81.6951 425.929 93.404C425.929 105.113 426.61 120.61 424.227 125.776C421.844 130.941 419.801 132.663 421.163 136.796C422.524 140.928 424.908 140.24 421.163 143.339C417.418 146.438 417.758 141.273 417.418 146.438C417.077 151.604 420.822 152.293 417.418 154.703C414.013 157.114 405.162 166.757 408.906 169.856C412.651 172.956 422.524 182.943 425.929 179.154C429.333 175.366 431.036 165.724 435.802 166.412C440.568 167.101 441.249 167.445 440.568 164.002C439.887 160.558 436.823 160.558 440.909 159.525C444.994 158.492 446.696 160.902 445.335 157.458C443.973 154.015 442.951 152.637 445.675 148.849C448.399 145.061 449.76 144.028 449.42 140.24C449.08 136.451 456.91 102.358 456.91 102.358C456.91 102.358 459.293 73.43 439.547 76.185Z" fill="#FD6F8D"/>
<path d="M531 386.5H179" stroke="#3F3D56" stroke-width="2"/>
<path d="M264.949 262V324.153L211 355.15C226.149 381.124 257.805 392.536 286.123 382.231C314.441 371.926 331.269 342.87 326.058 313.279C320.846 283.688 295.096 262.079 264.949 262V262Z" fill="#3262F2"/>
<path d="M266 347C279.255 347 290 336.255 290 323C290 309.745 279.255 299 266 299C252.745 299 242 309.745 242 323C242 336.255 252.745 347 266 347Z" fill="#FD6F8D"/>
</svg>
