<svg width="571" height="363" viewBox="0 0 571 363" fill="none" xmlns="http://www.w3.org/2000/svg">
<path opacity="0.2" d="M139 363C215.768 363 278 354.941 278 345C278 335.059 215.768 327 139 327C62.2324 327 0 335.059 0 345C0 354.941 62.2324 363 139 363Z" fill="#3F3D56"/>
<path d="M507 163H387.709L325 265.092C343.832 276.83 365.554 283.033 387.709 283C453.591 283 507 229.274 507 163Z" fill="#F2F2F2"/>
<path d="M159.865 72C159.865 72 160.994 83.3953 157.608 87.9535C154.223 92.5116 166.072 121 166.072 121L183 89.093C183 89.093 177.357 85.6744 180.743 75.9884L159.865 72Z" fill="#FFB9B9"/>
<path opacity="0.1" d="M159.865 72C159.865 72 160.994 83.3953 157.608 87.9535C154.223 92.5116 166.072 121 166.072 121L183 89.093C183 89.093 177.357 85.6744 180.743 75.9884L159.865 72Z" fill="black"/>
<path d="M210.422 128.212L211 151.44L189.044 186L185 172.969L197.133 149.741C197.133 149.741 193.089 138.976 194.244 132.744C195.4 126.512 210.422 128.212 210.422 128.212Z" fill="#FFB9B9"/>
<path d="M122.578 125.212L122 148.44L143.956 183L148 169.969L135.867 146.741C135.867 146.741 139.911 135.976 138.756 129.744C137.6 123.512 122.578 125.212 122.578 125.212Z" fill="#FFB9B9"/>
<path opacity="0.2" d="M138.433 163L136.196 168.645C130.16 174.304 126.89 182.352 127.249 190.66L120.538 260.657C120.538 260.657 116.064 265.737 117.742 271.946C117.742 271.946 113.827 292.832 116.064 299.606C116.064 299.606 106.558 317.105 116.623 318.234C126.689 319.363 130.045 319.363 131.163 315.412C132.281 311.46 133.959 296.784 133.959 296.784L158.565 208.724L162.479 263.479C162.479 263.479 158.565 278.156 159.683 282.107C160.801 286.058 151.854 314.283 155.768 317.105C159.683 319.928 170.867 321.057 171.426 318.799C171.986 316.541 172.545 302.429 172.545 302.429C172.545 302.429 178.137 290.01 179.255 286.058C180.374 282.107 181.492 260.092 181.492 260.092L191.558 195.176C191.558 195.176 193.795 177.677 188.203 174.29L185.966 164.129L138.433 163Z" fill="#2F2E41"/>
<path d="M113.718 315L111.454 326.321C111.454 326.321 99.5686 345 110.888 345C122.208 345 123.34 339.34 123.34 339.34V334.245C123.34 334.245 129 331.415 129 330.849C129 330.283 127.302 316.698 127.302 316.698L113.718 315Z" fill="#2F2E41"/>
<path d="M169.282 315L171.546 326.321C171.546 326.321 183.431 345 172.112 345C160.792 345 159.66 339.34 159.66 339.34V334.245C159.66 334.245 154 331.415 154 330.849C154 330.283 155.698 316.698 155.698 316.698L169.282 315Z" fill="#2F2E41"/>
<path d="M173 85C181.284 85 188 78.2843 188 70C188 61.7157 181.284 55 173 55C164.716 55 158 61.7157 158 70C158 78.2843 164.716 85 173 85Z" fill="#FFB9B9"/>
<path d="M166.6 108.563C166.6 108.563 158.2 94.3234 158.76 90.906C159.105 88.9481 159.096 86.9428 158.733 84.9883L153.72 88.0581L133 97.7408L141.4 126.219C141.4 126.219 139.16 132.484 139.16 137.041C139.16 141.597 140.28 146.724 139.16 148.432C138.04 150.141 137.48 152.989 138.6 155.267C139.269 156.684 139.465 158.283 139.16 159.824C139.16 159.824 131.32 164.38 135.8 165.519C138.751 166.181 141.809 166.181 144.76 165.519C144.76 165.519 145.32 163.811 149.8 166.089C154.28 168.367 177.8 168.937 177.8 168.937C177.8 168.937 192.92 169.506 192.36 167.228C191.8 164.95 195.16 138.18 195.16 138.18L203 100.589L185.08 89.1973L179.292 84L177.8 92.0451L166.6 108.563Z" fill="#1BBD95"/>
<path d="M137.258 99H133.325C133.325 99 113.379 122.992 118.998 126.944C124.616 130.895 144 134 144 134C144 134 142.314 99 137.258 99Z" fill="#1BBD95"/>
<path d="M198.834 102H203.959C203.959 102 217.626 133.586 213.07 134.715C208.515 135.843 192 139.227 192 137.535C192 135.843 198.834 102 198.834 102Z" fill="#1BBD95"/>
<path d="M157.165 68.8667C157.165 68.8667 155.509 66.4804 156.146 63.9107C156.526 62.4517 156.677 60.946 156.592 59.4441C157.304 57.218 158.199 55.0493 159.267 52.9585C160.605 50.6335 159.968 49.6545 164.172 48.9203C168.376 48.1861 166.656 42.9242 177.74 48.6144C178.504 49.6399 179.836 50.1227 181.116 49.8381C183.409 49.4098 184.237 52.469 184.237 52.469C184.237 52.469 185.766 51.6125 186.339 52.8362C186.912 54.0598 191 52.1017 191 60.3617C191 68.6217 186.348 76 186.348 76C186.348 76 186.689 62.1057 179.109 60.6984C171.529 59.2912 163.376 55.1918 161.401 60.4537C160.335 63.407 158.913 66.2304 157.165 68.8667Z" fill="#2F2E41"/>
<path fill-rule="evenodd" clip-rule="evenodd" d="M321.48 254.027C340.372 265.794 362.152 272.018 384.368 272C450.333 272 504 217.975 504 151.569V151H384.053L321.297 253.245L321 253.728L321.48 254.027ZM384.368 270.863C362.554 270.881 341.16 264.823 322.555 253.358L384.683 152.137H502.869C502.565 217.657 449.523 270.863 384.368 270.863Z" fill="#3F3D56"/>
<path d="M239 146.311C238.98 187.746 260.522 226.232 295.919 248L359 146.311L254.795 87C244.414 105.055 238.968 125.505 239 146.311Z" fill="#F2F2F2"/>
<path fill-rule="evenodd" clip-rule="evenodd" d="M306.026 243.703L306.509 244L370 141.679L265.119 82L264.838 82.4897C232.723 138.503 250.934 209.782 306.026 243.703ZM306.141 242.443C252.104 208.816 234.213 138.796 265.542 83.542L368.417 142.08L306.141 242.443Z" fill="#3F3D56"/>
<path d="M417.869 11L392 127H512C512 70.1937 471.707 22.7101 417.869 11Z" fill="#1BBD95"/>
<path fill-rule="evenodd" clip-rule="evenodd" d="M383 135H504V134.438C503.994 78.5519 464.754 30.1815 409.639 18.1205L409.085 18L383 135ZM502.863 133.875H384.414L409.949 19.3406C463.637 31.2924 502.596 79.317 502.863 133.875Z" fill="#3F3D56"/>
<path d="M368.146 9.40046e-06C325.101 -0.0170026 285.351 23.057 264 60.4544L368.146 120L394 2.80481C385.508 0.938168 376.84 -0.00225508 368.146 9.40046e-06Z" fill="#F2F2F2"/>
<path fill-rule="evenodd" clip-rule="evenodd" d="M268 70.0137L372.947 130L399 11.9377L398.446 11.8158C347.112 0.521861 294.395 23.893 268.282 69.5211L268 70.0137ZM372.172 128.251L269.549 69.5928C295.421 24.8811 347.155 1.94586 397.648 12.803L372.172 128.251Z" fill="#3F3D56"/>
<path d="M433.826 96L433 95.2197L495.294 29H546V30.1374H495.784L433.826 96Z" fill="#3F3D56"/>
<rect x="512" y="37" width="59" height="2" fill="#1BBD95"/>
<rect x="512" y="46" width="59" height="2" fill="#1BBD95"/>
<rect x="512" y="55" width="59" height="2" fill="#1BBD95"/>
<rect x="492" y="287" width="59" height="2" fill="#1BBD95"/>
<rect x="492" y="296" width="59" height="2" fill="#1BBD95"/>
<rect x="492" y="304" width="59" height="2" fill="#1BBD95"/>
<path d="M525 277H465.446L465.278 276.756L419 209.64L419.929 209L466.038 275.872H525V277Z" fill="#3F3D56"/>
<path opacity="0.2" d="M33.2252 317.663C31.406 334.231 41.2061 349 41.2061 349C41.2061 349 53.9556 336.906 55.7748 320.337C57.594 303.769 47.7939 289 47.7939 289C47.7939 289 35.0444 301.094 33.2252 317.663Z" fill="#2F2E41"/>
<path d="M38.5654 317.69C45.2546 332.878 40.1118 350 40.1118 350C40.1118 350 24.1237 342.498 17.4346 327.31C10.7454 312.123 15.8882 295 15.8882 295C15.8882 295 31.8763 302.502 38.5654 317.69Z" fill="#1BBD95"/>
</svg>
