<svg width="601" height="464" viewBox="0 0 601 464" fill="none" xmlns="http://www.w3.org/2000/svg">
<path opacity="0.1" d="M310.5 464C437.802 464 541 456.837 541 448C541 439.163 437.802 432 310.5 432C183.198 432 80 439.163 80 448C80 456.837 183.198 464 310.5 464Z" fill="#1BBD95"/>
<path opacity="0.1" d="M60.2089 68.8661C45.8398 85.6642 42.2047 106.959 42.0066 127.376C41.8674 141.774 43.8376 157.39 55.8724 168.008C71.7137 181.978 102.128 184.731 109.976 202.583C116.936 218.445 100.741 234.404 85.1834 245.599C69.6258 256.794 51.7609 270.502 54.6679 287.172C56.5095 297.816 66.6118 306.172 76.6872 313.187C95.8424 326.553 117.375 338.245 141.648 343.933C185.686 354.241 233.253 343.57 274.519 327.413C299.921 317.469 329.414 305.264 354.641 315.491C361.3 318.191 366.954 322.27 373.094 325.649C390.949 335.417 412.754 339.015 433.975 342.068C465.08 346.558 497.769 350.306 527.738 342.207C557.708 334.107 583.608 310.417 579.02 285.151C574.695 261.349 547.156 245.834 525.211 229.576C517.47 223.839 509.59 216.237 511.517 207.891C513.048 201.273 520.254 196.664 526.678 192.387C560.492 169.751 585.343 138.502 596.768 104.237C602.164 88.0701 604.113 69.4435 592.073 55.8105C582.361 44.8131 565.717 39.531 549.886 35.1844C520.511 27.1169 490.402 20.3003 459.507 18.4612C428.611 16.6221 396.693 20.1292 369.267 31.7681C356.113 37.355 344.19 44.7115 330.908 50.0899C293.197 65.359 248.762 63.306 206.705 60.8948C191.677 60.034 175.97 58.505 162.923 51.9504C151.68 46.294 145.256 42.2415 131.337 41.6107C104.055 40.3757 75.8306 50.5711 60.2089 68.8661Z" fill="#1BBD95"/>
<path d="M263 183.865L262.412 185.081L258.598 192.934L218.591 275.248L150.704 441.925L141 442L208.925 275.248L255.212 180L258.598 181.678L262.412 183.57L263 183.865Z" fill="#535461"/>
<path d="M383 442L375.033 441.925L307.303 275.248L268.443 195.094L263.592 185.081L263 183.865L263.592 183.57L268.443 181.158L270.775 180L316.257 275.248L383 442Z" fill="#535461"/>
<rect x="259" y="158" width="9" height="284" fill="#535461"/>
<path fill-rule="evenodd" clip-rule="evenodd" d="M252.003 121.925C252.009 115.894 256.928 111.006 262.997 111C269.068 111.006 273.989 115.893 273.997 121.925V125.829C274.085 129.791 272.008 133.489 268.57 135.495C265.131 137.502 260.869 137.502 257.43 135.495C253.992 133.489 251.915 129.791 252.003 125.829V121.925ZM262.992 134.014C267.55 134.014 271.245 130.342 271.245 125.813V121.909C271.245 117.38 267.55 113.709 262.992 113.709C258.434 113.709 254.739 117.38 254.739 121.909V125.813C254.739 130.342 258.434 134.014 262.992 134.014Z" fill="#535461"/>
<path opacity="0.1" d="M316 276H306.963L267.746 195.598V276H259.01V193.432L218.732 276H209L255.601 180.458L259.01 182.141V158H267.746V181.619L270.099 180.458L316 276Z" fill="black"/>
<path opacity="0.1" d="M273.997 123V126.589C274.085 130.635 272.008 134.413 268.57 136.463C265.131 138.512 260.869 138.512 257.43 136.463C253.992 134.413 251.915 130.635 252.003 126.589V123H254.75V126.589C254.75 131.215 258.445 134.966 263.003 134.966C267.56 134.966 271.255 131.215 271.255 126.589V123L273.997 123Z" fill="black"/>
<rect x="96" y="124" width="334" height="150" fill="#535461"/>
<rect x="101" y="128" width="321" height="138" fill="white"/>
<g opacity="0.2">
<rect x="132.438" y="143.3" width="15.1413" height="6.465" fill="#1BBD95"/>
</g>
<g opacity="0.2">
<rect x="132.438" y="157.305" width="15.1413" height="6.465" fill="#1BBD95"/>
</g>
<g opacity="0.2">
<rect x="132.438" y="170.305" width="15.1413" height="6.465" fill="#1BBD95"/>
</g>
<g opacity="0.2">
<rect x="132.438" y="183.305" width="15.1413" height="6.465" fill="#1BBD95"/>
</g>
<g opacity="0.2">
<rect x="132.438" y="197.31" width="15.1413" height="6.465" fill="#1BBD95"/>
</g>
<g opacity="0.2">
<rect x="132.438" y="210.31" width="15.1413" height="6.465" fill="#1BBD95"/>
</g>
<g opacity="0.2">
<rect x="132.438" y="223.31" width="15.1413" height="6.465" fill="#1BBD95"/>
</g>
<g opacity="0.2">
<rect x="132.438" y="237.31" width="15.1413" height="6.465" fill="#1BBD95"/>
</g>
<g opacity="0.2">
<rect x="161.149" y="244.28" width="15.6634" height="6.465" fill="#1BBD95"/>
</g>
<g opacity="0.2">
<rect x="189.154" y="244.28" width="15.6634" height="6.465" fill="#1BBD95"/>
</g>
<g opacity="0.2">
<rect x="215.154" y="244.28" width="15.6634" height="6.465" fill="#1BBD95"/>
</g>
<g opacity="0.2">
<rect x="241.16" y="244.28" width="15.6634" height="6.465" fill="#1BBD95"/>
</g>
<g opacity="0.2">
<rect x="269.16" y="244.28" width="15.6634" height="6.465" fill="#1BBD95"/>
</g>
<g opacity="0.2">
<rect x="295.166" y="244.28" width="15.6634" height="6.465" fill="#1BBD95"/>
</g>
<g opacity="0.2">
<rect x="322.166" y="244.28" width="15.6634" height="6.465" fill="#1BBD95"/>
</g>
<g opacity="0.2">
<rect x="349.171" y="244.28" width="15.6634" height="6.465" fill="#1BBD95"/>
</g>
<g opacity="0.2">
<rect x="375.171" y="244.28" width="15.6634" height="6.465" fill="#1BBD95"/>
</g>
<rect x="161" y="193" width="16" height="44" fill="#1BBD95"/>
<rect x="189" y="173" width="16" height="64" fill="#1BBD95"/>
<rect x="215" y="157" width="16" height="80" fill="#1BBD95"/>
<rect x="241" y="166" width="16" height="71" fill="#1BBD95"/>
<rect x="269" y="150" width="16" height="87" fill="#1BBD95"/>
<g opacity="0.2">
<rect x="295.166" y="183.326" width="15.6634" height="53.4707" fill="#1BBD95"/>
</g>
<g opacity="0.2">
<rect x="322.166" y="183.326" width="15.6634" height="53.4707" fill="#1BBD95"/>
</g>
<g opacity="0.2">
<rect x="349.171" y="183.326" width="15.6634" height="53.4707" fill="#1BBD95"/>
</g>
<g opacity="0.2">
<rect x="375.171" y="183.326" width="15.6634" height="53.4707" fill="#1BBD95"/>
</g>
<path d="M374.225 183L244 191.353V194L377 188.5L374.225 183Z" fill="#535461"/>
<path fill-rule="evenodd" clip-rule="evenodd" d="M533.693 207.02C535.509 224.58 528.675 235.773 528.675 235.773L525.94 241.739C528.266 252.295 532.463 265.28 532.463 265.28C528.309 270.101 510.245 270.962 510.245 270.962V270.925H509.966C509.837 271.588 509.691 272.23 509.514 272.835C509.531 273.15 509.546 273.468 509.562 273.786L509.562 273.79C509.576 274.08 509.59 274.372 509.606 274.665C509.865 275.384 509.956 276.153 509.869 276.912C509.831 277.099 509.783 277.26 509.734 277.42C510.164 286.954 510.476 297.12 510.207 303.005C510.204 304.672 510.033 306.333 509.697 307.965C509.381 309.209 509.201 310.482 509.16 311.764C508.864 320.357 510.981 334.803 510.981 334.803C510.977 334.813 510.974 334.824 510.97 334.835L510.959 334.864C510.931 334.943 510.9 335.027 510.9 335.108C510.954 335.348 510.954 335.493 510.954 335.493C510.775 336.069 510.672 336.666 510.648 337.269C510.492 344.524 514.667 360.308 514.667 360.308C514.667 360.308 518.047 384.571 517.568 393.795C517.542 394.641 517.488 395.39 517.407 396.005C516.37 403.699 514.984 425.165 514.984 425.165C514.747 425.52 514.485 425.858 514.2 426.176C514.323 426.657 514.463 427.139 514.619 427.615C516.236 432.455 516.92 437.556 516.634 442.649C516.591 443.267 516.542 443.903 516.488 444.56C515.795 452.51 496.544 447.545 495.276 446.625C494.84 446.314 495.152 443.436 495.748 439.792L475.911 444.677C475.911 444.677 461.844 446.742 455.16 444.677C448.476 442.612 448.707 436.871 458.271 435.951C464.971 435.309 470.312 429.092 472.913 425.427C471.897 422.671 464.284 401.73 462.881 388.771C461.977 380.397 460.494 372.095 458.443 363.924L456.949 344.636L454.295 333.272L451.125 318.238C447.53 307.238 446.456 288.811 446.456 288.811L443.689 270.775C443.306 268.815 443.094 266.827 443.055 264.831C440.462 265.358 437.903 266.041 435.393 266.875C431.067 263.498 437.246 231.198 437.246 231.198C437.246 231.198 440.196 210.803 442.695 192.205C436.967 191.349 430.761 192.697 430.761 192.697L394.45 193.489C393.694 192.505 393.041 191.448 392.5 190.333H390.941C390.751 190.062 390.599 189.767 390.49 189.455L389.851 189.578C387.49 190.121 385.168 190.824 382.903 191.681C382.903 191.681 371.448 193.056 373.178 181.092C374.467 172.173 384.655 175.41 389.754 177.631L390.399 177.92C390.468 177.583 390.468 177.385 390.468 177.385L392.113 177.684C392.317 177.213 392.462 176.957 392.462 176.957C392.462 176.957 410.263 176.256 424.7 174.116C434.974 172.591 442.748 166.737 446.381 163.495C448.911 150.703 456.262 146.824 456.262 146.824C460.367 146.62 464.015 144.828 466.277 143.447C467.093 142.965 467.875 142.428 468.62 141.842L469.017 142.067L469.066 142.03C466.621 139.766 464.085 137.685 461.828 135.946L460.829 135.181C453.711 134.484 447.362 130.428 443.758 124.276C440.155 118.124 439.735 110.624 442.63 104.112C442.69 103.977 442.755 103.846 442.821 103.715L442.821 103.715C442.862 103.634 442.903 103.552 442.942 103.47C440.644 103.221 438.819 101.431 438.536 99.1466C438.444 98.1205 438.68 97.0675 438.914 96.0276C439.252 94.5244 439.583 93.0485 438.907 91.7203C438.701 91.3867 438.522 91.0379 438.369 90.677C438.274 90.3287 438.247 89.9655 438.289 89.6069C438.466 87.4761 439.559 85.5254 441.287 84.2566C443.124 82.9339 444.817 83.0342 446.657 83.1432C447.4 83.1872 448.166 83.2327 448.976 83.1865C451.264 83.0536 453.552 82.6243 455.84 82.195C456.775 82.0194 457.711 81.8437 458.647 81.6884C462.328 81.0838 466.111 80.6879 469.786 81.3246C473.461 81.9613 477.045 83.759 479.194 86.8087C479.706 87.5438 480.125 88.3344 480.545 89.1248C480.873 89.7439 481.201 90.363 481.574 90.9552C482.231 91.9977 483.019 92.9485 483.808 93.9C484.193 94.3646 484.578 94.8293 484.949 95.305C486.84 97.7394 488.371 100.661 488.221 103.732C488.176 104.631 487.991 105.514 487.805 106.396L487.805 106.396C487.63 107.225 487.456 108.053 487.399 108.895C487.319 110.051 487.46 111.194 487.601 112.332C487.659 112.801 487.716 113.269 487.759 113.737C487.942 115.805 487.823 117.888 487.404 119.922C487.315 120.557 487.071 121.162 486.695 121.682C486.265 122.139 485.728 122.481 485.131 122.677C484.507 122.926 483.866 123.13 483.213 123.287C483.943 124.979 484.843 126.592 485.9 128.103C486.507 127.477 486.867 127.097 486.867 127.097L489.494 131.174C489.553 131.003 489.591 130.906 489.591 130.906C489.718 131.161 489.858 131.409 490.01 131.65C490.187 131.168 490.279 130.906 490.279 130.906C491.455 133.244 493.631 135.187 496.189 136.792C503.067 141.099 512.684 142.88 512.684 142.88C528.159 145.117 525.306 161.039 525.306 161.039C525.306 161.039 531.877 189.46 533.693 207.02ZM450.545 195.282L450.83 195.383C450.912 195.037 451 194.668 451.092 194.278L451.094 194.271L451.095 194.268C451.4 192.982 451.758 191.473 452.157 189.851C451.544 191.809 451.001 193.676 450.545 195.282ZM469.162 142.153L469.243 142.228L469.157 142.179L469.162 142.153ZM487.017 397.246C486.894 403.726 490.757 417.316 491.729 420.649H491.735C493.757 424.671 495.261 434.737 495.811 438.416C495.848 438.667 495.881 438.888 495.91 439.075C496.667 434.57 497.796 429.129 498.494 425.881C498.005 424.287 497.35 421.842 496.576 418.214C494.851 410.066 493.814 381.249 493.814 381.249L489.774 357.033C486.088 347.718 485.276 336.702 485.276 336.702C483.793 332.796 480.355 308.918 479.817 305.081C479.973 307.735 480.344 314.444 480.543 321.898L480.575 322.106C480.72 327.735 480.768 333.77 480.548 338.783V338.81C480.494 340.217 480.419 341.549 480.322 342.78C480.316 342.878 480.308 342.976 480.3 343.074C480.282 343.302 480.263 343.531 480.263 343.759C479.817 356.739 485.636 373.084 485.636 373.084C485.636 373.084 488.237 385.203 487.85 391.966C487.852 393.193 487.671 394.414 487.313 395.588C487.143 396.126 487.044 396.683 487.017 397.246Z" fill="url(#paint0_linear)"/>
<path d="M473.868 421.82C473.868 421.82 467.126 433.746 457.645 434.637C448.164 435.528 447.938 441.1 454.562 443.108C461.185 445.115 475.125 443.108 475.125 443.108L495 438.317C495 438.317 492.599 419.142 489.403 418.14C486.206 417.139 473.868 421.82 473.868 421.82Z" fill="#4C4C78"/>
<path d="M497.885 421.405C497.885 421.405 492.959 443.768 494.201 444.676C495.443 445.585 514.123 450.434 514.797 442.642C514.85 441.987 514.897 441.36 514.939 440.761C515.215 435.75 514.551 430.731 512.981 425.968C512.455 424.374 512.086 422.669 512.223 421.405C512.534 418.244 497.885 421.405 497.885 421.405Z" fill="#4C4C78"/>
<path d="M492 136.66C492 136.66 476.593 174.833 479.335 162.573C481.149 154.453 469.423 143.665 461.315 137.326C457.188 134.078 454 132.016 454 132.016C454 132.016 482.925 97.9998 480.875 112.675C480.313 116.694 480.859 120.792 482.453 124.519C485.646 132.173 492 136.66 492 136.66Z" fill="#FFB9B9"/>
<path d="M394 189.708C393.193 189.505 391.875 189.635 390.51 189.922C388.197 190.447 385.924 191.126 383.705 191.953C383.705 191.953 372.48 193.285 374.174 181.714C375.433 173.088 385.415 176.221 390.414 178.362C392.114 179.098 393.24 179.714 393.24 179.714L394 189.708Z" fill="#FFB9B9"/>
<path opacity="0.1" d="M394 190.778C393.018 190.566 391.415 190.702 389.753 191C388.267 187.856 389.398 180.404 389.637 179C391.705 179.764 393.076 180.404 393.076 180.404L394 190.778Z" fill="black"/>
<path d="M393.972 179.542L390.626 179C390.626 179 388.914 189.292 391.152 192H395L393.972 179.542Z" fill="#CBCDDA"/>
<path d="M453.591 197.045C453.591 197.045 444.442 191.605 443.348 198.47C442.254 205.336 440.814 217.065 440.814 217.065L438.281 231.995L435 261.91L435.46 267C435.46 267 445.205 263.74 447.49 264.886C449.774 266.032 451.637 252.301 451.637 252.301L455.426 238.113L456 208.026L453.591 197.045Z" fill="#4C4C78"/>
<path opacity="0.1" d="M453.591 197.045C453.591 197.045 444.442 191.605 443.348 198.47C442.254 205.336 440.814 217.065 440.814 217.065L438.281 231.995L435 261.91L435.46 267C435.46 267 445.205 263.74 447.49 264.886C449.774 266.032 451.637 252.301 451.637 252.301L455.426 238.113L456 208.026L453.591 197.045Z" fill="black"/>
<path d="M448 162C448 162 438.609 172.611 424.35 174.746C410.092 176.881 392.498 177.574 392.498 177.574C392.498 177.574 388.059 185.529 394.463 194L430.336 193.206C430.336 193.206 438.277 191.479 444.429 193.206L448 162Z" fill="#4C4C78"/>
<path opacity="0.05" d="M448 162C448 162 438.609 172.611 424.35 174.746C410.092 176.881 392.498 177.574 392.498 177.574C392.498 177.574 388.059 185.529 394.463 194L430.336 193.206C430.336 193.206 438.277 191.479 444.429 193.206L448 162Z" fill="black"/>
<path opacity="0.1" d="M480.95 124.999C477.437 132.483 471.331 138 462.475 138C462.083 138 461.701 138 461.32 137.973C457.19 134.766 454 132.729 454 132.729C454 132.729 482.947 99.1368 480.896 113.629C480.262 118.066 479.537 121.669 480.95 124.999Z" fill="black"/>
<path d="M484 115.016C483.991 127.165 474.136 137.007 461.987 137C449.839 136.993 439.995 127.14 440 114.991C440.005 102.842 449.856 92.9971 462.005 93C467.846 92.9886 473.45 95.3052 477.578 99.4371C481.706 103.569 484.017 109.176 484 115.016Z" fill="#FFB9B9"/>
<path d="M498 249.54C498 249.54 449.095 253.875 447.302 247.605C445.509 241.336 452.292 224.359 452.292 224.359L450.082 200.657L450.002 199.751C450.002 199.751 456.129 174.11 455.904 172.063C455.691 170.219 465.767 148.704 467.837 144.304C468.083 143.795 468.211 143.516 468.211 143.516L468.6 143.741L468.771 143.843L471.167 145.247L480.629 142.996L492.034 137L493.101 202.597L498 249.54Z" fill="#CBCDDA"/>
<path opacity="0.1" d="M471.909 144.112C471.909 144.112 468.565 143.203 467.259 146.558C466.747 148.001 466.141 149.408 465.445 150.77L464.144 158.563L461.76 170.872L460 225.329L460.795 235L465.163 227.207L465.957 176.305V169.973C466.213 164.499 467.445 159.116 469.595 154.078L470.203 152.649L474 147.752L471.909 144.112Z" fill="black"/>
<path d="M471.905 143.112C471.905 143.112 468.557 142.203 467.256 145.558C466.744 147.001 466.136 148.408 465.438 149.77L464.137 157.566L461.754 169.875L460 224.325L460.794 234L465.161 226.182L465.955 175.317V168.97C466.216 163.498 467.447 158.115 469.591 153.077L470.204 151.648L474 146.757L471.905 143.112Z" fill="#4C4C78"/>
<path opacity="0.1" d="M486.517 129C486.517 129 475.05 141.347 471 142.813C471 142.813 473.025 152.175 475.05 154C475.05 154 487.082 141.54 489.213 140.531L491 136.091L486.517 129Z" fill="black"/>
<path d="M486.517 128C486.517 128 475.05 140.347 471 141.813C471 141.813 473.025 151.175 475.05 153C475.05 153 487.082 140.54 489.213 139.531L491 135.097L486.517 128Z" fill="#CBCDDA"/>
<path opacity="0.1" d="M469 143L468.882 143.321L465.151 153.282L458.477 172.077C458.477 172.077 458.418 172.27 458.3 172.612C457.194 176.034 451.251 194.605 450.081 200L450 199.096C450 199.096 456.163 173.511 455.938 171.468C455.723 169.629 465.859 148.16 467.942 143.77C468.275 143.545 468.533 143.353 468.71 143.209L469 143Z" fill="black"/>
<path d="M469 143L465.079 153.304L458.291 172.128C458.291 172.128 458.231 172.321 458.111 172.664C456.921 176.316 450.133 197.165 449.587 200.978C448.97 205.166 440.435 227.803 440.435 227.803L435.558 267C431.19 263.674 437.393 231.654 437.393 231.654C437.393 231.654 444.361 184.167 446.01 168.369C447.659 152.57 456.555 147.954 456.555 147.954C460.661 147.75 464.364 145.972 466.641 144.607C467.463 144.124 468.251 143.587 469 143Z" fill="#4C4C78"/>
<path opacity="0.1" d="M516.821 395.69C515.793 403.333 514.421 424.651 514.421 424.651C509.616 431.832 498.972 427.955 498.972 427.955C498.972 427.955 497.832 425.809 496.115 417.69C494.398 409.57 493.371 380.969 493.371 380.969L489.362 356.942C485.703 347.701 484.901 336.755 484.901 336.755C483.287 332.535 479.407 304.824 479.407 304.824C479.407 304.824 481.021 329.682 479.983 342.8C478.944 355.918 485.24 373.568 485.24 373.568C485.24 373.568 488.791 390.107 486.957 395.24C485.122 400.372 491.536 421.578 491.536 421.578C490.998 427.74 472.778 425.23 472.778 425.23C472.778 425.23 464.206 402.303 462.704 388.504C461.805 380.189 460.332 371.947 458.297 363.834L456.812 344.671L454.176 333.345L451.033 318.408C447.482 307.462 446.4 289.158 446.4 289.158L443.65 271.197C441.853 262.316 444.188 251.89 445.738 246.436C446.411 244.071 446.949 242.628 446.949 242.628C448.525 243.743 457.555 245.052 462.225 246.114C464.782 246.701 467.411 246.911 470.028 246.736C481.837 245.802 493.518 243.667 504.891 240.365C505.661 240.134 506.07 240 506.07 240L506.312 242.054L506.882 246.945L507.899 255.628C507.899 255.628 510.988 301.928 509.159 308.186C507.329 314.445 510.418 335.538 510.418 335.538C508.701 340.542 514.077 360.879 514.077 360.879C514.077 360.879 517.854 388.048 516.821 395.69Z" fill="black"/>
<path d="M516.821 394.684C515.793 402.327 514.421 423.648 514.421 423.648C509.616 430.836 498.972 426.952 498.972 426.952C498.972 426.952 497.832 424.807 496.115 416.692C494.398 408.576 493.371 379.96 493.371 379.96L489.362 355.898C485.73 346.657 484.901 335.682 484.901 335.682C483.287 331.461 479.407 303.746 479.407 303.746C479.407 303.746 481.021 328.607 479.983 341.727C478.944 354.847 485.24 372.521 485.24 372.521C485.24 372.521 488.791 389.063 486.957 394.196C485.122 399.329 491.536 420.543 491.536 420.543C490.998 426.7 472.778 424.19 472.778 424.19C472.778 424.19 464.206 401.287 462.704 387.48C461.805 379.165 460.332 370.921 458.297 362.807L456.812 343.647L454.176 332.357L451.033 317.419C447.482 306.466 446.4 288.159 446.4 288.159L443.65 270.196C441.853 261.313 444.188 250.886 445.738 245.431C446.411 243.071 446.949 241.628 446.949 241.628C448.525 242.744 457.555 244.047 462.225 245.109C464.781 245.699 467.411 245.909 470.028 245.732C481.837 244.797 493.518 242.662 504.891 239.359L506.07 239L506.312 241.049L506.882 245.946L507.899 254.63C507.899 254.63 510.988 300.93 509.159 307.195C507.329 313.46 510.418 334.551 510.418 334.551C508.701 339.55 514.077 359.889 514.077 359.889C514.077 359.889 517.854 387.03 516.821 394.684Z" fill="#474463"/>
<path opacity="0.1" d="M483.979 114.881C483.985 118.709 482.984 122.47 481.074 125.79C477.656 126.392 474.019 125.726 471.461 123.473C469.71 121.934 468.578 119.83 467.072 118.045C466.097 116.949 465.05 115.918 463.937 114.961C463.211 114.24 462.377 113.634 461.465 113.166C460.535 112.698 459.44 112.686 458.501 113.134C457.294 113.806 456.899 115.302 456.199 116.495C455.673 117.52 454.773 118.303 453.684 118.684C452.567 119.041 451.347 118.628 450.678 117.667C449.935 116.394 450.48 114.407 449.236 113.63C448.908 113.468 448.569 113.329 448.221 113.214C446.619 112.49 446.432 110.343 446.293 108.586C446.224 107.723 446.037 106.748 445.311 106.285C444.585 105.821 443.629 106.056 442.764 106.072C442.508 106.082 442.251 106.062 442 106.013C446.203 96.5634 456.462 91.3357 466.602 93.4767C476.742 95.6177 483.997 104.544 484 114.881H483.979Z" fill="black"/>
<path d="M441.957 86.2364C440.259 87.4875 439.187 89.4117 439.018 91.512C438.978 91.8589 439.005 92.2103 439.098 92.547C439.246 92.9043 439.424 93.2487 439.629 93.5766C440.745 95.7899 439.039 98.4118 439.257 100.88C439.563 103.291 441.606 105.105 444.04 105.126C444.9 105.126 445.846 104.871 446.574 105.338C447.302 105.805 447.483 106.771 447.552 107.631C447.69 109.382 447.866 111.521 449.465 112.243C449.81 112.36 450.147 112.499 450.475 112.657C451.718 113.432 451.176 115.417 451.915 116.68C452.581 117.638 453.794 118.049 454.906 117.694C455.988 117.315 456.882 116.536 457.404 115.518C458.089 114.324 458.498 112.864 459.699 112.169C460.633 111.718 461.723 111.728 462.648 112.195C463.556 112.663 464.386 113.268 465.109 113.989C466.217 114.942 467.259 115.968 468.228 117.062C469.726 118.835 470.853 120.931 472.596 122.465C475.88 125.347 480.907 125.65 484.956 123.988C485.54 123.794 486.067 123.458 486.491 123.012C486.861 122.498 487.1 121.903 487.187 121.276C487.599 119.278 487.717 117.231 487.538 115.199C487.395 113.607 487.071 112.015 487.182 110.423C487.294 108.714 487.905 107.063 487.99 105.354C488.139 102.329 486.635 99.4573 484.802 97.0637C483.696 95.6359 482.453 94.3144 481.496 92.7858C480.662 91.459 480.056 89.9994 479.164 88.715C477.07 85.7163 473.542 83.9383 469.939 83.3173C466.336 82.6963 462.633 83.0785 459.024 83.6782C455.879 84.2089 452.712 84.9626 449.523 85.1484C446.734 85.3447 444.486 84.4053 441.957 86.2364Z" fill="#472727"/>
<path opacity="0.1" d="M468 143L464.039 153.411L457.182 172.432C457.182 172.432 457.121 172.627 457 172.973V173L465.628 144.613C466.454 144.128 467.247 143.589 468 143V143Z" fill="black"/>
<path d="M509.985 260.781C509.985 260.781 510.385 272.944 507.003 276L498 259.558L505.552 256L509.985 260.781Z" fill="#FFB9B9"/>
<path opacity="0.1" d="M531 265.359C526.898 270.143 509.046 271 509.046 271L491.376 243.143C491.376 243.143 487.194 240.24 479.338 227.163C471.483 214.086 471.74 204.015 472.179 196.494C472.618 188.972 477.534 167.357 477.534 167.357C478.3 162.492 489.314 132 489.314 132C490.471 134.309 492.623 136.237 495.14 137.828C501.94 142.114 511.434 143.871 511.434 143.871C526.727 146.094 523.905 161.898 523.905 161.898C523.905 161.898 524.076 223.327 523.134 230.677C522.192 238.027 531 265.359 531 265.359Z" fill="black"/>
<path d="M510 263.383L509.498 268L503.442 265.694L499 258.712L502.334 256L510 263.383Z" fill="#CBCDDA"/>
<path opacity="0.1" d="M510 246.271L506.76 246.604L475.516 249.745C470.499 250.252 465.435 250.002 460.491 249.003L446 246.088C446.668 243.722 447.203 242.275 447.203 242.275C448.77 243.394 457.742 244.7 462.384 245.765C464.923 246.357 467.536 246.567 470.137 246.389C481.871 245.452 493.48 243.311 504.781 240L506.193 241.694L510 246.271Z" fill="black"/>
<g opacity="0.1">
<path d="M447.848 242.795C447.746 242.744 447.647 242.687 447.552 242.623C447.552 242.623 447.552 242.656 447.52 242.704L447.848 242.795Z" fill="black"/>
<path d="M513.707 360.682C513.707 360.682 508.404 340.379 510.101 335.389C510.101 335.389 507.057 314.347 508.865 308.083C510.674 301.819 507.619 255.613 507.619 255.613L506.617 246.944L506.055 242.056L505.821 240.011L504.655 240.369L503.934 240.584L504.024 241.376L504.586 246.259L505.588 254.927C505.588 254.927 508.632 301.149 506.834 307.398C505.037 313.646 508.07 334.703 508.07 334.703C506.378 339.699 511.676 359.996 511.676 359.996C511.676 359.996 515.388 387.099 514.386 394.723C513.384 402.347 512.015 423.635 512.015 423.635C508.558 428.877 502.03 428.224 498.758 427.49L498.816 427.619C498.816 427.619 509.306 431.495 514.041 424.321C514.041 424.321 515.393 403.027 516.412 395.408C517.43 387.789 513.707 360.682 513.707 360.682Z" fill="black"/>
<path d="M486.985 394.953C488.788 389.829 485.293 373.317 485.293 373.317C485.293 373.317 479.094 355.649 480.107 342.579C480.531 337.124 480.504 329.638 480.324 322.769C478.887 313.908 477.508 304.03 477.508 304.03C477.508 304.03 479.099 328.846 478.081 341.937C477.063 355.028 483.262 372.68 483.262 372.68C483.262 372.68 486.762 389.187 484.954 394.311C483.145 399.435 489.456 420.583 489.456 420.583C489.005 425.509 477.418 424.867 472.82 424.438L472.995 424.909C472.995 424.909 490.925 427.415 491.487 421.269C491.498 421.253 485.182 400.077 486.985 394.953Z" fill="black"/>
</g>
<path d="M532 265.359C527.904 270.143 510.047 271 510.047 271L492.378 243.143C492.378 243.143 488.196 240.24 480.336 227.163C472.476 214.086 472.744 204.015 473.178 196.494C473.611 188.972 478.532 167.357 478.532 167.357C479.298 162.492 490.311 132 490.311 132C491.463 134.309 493.615 136.237 496.137 137.828C502.937 142.114 512.43 143.871 512.43 143.871C527.717 146.094 524.895 161.898 524.895 161.898C524.895 161.898 525.066 223.327 524.124 230.677C523.181 238.027 532 265.359 532 265.359Z" fill="#4C4C78"/>
<path opacity="0.1" d="M492.436 147.253L488.585 148.694L491.149 150.503L472 197C472.445 189.441 477.364 167.634 477.364 167.634C478.131 162.732 489.164 132 489.164 132C490.317 134.327 492.474 136.271 495 137.874L492.436 147.253Z" fill="black"/>
<path opacity="0.1" d="M498 229.112L517.449 224L520 232.056L500.125 237L498 229.112Z" fill="black"/>
<path opacity="0.1" d="M508.369 150.137C508.369 150.137 499.413 158.509 502.792 177.168C506.172 195.827 511.575 216.084 511.575 216.084L497 256.201C497 256.201 507.159 266.724 512.153 268L526.701 235.922C526.701 235.922 533.503 224.804 531.694 207.358C529.886 189.911 523.343 161.679 523.343 161.679C523.343 161.679 523.349 144.495 508.369 150.137Z" fill="black"/>
<path d="M509.381 150.137C509.381 150.137 500.427 158.509 503.793 177.168C507.159 195.827 512.564 216.084 512.564 216.084L498 256.201C498 256.201 508.152 266.724 513.141 268L527.705 235.922C527.705 235.922 534.501 224.804 532.694 207.358C530.887 189.911 524.35 161.679 524.35 161.679C524.35 161.679 524.35 144.495 509.381 150.137Z" fill="#4C4C78"/>
<path opacity="0.1" d="M498.227 257.07C498.227 257.07 509.829 273.125 508.953 277.4C508.076 281.676 504.676 279.389 504.676 279.389L500.106 273.125L496 261.406C496 261.406 496.402 256.349 498.227 257.07Z" fill="black"/>
<path opacity="0.1" d="M497.227 257.07C497.227 257.07 508.804 273.125 507.955 277.4C507.106 281.676 503.677 279.389 503.677 279.389L499.102 273.125L495 261.406C495 261.406 495.402 256.349 497.227 257.07Z" fill="black"/>
<path d="M497.228 257.07C497.228 257.07 508.81 273.125 507.955 277.4C507.1 281.676 503.675 279.389 503.675 279.389L499.103 273.125L495 261.406C495 261.406 495.397 256.349 497.228 257.07Z" fill="#474463"/>
<defs>
<linearGradient id="paint0_linear" x1="533.991" y1="449.027" x2="533.991" y2="80.9929" gradientUnits="userSpaceOnUse">
<stop stop-color="#808080" stop-opacity="0.25"/>
<stop offset="0.54" stop-color="#808080" stop-opacity="0.12"/>
<stop offset="1" stop-color="#808080" stop-opacity="0.1"/>
</linearGradient>
</defs>
</svg>
